<mxfile host="65bd71144e">
    <diagram name="Page-1" id="HU_s3n2G9bMc4p2UbRsx">
        <mxGraphModel dx="1957" dy="982" grid="1" gridSize="10" guides="1" tooltips="1" connect="1" arrows="1" fold="1" page="1" pageScale="1" pageWidth="850" pageHeight="1100" math="0" shadow="0">
            <root>
                <mxCell id="0"/>
                <mxCell id="1" parent="0"/>
                <mxCell id="25" value="" style="rounded=0;whiteSpace=wrap;html=1;fillStyle=solid;movable=1;resizable=1;rotatable=1;deletable=1;editable=1;connectable=1;strokeColor=none;" parent="1" vertex="1">
                    <mxGeometry x="-140" y="260" width="990" height="690" as="geometry"/>
                </mxCell>
                <mxCell id="qeHBC6ffnCPLCOh5fAQi-3" value="" style="rounded=0;whiteSpace=wrap;html=1;dashed=1;dashPattern=8 8;" parent="1" vertex="1">
                    <mxGeometry x="240" y="280" width="580" height="360" as="geometry"/>
                </mxCell>
                <mxCell id="qeHBC6ffnCPLCOh5fAQi-5" value="" style="rounded=1;whiteSpace=wrap;html=1;fontSize=16;fillColor=#d80073;strokeColor=#A50040;fontColor=#ffffff;" parent="1" vertex="1">
                    <mxGeometry x="380" y="340" width="290" height="257" as="geometry"/>
                </mxCell>
                <mxCell id="qeHBC6ffnCPLCOh5fAQi-50" value="" style="group" parent="1" vertex="1" connectable="0">
                    <mxGeometry x="410" y="434" width="230" height="70" as="geometry"/>
                </mxCell>
                <mxCell id="qeHBC6ffnCPLCOh5fAQi-36" value="" style="rounded=1;whiteSpace=wrap;html=1;fontSize=16;" parent="qeHBC6ffnCPLCOh5fAQi-50" vertex="1">
                    <mxGeometry y="10" width="230" height="60" as="geometry"/>
                </mxCell>
                <mxCell id="qeHBC6ffnCPLCOh5fAQi-40" value="OpenLDAP" style="text;html=1;strokeColor=none;fillColor=none;align=center;verticalAlign=middle;whiteSpace=wrap;rounded=0;fontSize=16;" parent="qeHBC6ffnCPLCOh5fAQi-50" vertex="1">
                    <mxGeometry x="60" y="25" width="110" height="30" as="geometry"/>
                </mxCell>
                <mxCell id="35" value="" style="ellipse;whiteSpace=wrap;html=1;fillColor=#e51400;fontColor=#ffffff;strokeColor=none;" parent="qeHBC6ffnCPLCOh5fAQi-50" vertex="1">
                    <mxGeometry x="3" y="14" width="15" height="15" as="geometry"/>
                </mxCell>
                <mxCell id="21" style="edgeStyle=none;html=1;exitX=0.5;exitY=0;exitDx=0;exitDy=0;exitPerimeter=0;entryX=0;entryY=0.5;entryDx=0;entryDy=0;fillColor=#60a917;strokeColor=#2D7600;strokeWidth=7;" parent="1" source="5" target="qeHBC6ffnCPLCOh5fAQi-3" edge="1">
                    <mxGeometry relative="1" as="geometry">
                        <Array as="points">
                            <mxPoint x="70" y="460"/>
                        </Array>
                    </mxGeometry>
                </mxCell>
                <mxCell id="23" style="edgeStyle=none;html=1;entryX=0;entryY=0.5;entryDx=0;entryDy=0;strokeWidth=7;fillColor=#76608a;strokeColor=#432D57;" parent="1" source="5" target="10" edge="1">
                    <mxGeometry relative="1" as="geometry">
                        <Array as="points">
                            <mxPoint x="70" y="785"/>
                        </Array>
                    </mxGeometry>
                </mxCell>
                <mxCell id="5" value="" style="verticalLabelPosition=bottom;html=1;verticalAlign=top;align=center;strokeColor=none;fillColor=#00BEF2;shape=mxgraph.azure.laptop;pointerEvents=1;" parent="1" vertex="1">
                    <mxGeometry x="8" y="578" width="120" height="65" as="geometry"/>
                </mxCell>
                <mxCell id="qeHBC6ffnCPLCOh5fAQi-21" value="&lt;b&gt;AIOps OCP Cluster&lt;/b&gt;" style="text;html=1;strokeColor=none;fillColor=none;align=center;verticalAlign=middle;whiteSpace=wrap;rounded=0;fontSize=16;" parent="1" vertex="1">
                    <mxGeometry x="420.5" y="605" width="200" height="30" as="geometry"/>
                </mxCell>
                <mxCell id="7" value="" style="group" parent="1" vertex="1" connectable="0">
                    <mxGeometry x="252" y="290" width="240" height="64.77999999999997" as="geometry"/>
                </mxCell>
                <mxCell id="qeHBC6ffnCPLCOh5fAQi-20" value="" style="shape=image;verticalLabelPosition=bottom;labelBackgroundColor=default;verticalAlign=top;aspect=fixed;imageAspect=0;image=data:image/png,iVBORw0KGgoAAAANSUhEUgAABLAAAAUCCAYAAAAaVAoFAAAABmJLR0QA/wD/AP+gvaeTAAAgAElEQVR4nOzdeXiddZn/8c/9PCcnbVkKrWzdck6WtpAmaQkjls2iuAIyg6L8cNxHHAdnHEdxwQUdZ1TcZpjRGfcFdHQo6CiIimirsmrT0qSBNuckJ4VS1rbSJW2Tc57790crirK02b5neb+uyz/makneOk1pPn3OfSQAAAAAAAAAAAAAAAAAAAAAAAAAAAAAAAAAAAAAAAAAAAAAAAAAAAAAAAAAAAAAAAAAAAAAAAAAAAAAAAAAAAAAAAAAAAAAAAAAAAAAAAAAAAAAAAAAAAAAAAAAAAAAAAAAAAAAAAAAAAAAAAAAAAAAAAAAAAAAAAAAAAAAAAAAAAAAAAAAAAAAAAAAAAAAAAAAAAAAAAAAAAAAAAAAAAAAAAAAAAAAAAAAAAAAAAAAAAAAAAAAAAAAAAAAAAAAAAAAAAAAAAAAAAAAAAAAAAAAAAAAAAAAAAAAAAAAAAAAAAAAAAAAAAAAAAAAAIBKY6EDAAAAKsl9c5ZOHZo2fIjtGT7cLJoexTrEEz/UzQ+TbLrJpron0yTJzQ4zs5S5R4lsuiSZfIpkU/d9ND/cpPhAP7dLQ5Lt3f9/bXdZKbLEXdHvJMlcI+7JTklSZNst0ZCbD7lpm5W0K4mSIStFO3xKevthOzU0a3PX0Dj+TwMAADBhGLAAAEDNcSnqb2p/VqnkM+I4nulJMsPdZ1oUzZD7TDOf6W7PkmmGu2aaNF3S4fv/c8CDU4XYJmmnpC1ybZX5o2a2NXFtMbOtlvgWN221KNlSKtnWKJXa0pJf80joaAAAUFsYsAAAQFXZOK/tyOF0NMuT5LjIbZa7H2dms1x2nOSzJB0naa6kusCplWzY5FvctM3cNrv0gMw2e+IPmPnmyKIHSsVk8/aj0ved1NU1EjoWAABUPgYsAABQMe6bs3Tq7nhHJrKoIZFlTEmDyRpc1iDzjPaNU/z5pnyUJG12aaNJBZNtdPlGV7IxtnhjlDx2b3ZwcE/oSAAAUP74Ax4AACgr+ab2o0uJFkTSfJm1yNUoeYOkjKSjA+dhnJn8AZdtlLTRpXwk9bmrrzgynDv+/vVbQvcBAIDywIAFAAAmXSGTmVJMTW9SKTlBrka3qNHkrZIWad+9KUDad59rQLIBmQbM/W5F3ltMDfct3LBhR+g4AAAweRiwAADAhOltbU2n96ZarOSdbnaC3FslnSApK/4cgjEw+QOS9Uq6W/Jes+ju9PC0rrmbbt8dug0AAIw//uAIAADGbFVnZ91hW/ecYBafYInaZPr901QMVZhMRUk5yXtc0TqZeiMrdjf19w6YlISOAwAAo8cfKAEAwEFZ1dlZN/2x4nwreaekTpc6JZ0oaWrgNOCp7JS01qQuSV0eW1dzfv560/JS6DAAAHBgGLAAAMBT+uOXAOoPY9VJkuoDpwFj9Uej1r6XIO6ZWvxNa2/vcOgwAADw5xiwAACAJMkl25Btn59yPUeRL03clprUKikO3QZMkl0mrZbZ7Z4kt8XmdzQW1j0UOgoAADBgAQBQs3pbWw+dsju1uJR4p5mdKvkySUeF7gLKickfcEW3uPutcWRdPKUFAEAYDFgAANSIXHP7HJVsmUunm/wU7Xs3wCh0F1Bhdph0p+S3y+22vYeUbmnt7d0ZOgoAgGrHgAUAQJW6u6HzuLpo+DRXdJZZcprcTgjdBFShkqS7TLrV5bdElr6paaDrsdBRAABUGwYsAACqxPq5S2bFqeKpDFZAUCVJd8nsZrnfGlndrxi0AAAYOwYsAAAq1D2zF85MpeueJ9kLJb1AUkPoJgB/ZkTSb0y2oiS/aXPDjNvPXLmyGDoKAIBKw4AFAECFWLFsWWrufVs6vKSzzOwsl54rqS50F4CDssuk2xPXDSVFPzh+8K7B0EEAAFQCBiwAAMpYX8Oi42XRCyPzF7hsmaRDQjcBGD8mbZD0UyX+k2kj6V/O2tw1FLoJAIByxIAFAEAZyTU316t4yDKZzjX52S5lQjcBmDR7TLpFsp+Y6fqmgbV9oYMAACgXDFgAAAS2YX7ns+KRkZe67BwpeZFkh4duAlAWBky6ITG/fvuR6V+e1NU1EjoIAIBQGLAAAAgg19zRqmJyjszOlbRUUhS6CUBZ2yLZL0x+g8dT/68lf+f20EEAAEwmBiwAACaB64I4n1l/mpmd79JfSZobuglAxdpj8p9L+uFwkr7+hI1dD4QOAgBgojFgAQAwQVwXxAONfUvd/QLJL3DZcaGbAFSdRNLt7lruRbt2waa194cOAgBgIjBgAQAwjnLNzfWeTD09cjvXpQslHR26CUDNeHzMSkrx8oX3rdkcOggAgPHCgAUAwBjlmpvrbeSQlyaxv9JcZ0s6LHQTgJqXmHSr5NcMJ+nreJkhAKDSMWABADAK+14euGFZkvhFMjtf0hGhmwDgKSSSbpH8GsWpa1ryax4JHQQAwMFiwAIA4CDkmjtaleg15slruWkFoAKVTFoh6epdQ7qu46HuXaGDAAA4EAxYAAA8g3syizMplV4lszdKmh+6BwDGh2+X7AeSlm9qmPHjM1euLIYuAgDgqTBgAQDwJO6ZvXBmXbr+Ipe/TlJn6B4AmGD3yex/FOnqlvza3tAxAAD8KQYsAAD2W7FsWWr2vdtebO6vl3SupHTgJAAIYY3Mrzazbzf3dz8cOgYAAIkBCwAAbci0LYwiu1CuN0iaF7oHAMrEsKSbJL9qU8PM7/MSQwBASAxYAICa1N/YOd19+FUue62kU0P3AEBZM90v2bdKJf/iwo3dhdA5AIDaw4AFAKgp/Y0dpyWuv5X85ZKmhO4BgApTkukml31l+5Gp60/q6hoJHQQAqA0MWACAqlfILD6iZP4ad3+LTK2hewCgSjxk0lVm9pWmgbV9oWMAANWNAQsAULXyTW2dSRJdbPJXSzokdA8AVLFbJb+SW1kAgInCgAUAqCqFTGZKyQ5/pZveLteJoXsAoMZslunLiuLPt+TXPBI6BgBQPRiwAABVYX22fUEs+3vJXyvpsNA9AFDj9ki6JpF9fkFh7W9CxwAAKh8DFgCgou0/yv4Pkp8vKQ7dAwD4M10m/9K0velvzdrcNRQ6BgBQmRiwAAAVp7e19dD07vi1cv29pIWhewAAB+QRub5SKsWfW3jfms2hYwAAlYUBCwBQMdY3tGfj2N4i9zdLmhG6BwAwKsOS/SAy+1TTwF2/DR0DAKgMDFgAgLLXl207Q6Z/NLeXiZcJAkC1cMl/5vJPzy+s+1noGABAeWPAAgCUJZeifLb9bLm9V+anhO4BAEwcl7oj+edj33FVdnBwT+geAED5YcACAJSV3tbWdP1QfKFL75V0fOgeAMCkekimLwwPl/6jdVPv1tAxAIDywYAFACgLhcziI4pR8la5/kHSsaF7AABB7ZD8yyNJ+tMnbOx6IHQMACA8BiwAQFCFTOuxxSj+W7neLumI0D0AgLIyLOl/FScfacmv6w8dAwAIhwELABBEvqm12UvRZTJ7taR06B4AQFkblnSV4uQTDFkAUJsYsAAAk6pvXluj4ug9Jn+jpFToHgBARUkku86T0uXzN667J3QMAGDyMGABACZFrrmjVSV/j6SLJMWhewAAFS2RdKNF/uHm/p6u0DEAgInHgAUAmFD9jW1tidulYrgCAEwAk25OXB+YP9h9Z+gWAMDEYcACAEyIDdnWjkip90v+CvHvGwDAxLvVIn2oub/7F6FDAADjj28oAADjKtfQscSi5KMuOzt0CwCgFvlNkfn7mwbWrQpdAgAYPwxYAIBxsSHTtjAyu0zSqyVFoXsAALXNpJsjJe9sLKzrDt0CABg7BiwAwJj0N7bOK3nq/byrIACgDO1718JS8t759/YMhI4BAIweAxYAYFRyzUuOUpK8U+5vlzQldA8AAE9j2GXfqPPi5dnB3gdDxwAADh4DFgDgoPTOaZ2RTqfeLfe/lzQtdA8AAAdhl8w+Fyn18aaBrsdCxwAADhwDFgDggGye1TltqH7kHS5/t2SHh+4BAGAMHpX5x1LJjv/ODg7uCR0DAHhmDFgAgKflUpTPtr3cZJ90KRO6BwCAcbTJ5B+9r2Hm185cubIYOgYA8NQYsAAATymX6XiRm3/SpPbQLQAATKD1kfk7mwZ6bgwdAgB4cgxYAIA/k5u35ATFpSsknRO6BQCAyeLSz2PzdzQN9PSEbgEAPBEDFgDgcRvmdMy2On3I5G+SFIfuAQAggKLLvhZF/sHm/u6HQ8cAAPZhwAIAqLe19dD0UPw+Se+QNDV0DwAAZWCbuz6yfWbdf53U1TUSOgYAah0DFgDUMJcsn217hWSfljQvdA8AAGWoT/IPtBR6locOAYBaxoAFADUq19B+oke60qTTQrcAAFDuXPp5Ssk/NRbWdYduAYBaxIAFADWmd07rjPq6+HKXLhF3rgAAOBiJpG9bpHdxHwsAJhcDFgDUiFWdnXXTt4xcItPlko4I3QMAQAXb5q6P3J+Z8fkzV64sho4BgFrAgAUANSDf1P48T3SlpEWhWwAAqBYudUdR8tbm/nW3hW4BgGrHgAUAVSzX3D7HirrSTeeHbgEAoEolLvtKfSl5b8O9PdtCxwBAtWLAAoAqtGLZstTswa2XmOmjkg4L3QMAQA3YavL3NRV6vmySh44BgGrDgAUAVSbf1NbpiX1B0kmhWwAAqDUm/dpje2tLfm1v6BYAqCYMWABQJTbOaztyJLYPu/Q2SVHoHgAAatiISf+9d1rp/a29vTtDxwBANWDAAoAK55L1Z9tf49KnJB0dugcAADyuEJm/rWmg58bQIQBQ6RiwAKCC9Td2zHf3z7t0VugWAADwlG6IrHRJ00DvvaFDAKBSMWABQAXqbW1Np3dH75fbeyWlQ/cAAIBntMNdH2wZ7P5Pk5LQMQBQaRiwAKDC5Bo6lijyr0paEroFAAActNsT9zcuGOxZHzoEACoJAxYAVIj75iyduic9dLnc3yUpDt0DAABGbY/cP9w8uPDTpuWl0DEAUAkYsACgAmzItp8eSV+RND90CwAAGDd3qhS/seXeNXeHDgGAcseABQBlrL+xc7r7yD+79DZJUegeAAAw7kZk9tnHjkx98KSurpHQMQBQrhiwAKBM9TUuPts8+W9Jc0O3AACAiWZrlegNLRvXrgldAgDliAELAMpMf2Pn9JIXP2nyi0O3AACASTUis88OTy1+qLW3dzh0DACUEwYsACgjfdlFLzBFX5M0J3QLAAAIw6VuS/SGlo3dq0O3AEC5YMACgDKw9pj2Q6ZN1adk+lvxezMAAJBG5PrXx2bWfYzbWADAN0kAEFwu0/4cmb4p3mEQAAD8uVWR2aubBtb2hQ4BgJAYsAAgkFWdnXXTt428X64PSIpD9wAAgLK1213vmz/YfWXoEAAIhQELAALob2xrS9yukrQ4dAsAAKgMbv790t6RNx9///otoVsAYLJFoQMAoJa4FOUa29+XuHWJ8QoAABwEc/urVDrd3dfYdlboFgCYbDyBBQCTZCC76JiSom9KelHoFgAAUNHcpP/0eOjdLfn83tAxADAZGLAAYBLkMm3nyeyrkmaGbgEAAFXC1RtbclFjYV136BQAmGgMWAAwgQqZzJSSHX6FS38vfs8FAADjb4+73tsy2P0fJnnoGACYKHwzBQATJDdvyQkel75jUnvoFgAAUO38ppEk/foTNnY9ELoEACYCR9wBYJy5ZPls29sUl7oYrwAAwOSwF9ZFI2tymQ5ubQKoSjyBBQDjaMP8zmdFIyNfk3Ru6BYAAFCTEpP/a1Nh4UdMy0uhYwBgvDBgAcA46W9c/BfuyTUuZUK3AACAWucrR5L0RbykEEC14CWEADBGLllfpv3tiSe3MF4BAIDyYMvqopG7+hrbzgpdAgDjgSewAGAMcs0nH67S7q9KekXoFgAAgCdRkulfmge6/9mkJHQMAIwWAxYAjFKuof1ERVouqTF0CwAAwNMx+Y/2jiSvbd3UuzV0CwCMBi8hBIBRyGfbLlak28R4BQAAKoDLzk7XxXflGtqWhm4BgNHgCSwAOAjrFyw4LBqp/5K5LgzdAgAAMApFuX+gebDnkyZ56BgAOFAMWABwgAayi9pLiq6V1BK6BQAAYIyuVTz1TS35O7eHDgGAA8GABQAHIJ/peJWbf1XSIaFbAAAAxklOsf1VS35tb+gQAHgm3MACgKfhuiDONXZ8ws2/I8YrAABQXVpU8jv6GjvODx0CAM+EJ7AA4CncM3vhzFS6/juSvyB0CwAAwARymX2yeWDtZSYloWMA4MkwYAHAk9iQbe2IFH9fUjZ0CwAAwCS5QfHUV3MXC0A5YsACgD+Rz7Rf6KavSpoWugUAAGCS9XjJ/3L+vT0DoUMA4I9xAwsA9vvDvSt9R4xXAACgNrVZbL/ta2w7K3QIAPwxnsACAO2/d1WXvkam54VuAQAAKANFd71r/mD3laFDAEBiwAIA5Ztam5XEN7i0IHQLAABAebFvTxmZ9ua5m27fHboEQG1jwAJQ0/qyi15giq6RdEToFgAAgLJkWm2W/GVz/7r7QqcAqF3cwAJQs3LZtktM0Y1ivAIAAHhqrhM9ie7ob1z8F6FTANQuBiwANcd1QZzPtl8p2eckpUL3AAAAVIBZiSe/ymc6XhU6BEBt4iWEAGrK+gULDksNp7/jsrNDtwAAAFQgl+mfWwa6Pxw6BEBtYcACUDNyzYuaVIqul3R86BYAAIBK5rIv3d9w5CVnrlxZDN0CoDYwYAGoCbnM4mWy5DpJM0K3AAAAVIkfDg3poo6HuneFDgFQ/RiwAFS9XLb9FZKuljQldAsAAEB1sbWK/ZyWfPem0CUAqhtH3AFUtb5M+9sl/a8YrwAAACaAdyjRHRuyrR2hSwBUN57AAlCV9r3TYN+Vkl8SugUAAKAG7DDXK5sHu38SOgRAdWLAAlB1Ns/qnLarfuS7ks4N3QIAAFBDiia/pLnQ86XQIQCqDwMWgKpyz+yFM1Pp9A8knRq6BQAAoBaZ9B9Nhe5/NMlDtwCoHgxYAKpGf+PiliRJfixTU+gWAACAmub+9U2ZmRefuXJlMXQKgOrAgAWgKvRl2k820w8lHR26BQAAAJKk66eMHPKquZtu3x06BEDlY8ACUPH6GhefbZ5cI2la6BYAAAD8EdMKRVP/siV/5/bQKQAqGwMWgIrW19h2kbl9Q1Jd6BYAAAA8qS7F8Uta8mseCR0CoHJFoQMAYLRyje1/Z25Xi/EKAACgnHWqVPpVf2PrvNAhACoXAxaAipTLtL1Hrs+L38cAAAAqwUL36I58U/ui0CEAKhMvIQRQUVyyfKbjMzJ/R+gWAAAAHLStcp3dMth9R+gQAJWFAQtAxVixbFlq7r3bvuzurw/dAgAAgFHb6UrOn19Y97PQIQAqBwMWgIqweVbntJ3pkeVmemnoFgAAAIzZXkl/3VLovjZ0CIDKwIAFoOwVMouPKFpyg6RTQ7cAAABg3BTd/c3zB3u+EToEQPnj+DGAsnbP7IUzi5bcLMYrAACAapMys6/lsx1/HzoEQPnjCSwAZSvf1H60J3aT5B2hWwAAADCBTJe1DHR/PHQGgPLFgAWgLA1kFx1TUnSzJN5qGQAAoDa8v6XQ/bHQEQDKEy8hBFB28k2L5pYU/VqMVwAAALXkX/uybR8IHQGgPDFgASgr/Y2t87wUrZDUEroFAAAAk8tkH81lOj4UugNA+eElhADKxj2ZxZmUJb+QlA3dAgAAgIDMrmgZWPve0BkAygcDFoCysD7bviA2/Vyu2aFbAAAAUAYYsQD8EV5CCCC4XHNHayz9kvEKAAAAj3N/T1+2/V9CZwAoDzyBBSCo/saO+e7JSpcdF7oFAAAA5celT88vdF8augNAWAxYAILpb1zckniyUtKs0C0AAAAoZ/7ZlkLPO0NXAAiHAQtAELnmRU0qRSslzQndAgAAgIrwmZZC97tCRwAIgxtYACZdf2PrPCtFN4vxCgAAAAfunbnGto+EjgAQBk9gAZhU+aZFcz2JVkpqDN0CAACACuT+3pbBnitCZwCYXAxYACZNrrl9jopaKVNT6BYAAABULJfpkpaB7v8OHQJg8jBgAZgUA9lFx5QUrZB0fOgWAAAAVDyX9OaWQvdXQ4cAmBwMWAAmXL6p/WhP9EtJC0O3AAAAoGoU3XTh/IHu60KHAJh4HHEHMKFyzScf7q4fi/EKAAAA4ytlru/0NS4+O3QIgInHgAVgwtw3Z+lUlXZfL9eJoVsAAABQlerMk+W5zOJloUMATCwGLAATYlVnZ93u1K5rJZ0RugUAAABVbaosuaG/seO00CEAJg4DFoBx51J0+LaRq8z00tAtAAAAqAmHJO435BraefIfqFIMWADGlUvW39j2X+a6MHQLAAAAasp0RfpJbt6SE0KHABh/DFgAxlW+sePj7vaW0B0AAACoSUcpVbqpv7F1XugQAOOLAQvAuMk1drxX7u8J3QEAAIAa5pqdJPGNG+e1HRk6BcD4sdABAKpDPtt2scu+IH5fAQAAQFnwlYp3v7gln98bugTA2PEEFoAx62vsOMdlnxfjFQAAAMqGLVNp6lXO971AVeALGcCYbMh2PNvcvyspFboFAAAAeCJ7ZT7b/p+hKwCMHQMWgFHLN7U2R/LrJR0SugUAAAB4Cn+Xz7a/K3QEgLHh5T4ARiXXvOQolZLbJG8O3QIAAAA8Azfp9c2F7qtChwAYHQYsAAdt/YIFh8Uj9SvlOjF0CwAAAHCARiQ7p6Ww9qbQIQAOHi8hBHBQVnV21sXD9csZrwAAAFBh6iS/NtfQsSR0CICDx4AF4IC5ZNO3DH9R0otCtwAAAACjcJhFyY/uySzOhA4BcHAYsAAcsFy2/aMye0PoDgAAAGC0XHZcypIf3zN74czQLQAOHAMWgAOSz7a92aT3h+4AAAAAxsHCVLru2lWdnXWhQwAcGAYsAM+oL9t2hss+F7oDAAAAGD+2bP95DAAVgHchBPC01mfbF8TS7ZKODN0CABVkm6SdknZJ2mnS71zaI9nufT/s211WiswTlz12QB/RdYhLaUky+XTJIskjk6a7dKhL00w6VNJ0SdMkTZ2A/14AUH3M3tkysPazoTMAPD0GLABP6Z7ZC2em0unbJbWEbgGAQFzSwy49JNemKLKHE/dHzWyL3B+1xLa4JVstti3DxbotI3tGtnc81L0rdLS074037p7TeuSUdN3MUpLMiNxneBTNdPcZFmmG3Gaa+yw3HSNplqTjJE0JnA0AIZTcovPmD9z1o9AhAJ4aAxaAJ9Xb2ppOD0U/lWxZ6BYAmECPSNq47z++0d02mmkwkT2oEd2/45jUwyd1dY2EjpwshcziI0a8eFyUio5TSXNdylhkGZc3yJWRNEcS92IAVKMdFumU5v7udaFDADw5BiwATyqXafuqzN4YugMAxsrkD7isT1KfSzlz71Mqyg/t8MFyeVqqUrguiPub7pnlpVSTWaklkc23fU/pzpfUpP0vcQSASmTSoCKd3Nzf/XDoFgB/jgELwJ/py7ZfatInQ3cAwEFwkza6tE5mvXKtU+J3l6bszS3csGFH6Lha4Logzs1b3xCZFiSmNjNrlWmRXCeIlyYCqBy3Kh56fks+vzd0CIAnYsAC8AT5TNtfutl14l1KAZSvXZLucvlqk3W7qyep33s3Q1V5cl0QDzT2NSXu7fsHrRNlOlGu2aHbAOApXNVS6H5d6AgAT8SABeBxuYaOJYr815IOCd0CAPvtkLRabqtlWq1StLr53uYNpuWl0GEYm0Km9diRqK5T7ieavFNSp/bd2AKA8EyXtQx0fzx0BoA/YMACIOnxdxz8raRs6BYAtWvfvaroFne/NY6sa8/U4m9ae3uHQ3dhctzd0HlcXTRyksxOlftp2jdq8fJDACG4ZBe2FNZeEzqkWty86ORjhofs8qi+7qMvvufXD4TuQeVhwAKgVZ2dddO3jvxM0nNDtwCoKSNy+63kv4wiv2XPcHJH66beraGjUD7um7N06nB6qLOUJKeY2emSTpc0PXQXgJqxS4md3rJx7ZrQIZVqhZTa03jyxUW3t40oWugySyvZcG7h9oWh21B5GLAAKJft+Jzkl4TuAFD1ipLWyuxmud8aWd2vmga6HgsdhcrhuiDON/cttFJyqis6S/KzJB0ZugtAVbtXcXxSS37NI6FDKsmPmk8+LylF7yhadGriSv3pj0+z4sdfMnDnZSHaULkYsIAa15dpe72ZfT10B4Cq5JLWmvSzxPymqcOH3jp30+27Q0eheuw7EJ87MUlKz1NkL5LrVEnp0F0Aqo39rLkw/yXcX3x6N2VOWbxXyYcSsxcUFR36dD83kieHJsmiF2y8457J6kPlY8ACaliuof1ERbpF0tTQLQCqxsOS/dKU3FwaiX60YNPa+0MHoXZsntU5beeU4VNM0VlyP0v7bmgBwNi5Pt4y2M0TQ3/ihnmnHWlR8YMls4tGPDrmYBaGek8eOHvw9tm27y+8gGfEgAXUqEKm9diixb8V7/gEYGwSSatcfr08vmH+4F13hQ4Cfi/XvKhJJXuxpJdJtkw8nQVg9Nzcz28e7Pm/0CGhPdldq9F+rKkqfvmlhTsvHs8+VC8GLKAG7T/afrOkM0K3AKhIQ5J+YfLri8XUDQvvW7M5dBDwTDbP6py2q37k+S47x+TnSTomdBOAirNDpfg5LfeuuTt0SAg3znvOuaXY3vlUd61GI5J8WpSc9qL+228bj4+H6saABdSgXKb9v2R6a+gOABVli9x/6FF8nUU7b27J5/eGDgJGa8WyZam5hW2ne+wvk+vlkuaGbgJQIczvHp6anNza27szdMpk+FHmlMXJvrtWzy8qOnwiPkedkt/NmjF89EldXSMT8fFRPRiwgBqTy7b/jaQvh+4AUBEeNNP/JfLr7p83c+WZK1cWQwcB480lyze0PUcWXSDzV4gxC8Az8muaCz0XVuvtpu/NfvbMqeno8hHZhUVFR03Gf8mpNvL9l9hYm+oAACAASURBVA785vxJ+FSoYAxYQA3Zf7T9VklTQrcAKFuPSromkb47v9B9q+27cQXUBJesv2nRUvfoArleIe5EAngKJntXc2HtZ0J3jJfxvGs1WtN85MUvGfzNTyf786JyMGABNaKQWXxE0ZIuSY2hWwCUnd2S3SD51Y/NqPsJj/AD++Sb2jqV2GtdukjSs0L3ACgrJVfykvmFdT8LHTIWv79rVTI7teQ2LnetRisl39k87bGZrb29wyE7UL4YsIAa4JLls+3fl3Re6BYAZaMo6cfm+p9pw3U/nLW5ayh0EFCuCpnMlKIdfo6k10h6sXg3QwD7PKxYnS357k2hQw7GD+YsbU7V+eVF2csm6q7VaE1R6YazC3ecG7oD5YkBC6gB+WzHO13+6dAdAMrCOpl9PfbStxsL6x4KHQNUmntmL5yZqk+/yt1fb7K/CN0DILg7FA8tK/c3N/nJnKUzSnV+edHswqJHR4fueTppK5597sCdN4buQPlhwAKqXL5p8ameJCsk1YVuARDMVsn+x6LkG839PV2hY4BqsSHb2hEp9TeSv1rSkaF7AIRin28prH1b6Io/VQ53rUYjZcnO5qnbeSkh/kxF/AIGMDq55iVHqVRaLY7QArXIZVppiX3RU7v+r9z/ZhioZPteYjj9FZL/jaQzxJ+xgZrjZi+fP7D2e6E7JOmn8559znAcv6sc7lqN1jQvLX/J4B2vDN2B8sK/XIEq5VKUz7b9WLIXhm4BMKm2yu2bJfMvLix0bwgdA9Sa/sbFLSVPLjbpjZJmhO4BMGm2xYqXNBbWbAzxyW+ce0qTp5IPl+Ndq9EwSYdr5IyzCr/5degWlA8GLKBK5TLtl8v04dAdACaJ221m/sXYt1+THRzcEzoHqHX3zVk6dU/droskXSJpSegeAJPA7bZNmSOfe+bKlcXJ+HQ/mbN0RrHOL0ukVxcVH+uT8UknUVqlR88p3HGMSUnoFpQHBiygCvU3tj8/cd0kKQrdAmBC7XXpu5boP1o2dq8OHQPgyeWbFp+qUnKJm14u3sEQqG7un2gZ7HnfRH34J961ihd6lX9Pf6gVv/iigTv/NnQHykNV/2IHatFAdtExJUVrJR0TugXAxDD5A+7RF2IrfZF3EgQqRyHTemwxit4qt7dKOip0D4AJkbiSF88vrPvZeH7QnzQ8++yRKL60ku9ajUYkT6ak7YSXbLiVswhgwAKqiUuWz7bfKOnFoVsATIhVMv/34anJct6ZB6hc981ZOnV3aui1Zv5PkuaH7gEw7h5KeWlxdrD3wbF8kGq7azVaU7w4cPbgnU2hOxAeAxZQRXKNHf8k98+E7gAw7m6VdEVLofv60CEAxo9LUa6x7Xnm9nZJ54TuATCOTCuaBxa8wLS8dDD/2Pczy45I2+53FmWvLymeU213rUbrcBUvfUHhzk+H7kBYDFhAlcg1tJ+oSLdJqg/dAmBcFCX730TFTy0o9K4NHQNgYm3Idjw7kl8q6XxxwxKoDqbLWga6P/5MP+3xu1aK3lr0qDXh+/Q/E1syko72zH5pfs0joVsQDl8YQBVYe0z7IYdMU5dLC0K3ABizIZO+MuLRvx0/eNdg6BgAk6uvYdHxFkXvlXSRpJq5cwNUqaJFyXOb+9fd9mQ/eEPDs8/2KL60aHZK4lY32XGVZpqXbnvJ4B2nhu5AOAxYQBXIZdq+JrM3hO4AMCa7TPpqsRhfsfC+NZtDxwAIayC7pCFR6Z9cerOkqaF7AIzafcXh4SXH379+i8Rdq7EwSYfGI698Yf43y0O3IAwGLKDC5TMdr3Lz74buADBavt1l/+l1df++oK/r0dA1AMrL+rlLZsV1pUvleosYsoCKVHT73oCmbipZdOGI29F8Fz569V7acuzMkeNO6uoaCd2CyceXDlDB7skszqQsWSPpiNAtAA7aNrmuTCf+Hw339mwLHQOgvK2fu2RWnEreJ/mbxb1LoOy55DssNfCI19XvVjw7kfG99yhFkupVVL0S1SmRS5c+t9DFQfcaxBcRUKFWLFuWmjO47ZcyPyV0C4CDsktmn0sXkysYrgAcrHzTorlKone59BYxZAFlZ7eiRx619J7tnjquJOOO3SiZpDqVNEWJ0ir96XCxIzVSPP6UTWvvDxKHYBiwgAqVa2z/sFyXh+4AcMD2yPQFRfHHWngHHQBjtL6hPZuK7UPu/hpJcegeoJaVZNse9vQjjymePWzxIaF7KpVJSilRvRJNUfHpxwrz754xsPr/TVIaygQDFlCBcg3tJyrSHZJ4txKg/I1I+m4p0eULN3YXQscAqC773rUw/ojkF4RuAWqJy/ZuU3zvFqVn7FE800MHVbBYrikqqV4lxTrw/yU98uc/t3/1LyYwDWWGAQuoMPfNWTp1T92uLknHh24B8LRcsmstKl7W3N+bDx0DoLr1ZdvOMNkVkp4TugWoYr7T4v6HvH7KkEez3bhrNVr2+Gi1767VKPXtjB9rf2k+v3c821C++IIDKkyusf3f5PrH0B0AntatSvzSlo09t4cOAVA7XLJcY/v55vqYpPmhe4BqsVvxA48qvXe74jnctRoLV1rJU921GuWHtPecMbjqk+PxoVD+GLCACtLf2HFa4v5L7XszDgDlJyf5+5sLPdeaDuIZeAAYR6s6O+uO2Dr8Bpf9i6SjQvcAlagk2/6I0o/+zuNjhy2eFrqnkqX2j1bPeNdqdIZiJSecWlizcfw/NMoNAxZQIXLNJx9upd1rXcqEbgHwZ7aY7CO/m5H6wkldXSOhYwBAku6ZvXBmKl3/EcnfIomnRoBn4LK9W5UqbPXUUbstNTN0TyVLyVU/irtWo2HSNacXul41oZ8EZYEBC6gQuUzb12T2htAdAJ4gkfRtxfE7eWdBAOVqfbZ9QUr+GZedHboFKEe7FBcetvr0ziSaxV2r0Runu1ajksheuKyw6meT+kkx6fjiBCpALtt+rqQfhu4A8EdMKyL525sGenpCpwDAgdj/54l/l9QYugUIbdijzQ8pvWeHpeYVuWs1BhNw12p0Gb2lzGGLz1y5shgqAROPAQsocxvmdz4rGhnpkXRs6BYAkqRNJr2/qdB9NXeuAFSa++Ysnbonves9cr1H0pTQPcBk4q7V+PnDXauSrEz+OGTyt5xeWP2l0B2YOAxYQJnLZduXS3pF6A4A2ivzK6YMH/qJuZtu3x06BgDGIte8qMlKdiUvK0S1c9nwNtUVtij1rN2KuWs1BvH+u1ZTJuGu1Sg9stfU8oKBrsdCh2BiMGABZSyXbX+FpOWhO4BaZ9LNZnZJ08DavtAtADCecpm282R2paSG0C3AeNplce4h1U/dlUSzuWs1eiHvWo3Sp88odF0aOgITgy9koEz1zmmdka6L75Z0TOgWoIY9aNJ7eLkggGq2eVbntF1Tih+S+7skxaF7gNHa69HDjyq98zHuWo1Rmdy1Gp1hs7jt9IHf8JeOVajCfi0CtSOXbf+mpNeG7gBqVCLp28MjpX9s3dS7NXQMAEyGvszixWbJlyWdFLoFOFAl2fZHve6R3yl17F6LDwndU8nK8a7V6PgPzyisPi90BcYfAxZQhnKZjhfJ/CehO4Aa1RNZ9Kamgbt+GzoEACbbimXLUrMHt/yTmV0uiSPXKEsuG96qusGtSs3krtXYVMBdq1Fx6UXPLXTdFLoD44sBCygz6xcsOCweru8RtyiAyTYst38dPqT4idbe3uHQMQAQUq55UZOS6MtynRm6Bfi9XUoNPKS6qUOKj03EXavRMrnqlaheJaUr467VaPQ8WGhc8kotL4UOwfjhix4oM7lsx+ckvyR0B1Bj1iixN7VsXLsmdAgAlAuXrD/b9maXfUbSoaF7UJv2Knr4UU/v/J3Fc0uK6kL3VK6Kvms1Kmb2ptMHVn0tdAfGTy38ugUqRq6hbakiu0VSFLoFqBG75f6R5sGFnzb+hg4AntQ9mcWZlJKvyvS80C2oDSVpx6Oefpi7VmP3+7tW9SopqqKXCB6gzdP2quWkzV1DoUMwPhiwgDKRa26uVzJ1tdxOCN0C1Ig7IrPXNQ2s5V1qAOAZ8DQWJprLSr9T3b1bFB+2W6ln1dzUMo7+cNcqUVy9LxE8MKbLzhjo+njoDIwPBiygTOQy7R+T6X2hO4AasFful/PUFQAcvHxTa7Mn8dWSnhO6BdVhp8X9D6t+ypBHs7hrNXo1ctdqNHbE0Ujzqf3dD4cOwdjxGwRQBjZkWzsixaskpUK3AFXursj8tU0DPT2hQwCgUq1Ytiw1Z3DbZTL/oPizC0ZhWNHmR1Q/9DtFDdy1Gj2TVKfS48MV39w/OTNdefpA1z+G7sDY8WscCMylKJ9tv0XS0tAtQBUryuwzw1OLH+IdBgFgfPQ3Lv6LxJNvSZofugXlryTt2KL6B7cqPnZY8WGheypZjd+1Go2RUuQnnNm/Oh86BGPDgAUEls+2XeyyL4buAKpYQa6LWga77wgdAgDVZu0x7YdMnWafNfnFoVtQflwa2aZ0YatSRw4pPip0TyXjrtUYmX/3jIHV/y90BsaGAQsI6J7ZC2em0un1kp4VugWoUtemS35xw70920KHAEA1y2XazpPZ1yTNCN2C8HYp3vyI0tFOxcdw12r0uGs1rjyx6ORlA7/9begQjF4UOgCoZXE6/RkxXgETYYfJ39JS6L6A8QoAJl7LYM8PLEoWm/Tr0C0IY1jRw5t8ysZeHVrs17RZ25U6lvFqdNJKdJhGNFN7dZhGGK/Gh0Ve+ljoCIwNv6EAgfQ3dpyWuP9KfB0C421VZNFFTQN35UKHAECtWbFsWWrOvVs/INcHJMWhezCxuGs1frhrNTmSRM9btrFrRegOjA7fOAMBrOrsrJu+ZWSNTK2hW4Aq4pI++9iMuved1NU1EjoGAGpZf2P78939apcdF7oF48ulkceUGtiiuiN2KXVM6J5KFsk1RSVNUUkxo9XkcL/tjMHVp4bOwOgwYAEB5DJt75HZJ0J3ANXDt0v2ppZC97WhSwAA++SalxxlpdL/uHRW6BaM3S6L73/I09HQvrtWnKIZJe5ahedmZz93YNWNoTtw8BiwgEnW39g6L/G4V9KhoVuAqmBa7UW/YP69PQOhUwAAT+S6IM43bvigXB8U93crzrCihx/29O7HLDW7JEuF7qlk6f2jVb1KfBMeXvfpha4lJhbESsPXDjDJctn2/5N0XugOoBq47EsW7/qHlnx+b+gWAMBT62vsOMfcr5J0ZOgWPL2SfMcWTeGu1TjgrlU5swvOKKziyf0Kw4AFTKK+xsVnmyc3hO4AqsAOyd/UUuhZHjoEAHBgcs2LmlSKlktaEroFT+RS8TGlco+qbuaQUkeH7qlk3LWqGH2lhsNaz1y5shg6BAeOAQuYJL2tren0UNwjaX7oFqDC5RTbX7Xk1/aGDgEAHJxCJjOlaId/SdJrQrdAGrJo0yNKa4enZnHXavRMevzlgdy1qhwme93phVVXhe7AgWPAAiZJX6bt3WZ2RegOoJKZ/Eexx3+dHbzrd6FbAACj45LlM23vltnHxF2sSTes6JFHld69TalZ3LUaG+5aVbyBaTO0kHevrhz8CwOYBAPZRceY2WWhO4AK5jK7oqnQ8zLGKwCobCZ5y2DPFZH5ufveRRYTz7dLulrSywY1pe9R1c1jvBqdOiU6VCN6lvZquoY1hfGqkjXu3mY8DVpB+FoDJkEu0/Y1mb0hdAdQoXZYYq9r3rj2+6FDAADjq7+xrS1x+4GkbOiWKlQyaYWkq3cN6bqOh7p3/f4Hrs8+Z9Ww4s6AbRUlkjRFRdWrpBR3raqLq7+UOWwht7AqAwMWMMH6GxedlHh0p3jiERiNXEk6d2Ghe0PoEADAxMg1LzlKpdK1ks4I3VIlutx1dRTrO8393Q8/2U9wKbohu/TuYUULJjuuUnDXqoa4v+GMwdXfCJ2BZ8aABUwglyyXbf+VSaeFbgEqjUu3WByf35Jf80joFgDAxFqxbFlqzsZt/yb520K3VCTT/ea6LvHo6/MH77rrQP6Ra3RBekrj/fkRt7kTnVdJ/nDXKpHxtFVt4CmsisGABUygXLbjryW/OnQHUIG+8tiMur/jqCYA1JZ8tu1il31OUl3olgqwW7IbJL+6ubDgRtPy0sF+gJ+2tx+yd8ehAyOyoycisFKklKheiaaoyEsmahTvSFgZGLCACbJ5Vue0XfUj90iaF7oFqCAlub+/ZbCHd+wEgBrVl207w2TXSjoqdEsZevyu1d5ppe+19vbuHOsHvHn2s2fuSsf9RUXTx6GvYsRyTVGiehUV86QVpHyp4bDjeQqrvDFgARMkn+34qMs/ELoDqBy+3RJd2Lyx58ehSwAAYfU3Lm5J3G+UvDl0S1kwrVaiq2NLvtNYWPfQeH/4G5tPnrO3FPclsqnj/bHLCXet8PT8NWcUVn8rdAWeGgMWMAEGsksaSiqtlzQldAtQEUz3x568tLGwrjt0CgCgPOSb2o/2RDdKqtV3y7tP7t9WKvpWS35t70R/sh8sOLk9GY67Ellqoj/XZOOuFQ7QhgcLja2vHMXLcTE5eIkvMAFKSv5VjFfAgXH1RiqdwngFAPhjzf3dDw8N6bky1dKTubslWy7pZZsaZjS2DPa8bzLGK0k6b8Od3VPdzzV5VSw8KSU6REXN1B5N17CmqMR4hacyIvkPJfvAUcse4SGfMsb/c4BxtiHb2hEpXi0GYuCZmVakkuj87OBdvwudAgAoTyuWLUvNGdzyRZm9MXTLBElM+oXG8a7VWPwo8+y37LHUFyrxW8VYrvT+Y+wpxio8E9PdluiqKB75+qn93Q+HzsEzq7zflYAyl8t23CT5C0J3ABXg2pRvf012cHBP6BAAQHlzyfKN7ZfLdXnolnFjfrcSXZVS8s3sYO+DoXP+2I8an3PFHo/fHbrjQPz+rtXvXyYIPINNLn0vUvK10wtr1oaOwcFhwALGUS7T8SKZ/yR0B1D23D/RPNhzmYm/HgUAHLhcY9s75PYZVe73MZtk9m1FunqyXho4Wtc3nvz9YU/9ZeiOp/L7J63SSir2FwMmzWOS/9Asvuq0gd/+nD9/Vi6+1oFx4lKUz7avkrQkdAtQxtyl98wvdH8qdAgAoDL1Nba/3FzfUuXcG90t2Q2SX72pYcaPz1y5shg66EC4ZNc3Lu0Z8ag1dMvvpZSoXommqKSIDQJPryT5ClN09dDQ8HUveqh7V+ggjB0DFjBO8pn217npG6E7gDJWkvSWlkL3V0OHAAAqW76p/Xme+PclOzx0y1NIJN1u8qv2Tkv+J/Rdq9G6sbm5frh01MaSomNCNXDXCgdl/12rvZb6xlmFOx8KnYPxxYAFjINCJjOlaIdvkDQvdAtQpva66dXzB7qvCx0CAKgO/Y1tbYnsx3LNDt3yuP13rUY8fdUJG7seCJ0zHm5acOqsXXs9n5hNnazPaZLSKqmeu1Y4MBtd/q3E7VtnDnatDx2DicOABYyDvmz7pSZ9MnQHUKYek/t5LYM9vwwdAgCoLrnmRU0qRb9QyL9ENN1vsm/L/Orm/u51wTom0I2Zk5+zx1K3+gS+y7ZJqts/WNUrkfG0FZ7edsl/sP+u1S9s31OPqHIMWMAY9c5pnZGui/OSjgzdApShh5XYi1s2rl0TOgQAUJ3uySzOpCz5haTsJH7anZK+5+ZXtwz01MQ3z9dnn/M3wx5/eby/g+SuFQ4Cd61qHAMWMEa5bPunJb0zdAdQbkz+gJdSZ7Xcu+bu0C0AgOqWb1o015P4F5I3T+CnKUm6WbJvDQ359ztq8Jvn67OnfHlY9jdj/TjctcJB4a4V9mPAAsbg7obO4+qikX5Jk3YTAKgEjFcAgMlWyLQeW1R8s0zj+6555ndLtjz2+OuNhTUbx/VjV6AfNi7tGvHoxIP957hrhYPhpvvlui7l0ddPHfztXaF7UB5SoQOASlZnIx8U4xXwp+712J/XUljTHzoEAFA7soO9Dw5kFz2/pOhmSYvG+OE2m3StJ/pmy8ae1ePRVy32DOu0dMo3lcxmPNPPNT3xJYLctcIz2HfXSlr+4EDTja/UcpZOPAFPYAGjNJBd0lBSaYOk+tAtQLkwabCY6HkLN3YXQrcAAGpTvqn96CTRz0xqP8h/dLdkN0h+9aaGGT8+c+XK4oQEVoFrG89oib14dyJ70gciuGuFg8BdKxwwBixglHKZtq/K7I2hO4ByYdKGYjF+3sL71mwO3QIAqG0b5nc+KxoZ+Zmkxc/wU0uS/1yKvjU05N+rxbtWo/WjzCnn7TX7vu//njKSPz5apar/pj3Gav9dq6Kib545+NsHQ+egMjBgAaOQb2pt9iS+R7wMF9jP8qVi9FzGKwBAuShkFh9RtOSnkp79Zz+4/65VMYm+cfzgXYOTHlclfphd+qlI/5+9Ow+T667vfP/5nqrq1i5b1mZZttTqlmQjJBvkFbyCE8AhMBBMAjGG7BPCTTLZZzIJSZ5nMsOT506Wmcy93EnAWIAJxoQdBpJ4A2xsyVps2ZbU6m7ZWmxrsXb1Uud87x9a3BJaulrV9T1V5/36D1uu/uDH3V3nU7/zOdnvjFOWVJRxcYlzedFcn/MsW3EzO6kYBX7GAKOwqePKz0r+89E5gJzYUvXkVi4AAAB5s3nB8qmZD31H0vUm3yHZ/WZ2f2fP2u9HZ2sVj3Qs/78k/V10DuTWEUnfMPmKHb3sWuH8UGABNdp02Rtep1K6TlIpOgsQzaQ+s/SWzp71L0RnAQDgdDZ1XTfFs8PXLuy5/EHj4nlMPNJx9QrJ74rOgdzIJP83U7KiOuHIl29bv/5gdCC0BgosoEabOq78ouR3RucAcuBFT/3WRS883RMdBAAAxHlwyZJJpcPjnpB0RXQWBGLXCmOMAguowYaOJVcmKq0W3zsoOtM2JdktC7uf2RwdBQAAxHuw8+rXlzJ/XNLE6CxoHDdtk+sBZXbPLVtWro7Og9bGRThQg00dy74q6V3ROYBguzzLbl605ZnnooMAAID8eHTB1R9w989H58CYO7FrVZ035du3PfRQNToQioECCxih7s6lyz2zJ8X3DQrN91uit3RtfnpVdBIAAJA/D3dc/UmT/2p0DtRdJukxk99bnTDweXatEKEcHQBoFpnrj43yCsV2RK53UV4BAIAzOVTa+5uT0qnLJS2PzoI6OLZr5a57b96yakd0HBQbF+PACGyc9/orLEmekZREZwGCDLnZexf1rP1GdBAAAJBvj152zQIvZaslTYnOgtq5aZvJP5dasuK2zSufic4DHMfFODAClpT+WHy/oLjc3X+V8goAAIzETS882SP5b0TnQE2OSLrf5O/KLps8/+aep/6Q8gp5wwks4Bw2db2+U2nyvLjlFgVlst/s6l37P6JzAACA5vLo/OWfc9MHo3PgjNi1QlPhghw4lzT5I/G9gqJy/29dfesorwAAQM36E3203fUmSfOjs2AY07Muu7/s6aff3Lt6S3QcYKQ4gQWcxaauZXOVarOktugsQKOZ677OvnU/b5JHZwEAAM3pkc6r36zMH5ZUis5ScNtd+pJl+szNW1Y9FR0GGA02fYCzsFS/L8orFJHpQS8f/gXKKwAAcD5u3rzyBzL9l+gcBXVi1yqdN3neLb2rfovyCs2ME1jAGWxYtHx6MjTUJ2lidBagwZ4ue3JzR9+avdFBAABA83vw1lvLpb79D8vsTdFZCuDErpW1jb/vxg0/OBAdCKgXCizgDDbNX/pfZfZH0TmABtuSVktvuvzF1dujgwAAgNbx8LxrOyxJ10iaEp2lJR3btcqy6j239a3pi44DjAUKLOA0Ni9YPjXzoT5JF0RnARroQEnZjQt6n1kXHQQAALSeRzuuvtvln4nO0UK2m3Sfy++9ufcp3r+h5bGBBZxG5kO/IcorFEsq6ecprwAAwFi5qXflvW765+gcTa5fw3atbupd9XuUVyiKcnQAIG9WLl9e0Z6hX4/OATSSu35nUd+6r0fnAAAArc1S/YYS3SJpWnSWJnL6Xave2FBAo3ELIXCK7o5ld7vE0WYUyT8u7F33y9EhAABAMTzacfWHXH5vdI7cY9cKOAkFFnCKTR3LVku6KjoH0Bj2va3zLrzjtoceqkYnAQAAxfHwguVfNtd7onPk0A6X7i+Z7r+xZ9X3o8MAeUKBBQzT3bnsLZ7pX6NzAI1g0oaSJ9d39K3ZG50FAAAUyyPzll+sRM+IWwmlo7tWXzf5ivHT7DtXr1o1FB0IyCMKLGCYjfOXfdNMd0TnABrggEp2w8LuteujgwAAgGIq+K2Ep9+1AnBGFFjAMc93LFtckp4VT+dE63M33bmoZ90D0UEAAECxFe5WwmO7VkqTz9yy5Qlm2IEa8BRC4JiS9LuivEIRuP3Zot61lFcAACBcaSj7WFZObpV0YXCUsfSS3O9zT1bcsmXl6ugwQLPiBBYgaVPXG2YoTbdIGh+dBRhjX+vqXfceO3psHQAAINyjHW/8VZd9MjpHnbFrBdQZJ7AASaqmH5VRXqG1mbTBrHI35RUAAMiTG3uf+odHO5bfLenN0VnO04ldq0qp8oXru3+0X5LEjYJAXXACC4XXO3/+uKpN6ZM0KzoLMIYOpNI1l/eu2xAdBAAA4FQPdl79+lLmT0mqRGcZhefc7IvsWgFjixNYKLyqTblLlFdoefbRy3vXUl4BAIBcum3zymceWfDGv5bbH0RnGaE9LvtSyXzFjT2rvh8dBigCCiwUmkvWbf4f5BxGRCuzv1/Yu/az0SkAAADOZkK//fnhdt0pqSM6yxn0S/oXk+4dP01fuXrVSnatgAbiqh2F1j1v6Ts8sW9F5wDGisuftNKRmxZ2dw9EZwEAADiX78+7+h1Z4nl6f376XSsADUeBhULbOH/ZN810R3QOYIy8mmZafvmWdWwxAACApvHo/KsfcPP3Bsd4zs2+mFTt3pteeLInOAsAcQshCmzzgiWXZa63RecAxoib+y9evuVpyisAANBU882xjgAAIABJREFU3P1jMr1V0tQGf2l2rYAcS6IDAFEyL/2apFJ0DmBs+F939T39legUAAAAtbp5y6odZvqLBn25IzL/gkzvTOdNnnVL78pfo7wC8olbCFFIK5cvr1ywZ3CLyy6OzgLUnempwfHpDUvWrx+MjgIAADAaK5cvrxzeo6clLR6Dl88kPeau+4eGSp+9fdsTu8fgawCoMwosFFL3/Ct/1s2/EJ0DGAOHUmn55b3rNkQHAQAAOB8PdVz9E4n8u/V6PZOez8z+iV0roDlRYKGQNi1Y9m9y3RadA6g3c32kq2/dZ6JzAAAA1MMj85d/U+f30CV2rYAWwYg7CmfD/KWXy3VrdA6g/uz+rr61lFcAAKBlpCX/rVJmb5XUXsM/NiDpeybdO36avnL1qpVDYxQPQANRYKFwksR+Tc7pQ7Sc3sTKvxIdAgAAoJ5u2/xU96Mdy/+nS797rj87UdUNM3zw1Xal357Vt/HoCDzPYwZaBhfxKJQX594wvr9yaKukadFZgDpKLclu7tr8zA+jgwAAANTb9xe/eXI22L9R0uxT/167+ebpPtg7RUOLJL/s2F/e4xMq82auX3+wsUkBjKUkOgDQSEfKB39WlFdoPZ+gvAIAAK3qxg0/OCDpT47/75K0d6YGH12sg08v8IMLpmjw9mHllSRNsyNDnEwHWgwnsFAomzqWPS7puugcQN241pe1/+qOvr7+6CgAAABj5cW5c8fvq1x43zQNTq/Ir5HUdtZ/wLRt+vjKAlu/frAxCQGMNTawUBgbOpZcKcortJbBkmUf7OilvAIAAK1pZ+flyy3zu13+wXEamD7if9B1yc4j1bskfWrs0gFoJAosFEbJkl93j04B1JHZxxf0PLMuOgYAAEA9vdpxxbzUs59z819WlnWN9i28Zf6fXPqMSWldAwIIwS2EKIT1S5ZMajucbJNsSnQWoE4e6+pdfJPpft6QAQCAprf3sqUXDpUG7pR0t6Q3qU7Xqi67c2bvhi/V47UAxOIEFgqh7XDp5yRRXqFVHEks+TDlFQAAaGaburraL0j1k6bkQ0MaeLfOtWs1Cib/Y5ceMIl7MYAmR4GFQnDpwxw3RKtw6eOdPWs2RecAAAAYjRO7Vql/UNL0MW6WrtrTsfB29W763th+GQBjjQILLe/5ecs6THpzdA6gTlbvn1b5G/VGxwAAABi5VxZcsdCU3iXXXcqyBY08DpWZ/UdJFFhAk6PAQssrlfwjcuMAFlpBVZn90tWrVg1FBwEAADiXV+fPvyC1tne59CF5+lZFbTC7btu1YNE103s2Phny9QHUBQUWWppL1u12V3QOoC7M/3LhlnWro2MAAACcyfBdq6o0JrtWo+Gu35T0oegcAEaPUyloaRs7lt5ssoejcwB18HzZ97+ho6+vPzoIAADAqU7sWsk/IGlGdJ7TGEpK2YKLuru3RgcBMDqcwEJLM9nd0RmAOsiU+S92bKG8AgAA+bFnwYLLsqzyAbfsl5RlC3P+mL9KWk0+Kuk/RQcBMDqcwELLenHuDeP7K4d2SJoanQU4H2b+ya6ep/99dA4AAICTdq2kuF2r0Xk1PTzu0tkvrzsUHQRA7TiBhZZ1pO3ge8yN8grNbndabvvP0SEAAEBx+ZIlbbsOD7xNSu6sSu+TND460yhdWJ7Y/2FJ/ys6CIDaUWChZZnrw9EZgPNl0u8s3rhqV3QOAABQPMd3rXYdHvqAlORx16pm7v7bLv2/JmXRWQDUppmOewIj9vylb5hTKqcvSCpFZwFGy6RHO3vX3WJSziclAABAqzhp10q2MDrP2MjeNaO3++vRKQDUhhNYaElJqXqXZJRXaGaDnpb+PeUVAAAYa8N3rVLXW2VuLX3WwZL/IIkCC2gyFFhoSWZ2V3QG4Ly4/u+FL6x+NjoGAABoTb5kSdvuQ0N3ZInurrrukNQenalhXLe9Mn/hVTP7Nq2JjgJg5Ciw0HK6O5cu90xLo3MA5+HFw0f0X6JDAACA1jNs1+rnZJppBT3rbWa/IelXonMAGDkKLLQcd05fobm56Q+v5PHOAACgTnZ3dl7qafmDbv6LyrJFBe2sTvXz++Yu+cOpW9fviQ4CYGQosNBSXLJu189E5wBGze2HC3vXfiE6BgAAaG7Dd62y7PiuFYYZP9g29GFJfx0dBMDIUGChpWzuvOpNyrJLo3MAo5QlSfpbDLcDAIDRcKm0e8Gi29x1d1X2M5JPiM6Ua66PuvS3JmXRUQCcGwUWWotnd0ZHAEbLZf/Q2fPMyugcAACguZzYtZL/nFwzj/5VPg8bga49HV23q7f7u9FBAJwbBRZaxrHbB98TnQMYHd9f8fTj0SkAAEBzYNeqPjIlH5VEgQU0Ae6DRsvYNG/pDUrsh9E5gFEx+92FPWv/e3QMAACQX3sWLJiaefndLn1I0lvF9Vw9pFVPui7ue74vOgiAs+MEFlpHyd7PSWk0qV4lh/4+OgQAAMif4btWqbNrNQZKFct+RdIfRwcBcHY09mgJLll3x7I+SZdFZwFqZa4PdPWt48mDAADghN1dXUvSLPmQuX5BOr5rhTGyc28pu3Rhd/dAdBAAZ8YJLLSE7nlLrxflFZrTms6+dV+MDgEAAOK9NG9xRynRXZLflaVaxGmDhplxQWbvlXRfdBAAZ0aBhdZgyZ08aQXNKDH9Ho9uBgCguE7etXJ2raJk9suiwAJyjR+OaHrcPohm5a5vLepb91PROQAAQGMN37WS2LXKCfckXTRz8+bu6CAATo8TWGh63D6IJpVJCWOhAAAUyPFdq12uj8g16+hf5S6CnLAkK/2CGHMHcosCC80v0fuiIwCj8NlFfWvWRIcAAABja3dX19y0WvoZM/+FLNWV3AKTXy79ot9668ftoYeq0VkA/DgKLDQ1l6xb9jPROYAaDamU/UV0CAAAMDaG71plqd5q5vRWzWH2rhe2vV3SN6KDAPhxFFhoahs7rrwmkc+LzgHU6J6F3c9sjg4BAADqZ/iuVep6r6SJ0ZkwGvZLosACcokCC03N5O+KzgDUaLDqyV9GhwAAAPVx+l0rNC3XO3fOu+LiGVue2xEdBcDJKLDQ1Ez2ToYv0Uxc/skr+tb0RecAAACjx65VSyubZXdL+kR0EAAn42ctmlZ35+sv9SzZIv47RvPoz4asa/HWtduigwAAgNoM37WS9BZJSXQmjJmN03s3Xm58Ug7kCiew0LTck3eK8gpNxKX/SXkFAEDz8FtvLe96Ydvb5XZX6nq3pHHRmdAQi3Z2LLxJvZseiQ4C4DUUWGherjuiIwA1OJwk+qvoEAAA4NxO7Fpt2f4Rydi1KiCTfUgSBRaQI5xeQVN6ce4N4/srh3ZJmhCdBRgJM/1tV8+6347OAQAATm/YrtVHJF0VnQfh9vcPHZ596datR6KDADiKE1hoSv2VQ7eL8grNY8iU/vfoEAAA4GS7u7qmeJr8O5fuzFK9w8xL0ZmQG1PaKxPfKen+6CAAjqLAQlMy859y5wAhmsY9nT3rX4gOAQAAJJdKuxcsus1dd2ep3itpYnQm5JMpu0sUWEBu0ACg6bhk3R3LXpA0NzoLMAJpYskVnT1rNkUHAQCgyI7vWpnrw5JmR+dBUxgaqmjOnI0bd0UHAcAJLDSh7nlXXiU55RWahN9HeQUAQIxdcxddkpXtfWb+kSzVVXx6jxpV2ob0s5L+PjoIAAosNCFP9E7efKBJuCX2iegQAAAUyYtz545vr0x8p8nvdukdJnatMHqZdJcosIBcoMBC0zH5HdEZgBH6etfmdc9EhwAAoNUN37WS9B7JJ0VnQmsw6fqdHYsXz+jdsCE6C1B0FFhoKt2dy2Z6pmujcwAjkZj9VXQGAABa2fFdq12uD8vZtcIYMf+ApD+LjgEUHQUWmkuqd8iURMcARuCJzp61348OAQBAq9nd2Xmpe+nnXfpQlup1TEtgzGW6y6U/N8mjowBFRoGFZvO26ADACHH6CgCAOhm+a5Vleru4jkEjmTp3dyy6Rr0bn4iOAhQZP/jRNFyybtNt0TmAEejdOm/aV9QbHQMAgOblUrJ7waK3sGuFPHDZnZIosIBAnLhF0+juXPZ6z/R0dA7gXEz2m129a/9HdA4AAJrR8V0rc31YYtcKufHi9N6N87iNEIjDCSw0jSzVW4zKFfm3d2BC9dPRIQAAaCa75i66JCvb+8z8w1mqN/CWDzl06Z75Xdepr/vx6CBAUVFgoWmY6fboDMC5+aeWrF9/MDoFAAB5N3zXyqW3m5xrE+RaZsmdkiiwgCA8zQ1NwXVnSdJN0TmAc/DEkk9GhwAAIM9e7li8bGfHws+Oq0zcZfIvSnqn+GAdzeFOZ4YHCEOBhabQPX/DNZIuiM4BnI27vt3Zs3ZjdA4AAPIsMeuX7P2ST4jOAtTo0lc6L78hOgRQVBRYaA6mt0RHAM6llPjfR2cAACDvZvQ8v1ESe5FoSiVP3x+dASgqCiw0B9dboyMAZ+XavKDn6e9ExwAAoClkpT+T7HB0DKBW7vZ+5zoaCME3HnKvd/78cTK9KToHcFaJ/S+TsugYAAA0gxlbntvh7n8XnQMYhYt3dix6c3QIoIgosJB7WTLlzZLGRecAzmJASbIiOgQAAM2kosFPSNoTnQOolZm/NzoDUEQUWMi9LOP2QeSc64GF3at3RscAAKCZXNjXt9fcPhGdA6iVuf276AxAEVFgIf+MAgt5l/zv6AQAADSjAxr4O0kvRucAauHS/Jc7Fi+LzgEUDQUWcm3zguVTJS2PzgGckWtzV9+ah6NjAADQjDr6+vol/UV0DqBWifTu6AxA0VBgIddSVW+SVIrOAZyJmz5pkkfnAACgWU3v3fhpmZ6NzgHUximwgAajwEKuWZbxhA/k2WCS6DPRIQAAaGYmpe72Z9E5gBq9cXdn56XRIYAiocBCvpndEB0BOBNzfaNr87pXonMAANDsZvRu+JLLn4nOAdTAPCu9KzoEUCQUWMitlcuXVyRdE50DOBOX3xudAQCAVmCSm+m/RucAapGxgwU0FAUWcmvynuobJE2IzgGcwe7Bidm3o0MAANAqpvds+idJG6JzACNl0q17L1t6YXQOoCgosJBbifubojMAZ+Lyzy9Zv34wOgcAAK3i6BaW/7foHEANKkPl/rdHhwCKggIL+WXO/hVyq2SlFdEZAABoNTPmX/JZST3ROYCRM3awgAahwEKOGSewkFcbO3vWPBkdAgCAVmMPPVSVxCksNA/X21wqRccAioACC7nU3fn6SyXNjc4BnMFnogMAANCqpk+bfI+kLdE5gBG6cM+8rmujQwBFQIGFXMo8uTE6A3BGpeyfoiMAANCqbNWqIZP+KjoHMFJZYu+IzgAUAQUW8snZv0Ju/Whh9zObo0MAANDKXi1l/yDTtugcwMhQYAGNQIGFXDL2r5BX5py+AgBgjC3s7h6Q+99E5wBG6I0vd3TMig4BtDoKLOTO2lnLJkq6MjoHcBpZNph8MToEAABFkJT8/5O0LzoHMAJJSZWfjA4BtDoKLOTOxHF2raRydA7gNB5dvHUttzMAANAAF3V375f5p6NzACPhLm4jBMYYBRZyx0t+fXQG4LRMnL4CAKCBqlnpbyVVo3MA52R6m0ul6BhAK6PAQu64/JroDMBpZENp5Z+jQwAAUCQX9z3fZ/KvROcARmDanvldXMcAY4gCC7mTuL0hOgNwGo+9bsuqHdEhAAAomjQp/XV0BmAkMrM7ojMArYwCC7nSO/+qC1yaF50DOJXJOH0FAECAWZuf/6FLj0fnAM7F3N4anQFoZRRYyJW0lL1RkkXnAE7lpZTbFwAACGOcwkLuuena3V1dU6JzAK2KAgv5knH7IPLHpXULu5/ZHJ0DAICimtG74QFJPdE5gHMop1lyY3QIoFVRYCFXXKLAQu6YidsHAQAIZFIq099H5wDOxVxvic4AtCoKLOSL+1XREYAfk+pr0REAACi6kqr/KOlQdA7gHNjBAsYIBRZyY/uc5RNkWhydAxjO5Du6tqxbHZ0DAICim9bTs8/c/yk6B3AOV25ftGh6dAigFVFgITcOtQ0tk1SOzgEM57JvmuTROQAAgCSzT0ZHAM7BykN2a3QIoBVRYCE/EvavkD+W2beiMwAAgKOm9258QmZPRecAzsY8YwcLGAMUWMgPp8BC7gxWx/X/S3QIAAAwTJb97+gIwFmZUWABY4ACC3lCgYVcMemRyzdsOBCdAwAAvMYntn1WEr+fkWeLd3d1zY0OAbQaCizkwoO33lqW9ProHMBwbs7tgwAA5MzM9esPSrovOgdwNp6Wbo3OALQaCizkwrwtu14naVx0DuAkSfLd6AgAAODHufv/E50BOBu37M3RGYBWQ4GFXEhVWhadARjO5Du6utc+G50DAAD8uJl9m9ZIWhWdAzijzG6KjgC0Ggos5IRfEZ0AGM5l3zPJo3MAAIAz+mR0AOCMTK/bf8nlF0XHAFoJBRZywY0CC/li0r9GZwAAAGfmEyr3SToUnQM4Axtoq74pOgTQSiiwkAvmRoGFXPGS/i06AwAAOLOjY+7+legcwJm4JexgAXVEgYVwK5cvr0jqjM4BnGD+7MLudVujYwAAgLNzTz4bnQE4kyQTO1hAHVFgIdyUXQNdkirROYATPOH0FQAATWBG34bvSXopOgdwOm66evucOROicwCtggIL8Uolbh9EzvjD0QkAAMC5mZTKdV90DuAM2srtE6+ODgG0CgoshEucAXfkipeUPRodAgAAjJBn3EaIHLMboxMArYICC+Fcfnl0BmCY5xf0PvNydAgAADAyM7Z0PyXTs9E5gNMxEwUWUCcUWMgBnkCI/DDzR6IzAACA2pjEKSzkk+s6lyw6BtAKKLAQ6tgP88XROYDjMokCCwCAJpOo+jlJWXQO4DSm7ezs5InrQB1QYCFUz4Ill0qaFJ0DOM4So8ACAKDJTOvpeUEyNiyRS+bJtdEZgFZAgYVQWVbm9kHkyQsLu9dtjQ4BAABGwz8XnQA4g2uiAwCtgAILwXgCIfLEH49OAAAARmeoon+WVI3OAZzKMuMEFlAHFFgIZQlPIESOWPKj6AgAAGB05mzcuEvy70fnAE7lpjf68uWV6BxAs6PAQiw3Bg2RH2n2WHQEAAAwei59OToDcBrjdu3atzQ6BNDsKLAQymXzgyMAxw2W7cDq6BAAAGD0kiH7siSPzgH8GOM2QuB8UWAhjEuJ5JdG5wCOWd3R19cfHQIAAIze9K0bt0l6IjoHcCpjyB04bxRYCNPdtWyOpPboHMBRtjI6AQAAOH/mxm2EyJ3MxAks4DxRYCFMlqojOgPwGl8TnQAAAJy/rFSlwELumOyKl2YtmxidA2hmFFgIk8jmB0cATkgso8ACAKAFzNy8uVvSuugcwClKlfGHGXIHzgMFFuI4J7CQG+n4/vZno0MAAIA6Mf1zdATgVJnsqugMQDOjwEKgbH50AkCSZL5hzvZVh6NjAACA+sjYwUIeJboyOgLQzCiwECex+dERAEmyzNZGZwAAAPUzq3fDOsleiM4BDOfOCSzgfFBgIYxxCyFywuUUWAAAtBz/P9EJgOFMWupcgwOjxjcPQjx4661ll+ZG5wAkycQJLAAAWo2Zfyc6A3CKibs6Fi+MDgE0KwoshJjdt3eupHJ0DkCSSkp5AiEAAC3GEv8XSUPROYDh3J3bCIFRosBCiIo7tw8iL3Z29K1/KToEAACor4u6u/dLeiw6B3AKhtyBUaLAQoisxBMIkRe+OjoBAAAYGy6xg4VcsUScwAJGiQILISxLLo3OAEiSy9ZFZwAAAGMky74dHQE4iVNgAaNFgYUQlvjF0RkASTJz9q8AAGhRM7Z0r5G0IzoHMMzF+y+5/KLoEEAzosBCiEw+KzoDIEmeldZHZwAAAGPDJHfpe9E5gOGOjPPLozMAzYgCCyHMjRNYyIWs/cjm6AwAAGDsmDk7WMiVJPMrojMAzagcHQDFZNJsjw6BwjP5jss3bDgQnaPRvr7ohkuSIf15Kr13wmC68PZtT+yOzgQAwFgZKtt3K0NySRadBZAkuV4XHQFoRhRYCOEStxAiB6w7OkGjfFLLK/MWtP3GkPtHq0PWlclMkm7f9hjlFQCgpc3ZuHHXzvmLnpVpSXQWQJJk4gQWMAoUWGi4LZctvXBQGh+dA3D3li+wvtl13buz1P5oSMm1h9xOum3c5FlULgAAGssfkYwCCzlhnMACRoECCw03YD7bOMGNHDCzlty/+td5y9942Cr/OTV7e3+anLEsTqS0kbkAAIhjj0j69egUwFF+6c7FiyfPKOCUBXA+KLDQcIlKs10sYCEHvHVuIfyXjutmDSn5kyHpfXuVjOgW3UQ+ONa5AADIBS89LONzG+SGaUiLJa2MDgI0EwosNFxW8tlGf4U8KGVNXWAN37U6oOTErtXI2cDYJAMAIF9mbHlux86ORd2SuqKzAJJk7q8TBRZQEwosNJzJZ/MQGOSBeVtTFljf7Lru3Z7Z7w956fpDrtJoX8fMD9czFwAAOfewKLCQE5kz5A7UigILDWdKuIUQebCzs2fVvugQIzXSXatauHSoHq8DAEAzMOkRl34pOgcgScaTCIGaUWCh4dx9dnQGQG6boiOcy7e6bprhafXjqez9e2Uz6v36iZwCCwBQGEOePFI2HsCLnHBOAwK1osBCAG4hRA6Y5/L2wQel8sCCGz425P7R/jTtciVj983iRoEFACiMi/ue79vZsfgFyS+LzgLItMClxCRaVWCEKLAQIJklbiFENLfN0RGG+3bHtXdmSn5nr0rXZOexa1ULV3akEV8HAID88IclfSg6BSBp/J6urjnq7t4aHQRoFhRYCODTohMAMvVGRzixayV722ElExr99U2l/kZ/TQAAIpnpcXcKLORDVlWnJAosYIQosBDhwugAgCW+LeLrfmfuDdPSsv/n1OyDez2ZFXk3rSmjwAIAFItrZXQE4Di3UpeOPh0TI+BS8qOOq359SMnH2szuua5n1SeiM6GxKLDQUA/eemtZW/ZMjM4BZNVsR6O+1vBdq8Oy13atwqfgnAILAFAor5aytRekyYCk9ugsgNw7oyM0g8fmX3VravbHD8puqcoqklTJ0sXRudB4FFhoqNmbXpqqtrbwy3agYuUxL7C+2XXduz2z39/rpesbtWtVExMbWACAQlnY3T2ws2PRM5KWR2cBEuNJhGfy2Pyr5kv60wFL3nNAdsGpf99lFzU+FaJRYKGhyuPLFyiNTgGov6Nvzd6xeOHvzbvhDf3mf5JJP9mflnJ92jCRHY7OAABAw5mtlDsFFsK5GSewhnm8q2uKp5N/f0j6yEElc8/22K/UjFmaAqLAQkOZ2wU8fxDRTHqpnq/39Tm3Ti+19/9pVcnP7ZfNqOdrj6VMNhCdAQCAhnNfKenXomMAcucElqTHu668q5omv3ewakszs2SE/9iUMQ2FXKLAQkNRYCEPXDrv2wcflMr9C6771arbx4Y0ePmgSk13a2xJ2WB0BgAAGs3dV5o13a9ttKYpO7q6Zlzc3b0zOkijPdW19Ib+avlP+i25fX+qiqSa9mFdmjxG0ZBjFFhoqFS6gLcLiGY++gLr2x1vfldq6R/kdteqBqnbUHQGAAAabcZFU9bv2nPgiKTx0VmAtqo6JRWiwBq+a7UrtQvO74FGnuupDowNCiw0lLl+bIAPaDQ3q6nA+u78N101oOxPM7OfOCxNkjd1b3WCuyiwAACFY6tWDb3SsWitSddHZwFSK10q6fHoHGPltV0r+9BB2bx63Y2TysbV6aXQRCiw0FAmu8DFTYSIZfJzFljfuOzGCy2p/klq9sEDbrNkrVFancScRyoAAAopkZ50CizkgJlfGp1hLIxy12rEXGqv92si/yiw0GDZ1JpubgbGgJ9hxH34rtWgssv9+K5Vi/4na/IW/X8GAMA5uFa16u93NJvWKbDOd9eqFq5jr49CocBCQ2VsYCEHEjv5BFYr7VrVwiyp+6dhAAA0Ay8lzyjLomMA8swui85wPh6bf9V8s+Q/Dri/b1eaTGtUMeyq/6ku5B8FFhrKZGxgIVyWJjv+7bJrlhxOSn+amt3RSrtWteAEFgCgqIaO7H+u0j4pk8RFMEKZqelOYH1/8eLJpcEJf3DSrlWDn+yZSbZyzpwJV2/ffrihXxihKLDQaFOjA6C4XDqy09pe3F0qf3fIS9Oj80Qz55MrAEAxzdm+/fDOjkV9khZEZ0HhNc0JrOO7VgMDtjQdg12rWrik8rgZc6XtGyNzoLEosNBYpslsuKORXMoOWnnzK16ZdESl2ZnbouhMeZGZM34JACgwWy85BRaizeydP39cR19ff3SQ03m8a9n1WbX0p43YtapVmvpcSRRYBUKBhcZyjY+OgGI4omTrTrWnB1Sam7otjM6TR54lbdEZAACI4u7rzfTT0TlQeDahXL5E0uboIMetnn/V/H7Znw2a3r0/TS7IS2F1qqHE5kRnQGNRYKHRxkUHQOuqyvbvsrade708Z1DJ3Og8eWfmPL0FAFBYielZbgxAHiRDpcsUXGCtnLN8wkB79XdSlX551/Fdq5xLPJkWnQGNRYGFRqPAQl1lsoFXvbJtt5UvGlBpqrumRGdqFpnECSwAQGF5lq0XD+RFDljiYUPux3et9rovzVRuqm+IzNlXLhoKLDSUSeOaoc1Hvrmkgyq/sFOV9kMqzXQz9itGw5wCCwBQWP1p/3PjkgmppOI9ihj5YmrorXDDdq3euj899oFmTm8TPBs3TYzOgMaiwEKDeXtT/nRELhzftTpopUuqbk3zxJa8SjLjRCQAoLAu3br1yM75i/pk6ozOgmJz+ayx/horFyy/rOr+xwPu79ufJtNa4pLMNCE6AhqLAgsN5eKCGbU5sWuVlecM2rFdK47x1Qe/9AEARWe+XjIKLASz2WPxqj+ce8N4rxz+3UylX9jjWiCZZK3QXJ3Ae9mCocBCo1Fg4ZxcGtittu17VJ6DyfGBAAAgAElEQVTWr9JUuaa0xKdEOdKmTGWlO6JzAAAQyc2eM9e7onOg4NzrWmAd37U67ANNt2tVC3OnwCoYCiw0Wnt0AOTTybtW5ZkudURnajVlZWpXpnFKlcjlZq9GZwIAIJK5eqIzAJKd9y2ErbJrVQtPEg5HFAwFFhpmU1dXu1K17CcAGJ1+JVtfYddqzJTkalOmcaqqfMq9l+bO8CUAoNASeW/W6lf5aAajOoHVkrtWNXD38dEZ0FgUWGiYJJs6LtNQdAzkwPFdq1ez0sVDVmLXqs5MUptStStTu9Kz/cFJDQsFAEAOpUnWaxkPIUS4Czd1dbUv7O4eONcfXK872w52bv7twUy/9qprgbferlUtOIFVMBRYaBjzgXHiAFZhZbKBvSq/uFuVi/pVutDZtaq7tmOFVbsy2UgaQU5gAQAKbsYFF2zZtedAKokWC6EuyrJZkl4409//UddVdw5myR/u8J43ZJlxUSXJmacpHAosNFBlnM52GgQt5zS7Vl3RmVrNqbtWtXAzTmABAArNVq0a2tmxeJvkzBggVKbyjxVYjy1cdp0PlT7eb/bWfam1BUXLLzcKrIKhwELDDCodx0dbxXBE9souax84oPLF7FrV39l2rWphLk5gAQAg9Uri/QpCuWezpZN3rQ5Ui7drVZuMAqtgKLDQMG3K2tlwb11V16s7bdzufV66ZNCSmWxa1deId61q4c4JLABA4Zmrx023ROdAcWWywZc14Wce7Xjj37BrVQPjVFrRUGChYapeTsyy6Bioo5N2rax0oUsX8ilR/ZikSq27VrVI7IL6viAAAM3H5X3RGVBMB1Xq26n2tgMqzU6lD0fnaTYuUWAVDAUWgJqwazX2zmfXqiau6WP34gAANAcz9XJwHI0yqNJLL6t8cK8ql1Vl84PjNDVXwkJNwVBgARiRI0pe2WVtA/tVvjhl16ru6rVrVaOLXEpM4mgkAKCw0sR6kowKC2Mnle3frcrLu1We3a/S7Og8rcPZpykYCiw0jNuQG08obiqpbN9Ote3e66XZg1Zi16rOxmTXqjal71+2dKpeePrViC8OAEAelFV9IeM9KuoskwZfVdvm3apMPyyb4bIp0ZlaTSbjG7dgKLAAnOSkXSuVLnRpKrtW9WM6+RbBuu9a1Sgrl6ZLosACABTWtHHjXt51eMgl3vHg/B3y8uaXrVI+oPKlmXRFdB6glVBgARi+a1U5rPLsjF2rumvYrlWNPLXpkjZF5wAAIIqtXz/4SseiPSZdFJ0FzWlQpZdfVvnAflUuGzTrjM5THKxgFA0FFhqmIvOQm6RwRkeU7Nxlbf3sWo2NRH6itCrn9BdsqWS8WQcAFJ65XpJRYGHkTtm1miVpVnSmojFZfj4VRkNQYAEFU5Xt36W2Xcd2rWbk6DBQS8jBrlVNPONJhAAASHpZ0pLoEMg3l6X7VO7ZpcrUgyrNdIldq0hcxxQOBRZQAKfZtZrCykP95G3XqhZuRoEFAIDsJa6GcSav7VqVLs1kC6Pz4BiuZwqHAgtoUS7pgCov7la57ZDKM9m1qr/jpVW7UpWa9E1v4twuAQCAzF+KjoB8GVTp5VdU3rdPbZcNmti1yqfmfAOOUaPAQsO4mfMjZuyd2LXy8sWp7NLoPK2mGXatauGmi6MzAAAQzdxeduZ0Cu+1XavKzH4l7FrlXDPd9YD6oMACWkAq27+TXasx02y7VjVxUXICAMAJrMJi16qJ0ToXDgUW0KRcNviqSlt2q+2ifpWmsWtVX828a1UT09zoCAAARDNlL7mS6BhoIHatmp9x7VM4FFhAkzmo0pZX1NZ2WOXZmcQv2zobXlolrVpanYwCCwBQeFWVXirI7/1CY9eqxZjzTVswFFhomDT1qiXU5KNxxEsv7bS2gQMqXZLK5kXnaTWttmtVown/csm1F92+7Ynd0UEAAIiSVLWLK6PWlEr7dnn71t1WnjvArhXQ1PgxjYbJlPSXokM0kVN2rWZH52k1Lb1rVaP2tqG5kiiwAADFNUEHNBgdAvXisnSflft2eWXqQZWmu2lqdCbUH48IKx4KLDRMpkp/SUPRMXKNXauxdfKuVZV/tce4JXMlrY3OAQBAlOkbNhzc1bEolcTnrU3ssJVefFkV7ffyJZkbtwi2OJcV+1PoAqLAQsNM9MH+QSqD0zqxa+Wl2ZkxIllvBdy1qk3GkwgBAMVmku+UDkqc1Gk2r+1aVS4bdOM9TZGYqtER0FgUWGiYJJvUr9Kh6Bh58uI2Gze418vzT+xa0e/VzdFdq1TjlBVx16ombs6QOwAAsn2SU2A1garswB5Vtr+qyswjSmY5u1ZFRYFVMDwrFg0zd+tj/VLhj7/slbTCzX+iq3fdvH1empHKOKpeJyapXammaEgXaUCTVKW8GhE+rQQAwJXtj86AM3Mp3eOVzRttwq6nNWnyNrUvPqzkwqJfXBSZZ84thAXDCSw0jEm+SRqQNC46S4OlJj0oacWEgcqX5mxfdfj43/ia64BMUwKzNT12rc6fSQuiMwAAEC1x2++8kcidk3atzDoL/3E4TkhkA9EZ0FgUWGi0fhWnwFrlrhVJSfd1bV73yun+gJm/KumSBudqCexa1Y9L7K4BAArPTZzAyokhT15+2SrsWuHszPujI6CxKLDQaK3+Q+ZFmX0+kT7V2bN24zn/tNsrHBkaOZM0TlW1K1OFWwPrxqRZj3ddN+X67h/xxh0AUGT8Hgx00q6VsWuFETAdiY6AxqLAQkOZ1N+CZ2X2Sfqam9+7sOfpf7Uadr4S8+1jmKslmKQ2pWpXpjal9H1jZGAo7ZS0OjoHAACBKLAazGXpPpU371Rl6mGVZmbS4uhMaB7mToFVMBRYaChXy7TkZ9y1qoVJL9Q5V0tg1ypAki0UBRYAoNj2RQcoipN2rWSLovOgOSVKRnUNhuZFgYVGa+5bCM2fVaZ7rWSfPtOuVU0vl1kPzwJ9zfHSql2pSuxaNVSihB0sAEDB+WHxsdmYqbptf9na9+9VeT67VqiHxLJD0RnQWBRYaLRmLLCG7VqtO/euVS18cENxNu1PL5GfOGlVprQK4+Zd0RkAAAjlxrHvOstk+3epvO1Vtc0+Yskcl+ZEZ0ILcVFgFQwFFhrL1N8kHcWod61qMTh+3FoNjsUr5xu7VjnkPIkQAFBslmjIm+N9aq65lO5T5eiulZdmZqYrojOhNZnZwegMaCwKLDSUuR/2/NYVQ5K+LWlF2fd/o6Ovb8xPi717ww8O/HPHm7JM1vI3ErJrlXsUWACAQnP3IW4hHL3T7lrxrxNjye1AdAQ0FgUWGsttf+5+kdV516pWidSfSRMa/XUbpSTXOKXsWuXfzAfnX3XBbX1r9kYHAQAghCdVGe9VajHk9spOtR981UqXDHrCrhUayjzjBFbBUGChodz0anSGY7bK7HOp+6cv73l6Q2SQxH2/zFqqwEoktauqdmWqKIuOgxGqJKXXS/p+dA4AACKY+RD11YjsO6LkR1s04YZ+s5kuzYwOhGIqW7I7OgMaiwILjRZ5uqMhu1a1ssR3yjU7Osf5MkkVpRrHrlXTyqSlosACABSUH52TwOmlkh40aUX18LgHto0v/eURs5+MDoVi8zR7OToDGosCCw3l0t4GFxupSQ9KWnHosB648uV1uXtShUlbdbQ4aDrDd63aVVXLD3m1uqw5/zsEAKAe3HzInI/gTmJ61jK7N7XBe2b19p4oC344/ypuF0S4rJRQYBUMBRYaKpHvbciI+7Fdq5L5PQt6n8n1D7bErSc6Q63YtWpRRoEFACiuxJMh532NJG012ZdT+adm9Wxce7o/kFlycaNDAaeaUvId0RnQWBRYaCiXjeUG1laTvpwq/dTinvWn/WWbR+6+vhnut2PXqhCWumR5ub0WAIBGcvciPyZ5n6Svmenei3o2jmBqw6fziEFE6+pezQZWwVBgoaHcfG+dj2bncteqFuPbsyePDJaiY5wWu1aFM/WRzmvmavOTL0YHAQCg0bLEh5Ji3UJ40q7V7BqmNjLZ1DHMBZxT4u4mPlUvGgosNFRietXPv2LK/a5VLY6ke542zcpN8zZ812qcivxBZEG5L5VEgQUAKJySVIe3qU3hSZevSEv+hYu7u3eO5gUyaVK9QwEj0S7XJGWalGRbo7Og8Siw0FBuvnfUx42baNeqFnd0dw98dcHMoapbJTIHu1Y4ypdJ+lZ0CgAAGi3LrGKt+8nda7tWvafftapFKrXXIxQwEmVJE5VqslyV49cpbntCQyEEBRYaarDfX22rraZpyl2rWiXuBySb1vCvK3atcDJzvT46AwAAERKzSouNuNe4azUy65csadt+2Hj4NMZUImmCMk2Wa9xpr1N8b6MzIR4FFhrqdVtft6+7Y4PrrMewfL9kX5V0f1fv4m+Z7k8blS+KWfaSPGlIgcWuFc5gwNy+qcTuiQ4CAECEzLOyNf8RrFHvWo3U0EB5YUvVfMgNkzRersnKNF7Zua5TKLAKiAILDWW6P92kpQckm3LK3xq2a2XDdq3WNTpiiJKrV9Lrxur12bXCWaxy1worZ5+/qXv1qHYwAABoBWaxcw7nxfSsZXZvaoP3zOrtHdOpjcHMrhrL10fxHN+1mqhMNTzaat/YJUJeUWAhgO2VdLTAatFdq1qZ+zMy/VS9X5ddK5zBC266T0r/8ZaeNZuiwwAAkAdmqjTZivtru1Y9579rNVKp64pGfS20rrJcE5VpsjKNpjk2TmAVEgUWIqyV9FnPss8u2vLMc9Fh8qCU2JP16pfsRGnFrhVOslfyr5uV7r2x58m67WAAANAqjo645/7X435JX5Wy+6f3dn/Ljt4y2FiedHKcH6Nx7l2rkTv6cDAUDQUWGm5h77p3RWfIm2Sw/3FVJmrUT2iUq00Zu1Y41aCk75rs/vED/qWrtz91ODoQAAB5ZeZ5vTYa812rWlQTXcbHYBgpk9R+rLSaoEz1Wv83T/bX6aXQRPL6QxoolLdsXbv9qx03ZKlqe6JL+Vhpxa4VTnFi1+pmdq0AABiR3N1C2MBdq1q4a050BuTfKHetRiyzbM8YvCxyjgILyAGT/OvSoVSafK4/W5arnV0r/LgX3fT5RKVP3dTzxMboMAAANBt3q+TgDvutJvty5tmnZ/ZuWhMd5nQys4vi/zUhj17btXJVxvg/kiTVS2P6BZBLFFhATpi0U2cosNi1whmwawUAQL2Yl4N+k8bvWtWg6j5x9LMXaDX13LWqhSuhwCogCiwgJ8x9i0wLXvsr7FrhtAYlfVtmKw4me79xR3f3QHQgAABagtv4Bn4WVJX0f9y1YqB6+GuXbt16pFFf+HysXLR8+qtDdZsxQhObcOwWwQlyWUDzO6QyBVYBUWABOVEyrZd022u7VmnILwPk1ip3rSiXhu578+Z1r0SHAQCg5ZimjPlbr5zuWo1UVvWbnY9VC6siabIyTVIWPWWSvdwxeae2REZABAosICfGZdVvjUuqH0sorfAadq0AAGiUzKeMSTdj2mZuD+R512rEXDdER0BjleWaINdkZWrLz3XKztseeqgaHQKNR4EF5ES1mjzR1pbryQM0xj7Jv8auFQAADWaaUsdXe23Xqif/u1YjVZUvZf+q9R3ftZqoTOOVxzN3xu2DBUWBBeTE7due2P1Ix/JdkqZHZ0HDpZI/aEpWjB/wL129/anD0YEAACigqef5z6eSHjRpRfXwuAdmv7zuUD1C5UkqdURnwNgwSe3HxtgnKsthaTWcU2AVFAUWkCMmPefSTdE50CCmZy3TvUlp6NPsWgEAEG50J7CO7VplKn9mZt/6lr6wTmWzojOgvnK0azViLrX09xnOjAILyBGXnhcFVqvb6qbPldw+fWPPyg3RYQAAwFEmTRnx5Xsr7VrVoCpNjs6A81eSNFFZ3natRsyMWwiLigILyBEzPe/N9zsE58auFQAAOefnPoHVkrtWI/XgkmtmDx3OkugcGB3T0V2rSco0oenfimZN9wRP1AcFFpAjltpznjT7LxQcc2LX6vDhwQfe1oI7GAAAtJjTFVgtv2s1UhOODL1ln0rRMVCDo7tWfuK0Vb53rUbOGXEvLAosIEdSJc9bsT7Maz3Hdq0GrHzP7b0/4tMhAACawPY5cyZo+LVRgXatRsqVXBudASPTJtekE7tWrScx8R67oCiwgBy5ecsTWx7tWH5Q0qToLKjJFsk+l7qvuK131fPRYQAAQG0qlalTZWkhd61GqupaHp0BZ3Z812qSMrU3/S2CZ5dVsx3RGRCDAgvIEZOyh6VnTLo+OgvOab/kXzXp/h29nd96v+7n6BwAAE1q+pbnXpF0mUlZdJa8Sl1dLXMPWoswuSYcO23V/LtWIzeUOiewCooCC8gdWyc5BVY+nWHX6qnYVAAA4LwUbZB9NFLT9OgMOHnXapJcSYGKq2MOLdm6fk90CMSgwAJyxqSnozPgFMd2rapKPnNb35PsYAAAgEL54dwbLjmoQa4dA1WkY2PsadEv4nujAyBOwf/bB/LHla4z8YTiaG7aJtcDZU8+/ebeJ9nBAAAAhWXl/p8W708bLpFr0rHTVuOKd9LqTPqiAyAOBRaQM5n7upLJJVYGAhyR9A2Tr3iph10rAAAAScqkm6MzFEVRd61GyuWcwCowCiwgZ27rW7P3kY7lL0q6LDpLQWSS/5spWVGdcOTLt61ff/DoX2bXCgAAQJIyaVl0hlZ28q5Vxlm3s0iUbInOgDgUWEA+rRMF1thi1woAAGBEUrN50RlaUUWuiXJNVqYyp61GJDM2sIqMAgvIJVsn+TujU7Sa47tWyuyeW7asXB2dBwAAIO82db2jvS99ZVJ0jlZRkk6ctGqntKqZpd4XnQFxKLCAHHLP1pkxgVUnByR92RO/9+bNTz1kUhYdCAAAoFnsTl/6aeemtvNiksYf27WayFvR8zKYpn3RGRCHAgvIoyR7Sl6KTtHMMkmPmfze6oSBz7+2awUAAIBauNsdPFpodNqPlVaT5Eo4bVUPB5ZsXb8nOgTiUGABOXRzz5ruRzuW75V0QXSWpnJs18pd9968ZdWO6DgAAADNLpVfy8OxR45dq7FkPdEJEIsCC8ghk/xR02p33RadpQlsd+lLlukzN29ZxaMDAQAA6mhINj84Qu4d37WaqEzjKK3GkPMEwoKjwAJyyt1WSk6BdXpHJH3D5Cuq86Z8+7aHHqpGBwIAAGg131lyw7Shw4MTo3Pk0fBdqwnKOKPWAMYTCAuPAgvIKfdsFUPuJzn9rhW/xgAAAMbE1EP97z9gDLgP99quVca0fYN5pr7oDIhFgQXkVFbSqhIPKZFMz7rs/rKnn35z72qODQMAADRIJntHdIY8KMs1UZkmy1XhFsEwJu+LzoBYFFhATt26+anNj3Ys3yNpWnSWANtd+lKS+L03bX5qVXQYAACAIqqa3hCdIUoybIy9ndIqFxJzRtwLjgILyCmT/BHXGpneEp2lQfolfZ1dKwAAgHyoyuZEZ2ik47tWxwfZGfPIlawyNHlTdAjEosAC8sxsleStXGCd2LWytvH33bjhBwcksWsFAAAQ7IedV73pYKZSdI5GOL5rNVEF+T/cjFy9l2597Eh0DMSiwALy7YnoAGPkaZfuLVWzz9/44urt0WEAAABwCrcPRUcYS+xaNRczfz46A+JRYAE5llTTH2bllnm+yQ6X7i+Z7r+xZ9X3o8MAAADgzFLXrdEZ6i2RNOFYaTVOPC2pmWSy56IzIB4FFpBjN764evsjHcu3SpobnWWU2LUCAABoQoNKFkRnqAeT1H6stJqgTC3z0XDBmMQJLFBgAU3gMUl3RoeoAbtWAAAATezhBcuXDrjaonOcj4qkyco0SSm7Vi3AkowTWKDAAvLOTI+7N0GBZXrWZfcrTT5zy5YnqKsAAACaVCXzXxyw5nsGX1muCXJNVqY2dq1aylB/dUN0BsSjwAJyLrPkcfPc3qO/x2VfKpmvYNcKAACgNVRNb43OMFLsWhXCK1dse353dAjEo8ACcu6QvbpqkqYOSGqPznLMiV2r8dPsO1evWjkUHQgAAAD1MyQtis5wLhPkmqhUEyUZp61aHbcPQhIFFpB7d3R3DzzSsXyNpOsCY5zYtaqUKl+4vvtH+yWxawUAANBifjD/qqsOyfLywelJXtu1ylSitCoMMwosHEWBBTSBYztYEQXWc272RXatAAD/P3t3HiVXXeZ//PPcqupOujsBshAIIenqru4EmmyEfY0iig4KI6LiCOKGyzCjIw7j/JwfOOMyzrj83J1xFxhGwX1UxhEHRGQPSTo0kPRSnQCBpDtA9vRS9/n9kSABsvRSVd9a3q9zOEdjp+vtOZzqvk/d73MBVAmL3h86YW8JSfWK2WtVxeKYJxBiNwZYQBmIY7/bzD5QjNdyaYOZ/adyfv1Za5c9WIzXBAAAQGkYlp8rhV3gbtq916pBsSbKA9cgNDPjDixIYoAFlAVzu6PAP7l3SbrVpOvqpuhn7LUCAACoPjfp4sSQumeHeG2TVLtnGXu9YoZW+JPIhrkDC5JCj9YBjNgdjUu6ZGrO47eMJd3trpuHhhI3vOKJ+3iyBwAAQBX7Q9PiS3Z6dGMxX5O9VjiI7Zls+yQT/3KAO7CA8hHpD/LxD7BMejQ2+2E0bNedue7+nnykAQAAoAK4XVaMl3lur1WDYtUyl8CBtTO8wnMYYAFlwmR/cPnlY/zrT7vsRwnz68/oWXZnPrsAAABQGXIFfOr13nut6phHYKRcK0InoHQwwALKxLDFdyR8VKd+ByT91qTrJrLXCgAAAAdwX+OJRzzr8WH5XDKze6+V/+kpguyvwaiZeKgU/oQBFlAmXtb9YNcd6SXrJc3c39eYXA3KdU7T4DMb4roLT1i77ElJUrZYlQAAAChHw5a7Kl8rklPSnqFVjgtOjE/MAAvP4/0EKCv2B8nf9OI/neC57BQbWneIDTXL1SJJcxLbjpL0ZNETAQAAUHaGpQvH8/ef22tVr1gTOCKI/BhK2paHQ0egdDDAAsqIK/6Dyd4kSUn55qk+1HGoDU6KzOdLSu/9u4LJT5L0QJhSAAAAlIuOtraaJ3dY02j/nslVJ2evFQqlI93buyt0BEoHAyygjNQk7O6G3NDd0zSQTMoXyXTaAb78xKKFAQAAoGxt3lF7eSxFI/navfdaNcgVMbhCobgvD52A0sIACyhxLkV9Ta2nmetS5bZeImnSCP/eSQVOAwAAQAWI5ZcfbP9VSq56uSYpVpKhFYrAZTyBEC/AAAsoUf1zWo7xhL2p33WZudKj/gaueZsymclTu7q2FCAPAAAAFWJAtmRffx7J1bDnbiv2WqHYEpGxwB0vwAALKCGbZ7VNGUwNvUHSZS6dPs7fE6J4KLFE0m15iQMAAEDFuavx+PO2yWqe++8m10RJDXsWsgOBxEOpXStDR6C0MMACAss2Nk5osOS5pujSQQ1dqN1PHs4LM50oBlgAAADYj9j0AfZaoQR1zVu9emvoCJQWBlhAAC/YayW9WdLkgvyaYDGL3AEAALBfdR7PmWrOXiuUGha44yUYYAFF1N/YOs8jvbnfdam5Rv2o4tFyRSxyBwAAwD71pI+bkVPcGroDeAmeQIh9YIAFFNhTzc2HR7nkJWZ+qUtLivvhls/e2Nh2xOG9HU8V81UBAABQ+nIWvV6uROgO4MXcnAXueAkGWEAB7L3XymNdKPO87bUarSgaPE3ST0K9PgAAAEqTuy6y0BHAS7mnarkDCy/BAAvIo77meUss9sti+V9ImloSmwQ8OlsMsAAAALCXbGPbEcPS0tAdwIuZtGbummX9oTtQehhgAeP03F4rxXqr4rjZJZXSJ1kuXxq6AQAAAKVlSIk3mjg+iNLj7neFbkBpYoAFjMGzs+cfNpQYuFjSZS6dJpeV1NTqheavb22dNnPNGj7FAAAAgCTJTG8O3QDsi5nuDt2A0sQACxihzkym9tCcXmmKLh3SwAWSakI3jZDVDOoMST8LHQIAAIDwupvaZseuU0J3APviiYg7sLBPDLCAg3hur5Xn/C2SppXEXqtR8sjPFgMsAAAASIrj6JKSPj+AavZspmvlI6EjUJoYYAH78Ez6mDk5j9/s5u9SHGfKcWj1Am5LQycAAACgRJhxfBCl6h6T4tARKE0MsIA99t5rNazcaRX2qdSCLUfNmzr5iUc3hQ4BAABAOF3NC47zWItCdwD74jKOD2K/GGChqpXxXqvRigZq/HRJvwgdAgAAgHA8Z++Qlf35AlSohPEEQuwfAyxUpUrYazV6frYYYAEAAFSt25YuTWrt05eE7gD2IxdHE+8PHYHSxQALVWNj0zEtptxb5Xqr4ripOoZWL/Dy0AEAAAAIZ9bap18t6YjQHcB+rGrpundL6AiULgZYqGjPNDYemrOa17l0qTx3jlRRe61Ga2Hf0XNnTn9s9frQIQAAAAjibaEDgAPg+CAOiAEWKo63tdX07xh4lRRdPCy9QdLE0E0lwjwRv1LS90KHAAAAoLg6ZrVNkXR+6A5g/+zu0AUobQywUDGe22vVv2PoEimaHrqnFJnZq8UACwAAoOqkkolLJdWG7gD2x3Mxd2DhgBhgoaxtam4+2nPJt7jF71Qct1ThXqvROteXLk3a7bcPhw4BAABA8Zj07tANwAE81bpuVU/oCJQ2BlgoO3vvtYpjnSNzq+7VVqNyWN+69adIujN0CAAAAIqjq3nR6R7HbaE7gP1x0+2hG1D6GGChLLiU2NTU+jJ3XTYsu0jyutBN5SpyvVoMsAAAAKpGHMfv5uNelDJz/S50A0ofAyyUtD/ttZK/Wa7Dd/8pBwXHw6VXS/po6A4AAAAUXnfTkkNiH7o4dAdwILmYARYOjgEWSs7ze638HYrjVsZVebeo7+i5M6c/tnp96BAAAAAUlvvwZZI4vYBStnbe2vZs6AiUPgZYKAlPNzUdEnvyghfutUKBmKfiV0n6bugQAAAAFJbLrwjdABzEraEDUDWpYTAAACAASURBVB4YYCEYX7Ik1f/0tleb4ktzbudLmhC6qVpErteIARYAAEBF62pe8HKPdVzoDuBA3Dg+iJFhgIWi25TJtOXi6NL+p7e+XdLhzhMEi85l52UbGyeke3t3hW4BAABAYcTuVxq/a6O0eSrO3RY6AuWBARaKYlMmMys3nLjIzN8e57SQH6PBNTRY7Ssl/SJ0CAAAAPKvu6ltduz22tAdwEF0pHs7ngodgfLAAAsF84K9VjmdY+y1Kikuv0gMsAAAACpSrOT7Jed6DyXNOD6IUeANDXnlUmJTU+vL3HVZzvV6SfWhm7BvJr3O29pqrKNjMHQLAAAA8uexWadO3OXb3xW6AzgYdwZYGDkGWMiLP+21cl0u14zQPRiRQ/u2DZ0j6ZbQIQAAAMifXTU7LpFraugO4CCGI0vdEToC5YMBFsasf1brUXHS3mDml8c5LeJ8YPmxSBeJARYAAEDFcMm6Yv8Qu9tRBh5o7lm2OXQEygcDLIzKpkxmsueiC1262KVXmzwRuglj59KFvnTpe+3224dDtwAAAGD8uufMP0+mttAdwAj8b+gAlBcGWDiovfdaxTn2WlUSk6ZuWrf+bImz5wAAAJUgjuwqbr5CObCIaxCMDgMs7Ndee63eJtcRoXtQGB77RWKABQAAUPbWNC5aZIrPCd0BjMD2RG7LXaEjUF4YYOEF9tpr9bY4p8V8elMFzF7v0l+ZlAudAgAAgLEz8w+HbgBGxOy36WzvrtAZKC8MsKC+uXMn+UB8kckuddNSk0ehm1BUM/rnzD1La1ffFjoEAAAAY9OZWTBLOX9j6A5gJMzjX4duQPlhgFWlXIr6mlpPM9elGvS3mFlD6CaEYxa/VRIDLAAAgHIV6ypJqdAZwAh4bihigIVR44RYlXlur5W5LpN0ZOgelIwtQwPbjpy5fv2O0CEAAAAYndWtS6ZFQ0NZSXwojXKwrCXbfkLoCJQf7sCqAn1Hz53pCV1skS6Lc348U0vsw+TUhPoLJP1n6BAAAACMTjQ4eJU4UYFyYfpl6ASUJwZYFeqxWbMm1qbqzzf5ZZKfZ1JSHroKpc0uFQMsAACAstLdtOSQ2IfeG7oDGKlI0a9CN6A8McCqIC/YayW9RXI+hcHIuc7d2Nh2xOG9HU+FTgEAAMDIxPHQB2U6NHQHMEIbm3pWLAsdgfLEAKsCbMpk2uI4uniT623magzdg7KVtGjoLZI+HzoEAAAAB7dyxoJ6ma4M3QGMmPsvTYpDZ6A8McAqU31zjjnSLX6jmV8a57REEicEMX67795jgAUAAFAGJk70v5RsWugOYKQ8Mp4+iDFjn3cZyTY2Tqi32tfu3mul88QAEgUQyxbOyK5uD90BAACA/Vs5Y0F9XZ16JB0eugUYocFczcC0eatXbw0dgvLEAKTEvWiv1SWSTwrdhMoWSW+VdHXoDgAAAOxfXZ0+IIZXKCt+O8MrjAd3YJWop5uPOS4Xx5fJ/C1yHRW6B1Vl/bQ5M+fY7bcPhw4BAADAS+158mCPpCmhW4CRctcHWnvbvxS6A+WLO7BKyJaj5k0dqIkvknRZLs6dLonFVghh5qbe9edL+lnoEAAAALxUrMEPScbwCmUlSuTYf4Vx4Q6swF601+pVklKhmwCT/2ZatvO80B0AAAB4oUeOmjc1WZPqkWxy6BZgFB5pybYfGzoC5Y07sALpa5y31C2+3KTXs9cKpcZl527IZJpndHV1h24BAADA85K1tX8rd4ZXKC/mN4dOQPmLQgdULYs/YdLbJDG8QimKotiuCB0BAACA5/Wkj5sh9ytDdwCjFUk/Ct2A8scAKxTTraETgANye0e2sXFC6AwAAADslvPoWkn1oTuA0TBpdXPPqlWhO1D+GGAF4q7fhW4ADmJaQ1R7UegIAAAASN1NC1tlelfoDmC03PyHoRtQGRhgBTK9LnWvpG2hO4ADcn9v6AQAAABIOcWfFg98QhkyM/ZfIS8YYAViHR2Dct0RugM4iDOeapo3P3QEAABANetsXHCKuV0YugMYLZNWZ7rbHwrdgcrAACukiGOEKH2Rx+8J3QAAAFDVTJ+VZKEzgNHzm0IXoHIwwAoodmORO0qeSZdubGtrCN0BAABQjdY0LbhI0umhO4CxMBPHB5E3DLACOjy7epWkDaE7gIOYrO3D7wwdAQAAUG062tpqzPWp0B3AWPD0QeQbA6yATHKZbgvdARxMZP5BX7o0GboDAACgmqR2JD4gqTV0BzA2HB9EfjHACs3Zg4XS51Jj39onXx+6AwAAoFp0NS843KSPhu4Axorjg8g3BliBJZX4begGYCRMflXoBgAAgGrhsT4l6ZDQHcAYreH4IPKNAVZgh2UfWStXR+gOYARO2phuPTN0BAAAQKXrnLNwsaS3h+4AxspkHB9E3jHAKgVmt4ROAEbCJO7CAgAAKCCXzCP/krhWQxmLlOP4IPKON8USYJEYYKFcvK6/sXVe6AgAAIBK1d244E0mnRG6AxiHVU3Zh9pDR6DyMMAqAVMPbfiDpM2hO4ARMJf/degIAACASvTo3LmTPNJnQ3cA42Gy74duQGVigFUCbNmyIedphCgXZpevb22dFjoDAACg0iSGav9JrqNCdwDjkBuMkzeGjkBlYoBVKsx+HToBGKGJqUG9P3QEAABAJelumj9fritDdwDjYvqfY9cuezJ0BioTA6wSYXH0a0keugMYEdPfPNPYeGjoDAAAgErgUhS7/bukZOgWYDws1nWhG1C5GGCViOlrH3lS0srQHcAIHTpkNdyFBQAAkAedjQuvkHRq6A5gfHxL3WDqF6ErULkYYJUQkzhGiHLyob65cyeFjgAAAChnq1uXTDPzT4TuAMbPfjhz/bIdoStQuRhglZBcxB4slA+TptqQ/2XoDgAAgHIWDQ1/QdLU0B3AeMXS9aEbUNksdACe51LUn259QtIRoVuAkXBpk9VYevrq1VtDtwAAAJSbrjnzX+18iI0KYFJvc7a9ydjrjALiDqwSYlIs6ZehO4CRMmmqBuP3hu4AAAAoN52Zkyd7ZP8eugPIB3d9j+EVCo0BVqkx/1noBGB07OqNbW0NoSsAAADKyvDOT0s6OnQGkAeuZHxD6AhUPgZYJebZyG+VtCV0BzAK02zn0BWhIwAAAMpF55z5p8r0ntAdQD6YdGdL10PdoTtQ+RhglZiWrq4BSf8dugMYFdfV62fOrAudAQAAUOo6M5laRfZtcS2GCuHSdaEbUB140yxFHCNE+ZmRqm14X+gIAACAkhfX/6OkY0JnAHmyM7LUzaEjUB0YYJWghHK/ljQYugMYpY9untU2JXQEAABAqeqcM/9UuX84dAeQLy7d1NyzbHPoDlQHBlglaEpPz2aT3xa6AxilwwaSQ38bOgIAAKAUrZ+5pE6RfU9SInQLkC/m+rfQDageDLBKlLs4RoiyY6YPbmpu5mk6AAAAL7K9dugzklpDdwD54lJ7S2/7PaE7UD0YYJUqT/5cUhw6AxilCXGcuCZ0BAAAQClZ0zT/FZLYF4rK4vb10AmoLgywStT0tY88KemPoTuAMXj7pkymLXQEAABAKehuWnKIuX1bkoVuAfJomyUn3Bg6AtWFAVYJM+mHoRuAMUjEueiToSMAAABKQeyDX5E0O3QHkE9muqGl694toTtQXRhglbCchn4kKRe6AxiDCzY2tZ4ROgIAACCkzvT8iyV7a+gOIN88Z98I3YDqwwCrhM3IZjfI9fvQHcBYmOuzzq3yAACgSnU1H3e0ZP8eugMogLtb1q5cHjoC1YcBVqkzjhGibJ28qXHu60JHAAAAFNttS5cmPZf4gaTDQrcA+WbSv4VuQHVigFXihlL6iaSh0B3AWLj5ZzszmdrQHQAAAMV01NqnPybz00J3AAXwbN1A6kehI1CdGGCVuJlr1vSb/H9DdwBjlDlsOPHB0BEAAADFsjq94EyTPhK6AygM/87M9ct2hK5AdWKAVQZijhGijLn5P/TPaj0qdAcAAEChdcxqmxJJN0pKhG4BCsBzYnk7wmGAVQZS8dBPJQ2E7gDGqMFT/i+hIwAAAArJJatJJb4jaVboFqAQXPrfedn21aE7UL0YYJWBw3p7n5X029AdwNjZW/oaM2eHrgAAACiUrvSCv5d0QegOoFBY3o7QGGCVC/MbQycA42Cy6AvO7fQAAKACdTbOP1vSP4buAArG9MTmKamfh85AdWOAVSZ2De78maTNoTuAcVi0qWnuFaEjAAAA8qknfdwMmd0oKRm6BSgUc33hhGXLhkJ3oLoxwCoTRz/++E5z+0noDmA83P2T61tbp4XuAAAAyAfXxYlY0Q2SZoZuAQpoa8Kjb4WOABhglRF3XR+6ARinw1KD/k+hIwAAAPKhq3H1x116RegOoJDM9J1074pnQ3cAFjoAI+dS1J+em5V8dugWYBxyMjtles/qB0KHAAAAjFVX4/wL3ewn4poKlS3nOW9tXbeqJ3QIwB1YZcSk2OQ3hO4Axikh92/7kiWp0CEAAABjsbpx/jw3fV8Mr1Dx7CcMr1AqGGCVGbfo+6EbgDxYsGnTtg+FjgAAABittbPnHxZZ9F+STQ7dAhRcHP+/0AnAcxhglZnpPY+ukXR/6A5gvNz82o3NzZnQHQAAACPlUjQQ2Q2S8zsMKp/bXS1rV90dOgN4DgOsMuRylrmjEky0OPqmc+s9AAAoE12N8z9ppteE7gCKwpy7r1BSGGCVoQmDiRslDYbuAMbPlvY1tVweugIAAOBgOtML3yizvwvdARRJNpOd+9PQEcDeGGCVoclPPLrJTb8K3QHkg7l9dkM6PSN0BwAAwP50Nc9fIvl3xJ3jqBLu+qLp5lzoDmBvDLDKlMm/HboByJMpkaW+EDoCAABgXx49evFMd/u5pPrQLUBx+BZLTvxu6ArgxRhglalpPZ23SLYudAeQF64396Xnvi50BgAAwN462toaEsn413IdFboFKBaT/XtL171bQncAL8YAq0yZFMv8e6E7gPzxr2zKZHgcNQAAKAkuRTU7EjdIvjB0C1BEw2a5r4SOAPaFAVYZiyz3LUmcS0alONrj6IuhIwAAACSpq3HhZyVdELoDKLIbm3s6OOmDksQAq4xN7e5+zOS3hu4A8sVdl29Mz31D6A4AAFDdOpsWvF/mfxO6Ayiy2OP406EjgP1hgFXmYkXfCt0A5JPJv76xse2I0B0AAKA6rWlaeL5c3BWOKmQ/bl370COhK4D9YYBV5qbXJX8haWPoDiCPpkU2+D3nMdUAAKDIVqcXnmTuP5CUDN0CFJtF8b+EbgAOhAFWmbOOjkHJrgvdAeSTy17Vn259Z+gOAABQPTozxzVH8v+SVB+6BQjgl5nuVctCRwAHwgCrEph9U5KHzgDy7Asbm45pCR0BAAAqX2dm8XTlolskHR66BQjBoojdVyh5DLAqwPSeR9dI/vvQHUCe1ZvnvuNSInQIAACoXI/OnTtJudwtkvjgDFXJpd9lulf8MXQHcDAMsCqEK/pa6AagAM7Y1Dj3w6EjAABAZepoa6tJDNbeLGlJ6BYglCi2T4ZuAEaCAVaFmD6l4WcyPRG6A8g3N/+njY0ti0J3AACAyuK6OFGzI3GjpFeFbgECuiezduVtoSOAkWCAVSFs2bIhxfpG6A6gAGrM7OZNmczk0CEAAKAyuGRdjY9+Q9JFoVuAkCLzj4duAEaKAVYFcaW+IWkwdAdQAJk4F30zdAQAAKgMXemFX5LZO0J3AEGZHmzqWXVL6AxgpBhgVZDDezuekuknoTuAAnljX7r13aEjAABAeetKL/y45FeG7gBCc9m1xtPsUUYYYFUYl74augEooC+xDwsAAIxVZ9PCD7n8H0J3ACXggZaelb8KHQGMBgOsCnN4z5o7ZfZg6A6gQCaY6Sb2YQEAgNHqbFzwQbl/LnQHUApc8f/h7iuUGwZYlcj930InAIVjLXEu4oEFJeKOY5Yc+UB6yStDdwAAcCBd6YV/JdPnQ3cApcCkP7RmH/pt6A5gtBhgVaBdQztukPR06A6ggN60sWkui1cDuU1K3tN0/AfvSC9eM7hTTzwj/eae9OKrQncBALAvnekF73T5FyVZ6BagFLhH14RuAMaCN/EK1Zee+xnJPxy6Aygc25GIopOndD/yUOiSanFP5oQLcrn4Izulk2LZCz4AMUmTo9zVJ3ev+EygPAAAXmJN0/y3m9u3xAf3gCTJpFsz2fZzQ3cAY8EAq0I93dQ0O+fJbknJ0C1AAT0aJeKTp3Z1bQkdUqkemLPg+AFLXDtkdu6gbOKBvtYkTbb4Iyf3LP+XIuUBALBfnekF75T0DTG8Ap7nOrWlt/2e0BnAWDDAqmB9ja03ynRJ6A6gsPwX07Kdf25SHLqkUnTMOnXKluTOfxi2xFt2umaM5ieFSZqk4WtOya78eMECAQA4iK70/Ctc9nUxvAL+xOS/ymRXnR+6AxgrBlgVrK953hLF8QOhO4CCM/3T9J4114bOKGe3Scn6pkVXDHh05YDbvNjG/vPBJB3quY+d2LviH/OYCADAiHQ2LXi/XF8R1zrA3jyy6OTmnhX3hw4Bxoo39QrXl279vaSzQncABeYue9Ph2dU3hw4pN3c3Hf/6nPuHBxSdlJMS+fq+u48T5v7x5J4VH8vX9wQA4GDWNM6/2sw4yg68iLl+kultvyh0BzAeDLAqXH/j3Avc/GehO4Ai2JaIEqey1P3g7p+zcPGgRR8byV6r8TBJDYo/d2p2OQ+UAAAUXGfjgmtl+ljoDqAE5ZSwhS1dKztChwDjwQCrwrlk/enWhyXNC90CFJpJvYMpnThzzZr+0C2l5sHM4ukDOV0zLHvTTtn0or2wSw1R/G+n9Sx/X9FeEwBQVVyy7qaFn3b3q0O3ACXqWy3Z9neHjgDGiwFWFehvan2/u74augMoBpd+Oz275tUm5UK3hPaAlqRyTfFfDbu9d5eUycmCvefXy//j9OyDbw31+gCAyuS6ONGVXv11SVycA/u2IzecaJn32PL1oUOA8WKAVQXWz5xZl6xtWGfS1NAtQHHYZ6ZnV1ftp7B3p094XazchwYsOn3YlQzd85x6xb89Pbv8laE7AACVoaOtraZmR3S9ZG8M3QKUKpN/PJNddU3oDiAfGGBVif506ydd+j+hO4AicZn/xfSezv8MHVIsf2w8cZFp6Johi84ZkE0O3bM/dRYvO71n+cncIQcAGI+VMxbU19XpR5LOC90ClLA+JSZmWrru3RI6BMgHBlhVYmNj2xFmQ1lJE0K3AEWyM46iV8zofvSu0CGFcu9R86bGNROvHZS9eVA23UMHjVCd4jVbElsXvKarayB0CwCg/KydPf+wwSj6pcxPC90ClDa/siW7ilUyqBgMsKpIX2PL12TGImVUDZc2mUWnTe95dE3olnzZvddq+MohT753QN4Scq/VeEy0eGN9pOOO71reF7oFAFA+upqPO9pz0S0ytYVuAUpc5+YpqbYTli0bCh0C5EtZXvhgbJ6aMzediHyNVDo7cYAi6MlFuVOP6O7eGDpkPO6bffxrhxJ+VanttRqPlHz7hKROPLXzwUdCtwAASl930/z5sduvJB0dugUoAxe3ZNt/FDoCyCcGWFWmL916vSSeBIZqc9/QwLaXzVy/fkfokNG4Z/bJx8bRwLVDFp1XynutxiMpH6pT/GenZFf8NnQLAKB0dTctOCd2/VjSIaFbgDJwXybbfopJ5bJhAhgRBlhVpn9OyzEe2UOSotAtQDGZ/EdTs51vMikO3XIgyxsXHbpLumbYEm/ZKc0I3VMMkTxuSOQuP6Vr5fWhWwAApaerccHb3PRNSanQLUA5sNhenlm78rbQHUC+McCqQn3p1p9JuiB0B1B89pnp2dVXh654sduk5MSmRVcOe+J95bzXajwiySdq+JrTsys/EboFAFAaXLKuxgXXyHStuG4BRurnLdn2C0NHAIXAD4Iq1J9uPcmle0N3ACGY9FfTsmu+ErpDku5tXnLhUOwfGXSdMGyWCN0TnEsNFn/7tOzyd4VOAQCE1ZnJ1CpX901Jl4ZuAcrIgEW54zLdHV2hQ4BCYIBVpfoaW38n08tDdwAB5Mztomm9q38e4sXvmnV8xlLxtYOKXlepe63Gq878ocMmDixp6+gYDN0CACi+R46aNzVZU/NjSWeHbgHKivunW3pX/X3oDKBQGGBVqf6m1nPcdWvoDiCQ7ZHHr5ja23VPMV5seeOiQwcj/8iAJy7bJTuyGK9Z7mrM+xtkS07oWbYudAsAoHi6mhcc57F+ISkdugUoMxuUmNja0nXvltAhQKEwwKpifenWeyWdFLoDCOSZWLZ0RnZ1eyG++W1Ssr5p0RUDHl05IM2Lq3Cv1Xgl5YMTXBec1vvgf4duAQAUXlfjgvPc9APxpEFg1Mx1eaa3/fuhO4BC4oKqivU1tfyZ3H4ZugMIaKNkZ03Prl6dr294X/r41w6a/92g7ORht2S+vm+1iuTeEPnfntK9/HOhWwAAhdOVXniVy/9FEjshgVFy+f0t2VWnlPrTtoHxYoBV5frSrfdIOjl0BxDQY0klzjws+8jasX6DPx69pDlK5j7GXqsCcWmSxb84Nbucp6cCQIXJNjZOyEWHfN3dLw/dApQpj8zOau5ZeWfoEKDQGGBVuY1zWl9tkX4dugMIyztjDZ85I5vdMNK/0T57/mHbEqm/H3K9dUB2JO+mhTfR/eHh+oGTX9bRsS10CwBg/Lqajzs6ju3HJjsxdAtQxq5vybZfFjoCKAYuuaC+dOsfJJ0RugMIrD2Vq1166LpVz+zvC57bazWk6H07XW3stSq+lHzb5EhLl3Q/uCx0CwBg7Dob558ts5skHR66BShjOyLLHdPc08FDb1AVuPiCNjTOe1VkMUuSUfVcdne8o/bcIza0b9/7z++ds+jPhiP72wGz04bdUqH6sFvkHtdHduWpPcu+HroFADB6Xen5V7jsq5LYFQmMz0dbsu2fCh0BFAsDLEiS+tKtd0g6M3QHUAJufTYRn789rp+zM7aPD1r0mgFZQ+govFSd+w9P733wEpM8dAsA4OA6MydPVm7ntyW9IXQLUAF6kr6lLd3buyt0CFAsDLAgSdqUbjk3lv1P6A4gJJfteFrJ7j7VTt8pOyJ0Dw6uVvHjU1RzwvzsvSPeXwYAKL7O2YuPVXL4ZrkdG7oFqARu9trWnpU8UR5VhQEW/qQv3fp7SWeF7gCKLN7syd5+S9VtU3JGzPti2UlKu2qHhy84/bGVDOEBoAR1pRdc5tLXJdWFbgEqxI9bsu3cyYiqw4Ua/qS/qfUcd90augMohp2WWLfRa3yLEkcNy9jBUQEmeu67Z/aueEfoDgDAbtnGxgnDNvnLkt4VugWoIDsSShzblF2+NnQIUGwMsPACfem5t0t+dugOoBBysv4Nqnn6WU8dPWA2MXQP8q9W8RpL6Iyzupb3hW4BgGrWOXvxsYpyN8nUFroFqChmV7X0rPx86AwghCh0AEqLya8WC5FRQVzatUmpzjWq37RKDdM2qKaV4VXlGlDUOpSLHv9jejG31QNAIF3pBZcpkbuP4RWQd6s2H5b8cugIIBTuwMJL9KVbfybpgtAdwDjEWy3Z0+epCVs9cVRsxntdtXGpNvKf3tbz4Bs+JsWhcwCgGmQbFx06bPG/SXpT6BagAsUWxWdmuh+6K3QIEAoXdXiJ/sbWeW5aJYm9QCgrA4rW9XnN8LOWmj3Ev7+QVCt/MpmwM0/vWtYdugUAKlnXnIUv84RfL9dRoVuACvXNlmz7FaEjgJAYYGGf+ptav+uuy0N3AAczLG3uU+2mZ5Q6ckAcDcRLJUzDE+Pch0/rXfHF0C0AUGkeWLIkdcimwX+S2dViPQlQKH2DQ7l5bY93PB06BAiJARb26Zn0MXOGlVstqTZ0C/BiLu16WqnHNqlmyg5FU1nahpGYYHFHcuLgWad18MsfAORD5+zFxyqRu07SktAtQCUz1+WZ3vbvh+4AQmOAhf3qa2z9vEx/E7oD2CPeYsnsJk/Vb1VyRo73L4xBQj5Qa/E7z+hZ8R+hWwCgXLkUdaYXXGXSx8WHnUCh/T6TbX+Z8aAtgAtA7N/61tZpqSF1S5ocugXVa8CidX1xbe5ZSx7NXivkywTz/9kWbXnda7q6BkK3AEA5WTN7fpMS9n2TzgjdAlSBnZFFC5t7VnSGDgFKAefUsV8z16zpl+tzoTtQfXLS5o2a0PmI129/2Otn91kyzfAK+bTL7ZUTc5P7755zwqtDtwBAOXDJ1jQufI8lbCXDK6A43P1jDK+A53EHFg5oY1tbg+0Y6pZ0eOgWVDaXdvV7KvuM1RzOXisUi8lVJ//N4YmtF7RwNxYA7NMjjYsak+bfkPzc0C1AFVmxeUrqpBOWLRsKHQKUCgZYOKj+prnvc/evhe5AZdquRHaj1dZs9WhmTsZ7EoJIyrdPtMRlp/bc/5PQLQBQKlyy7vT8d7vsc5IaQvcAVWRYsZ3Usnbl8tAhQCnhYhEH5VKiL92ywmTHhW5BZRgwe6wvnjDMXiuUFJcmWny7bd3xujP6V28NnQMAIe15wuC3JJ0augWoNi59sjXb/g+hO4BSwwALI7JxTuurLdKvQ3egfOWkzZs0YeMmT8zcZVF96B5gf5LSrgmKrzwtu/zboVsAoNgeWLIkNfnp4Y+Y/KPiCYNACI8osWMxqw2Al2KAhRHrS7feIum80B0oHy4b2KJU70Ylp2xXYjp7rVBOJip+dHiw5tyXPXHv46FbAKAYupsWnhG7f10Sd90DYcSR2dnNPSvvDB0ClCIGWBix/jktx3hk7eLIFw5imyd6+1Rbs8WiI2P2WqEM1cjVIFe9xWuTritasiv/J3QTABTK2tnzDxtK2MdculI8pRwIxkxfzPS0fzB0B1CquLDEqPQ1tXxdbu8N3YHSM2DRhj6v3fWsEkcNyRhyouwkJNUrVoNi1eoF9wu6pBuSnrs63dvxVJg6AMg/l6yr4Y+miQAAIABJREFUaeHb5f6vkqaG7gGqmUm9A3W5+W0dHdtCtwCligEWRuXJTGZ6Mhd1SjokdAvCy0mb+zVh49PstUKZMkl1e4ZWdTroIdfN7rr2icYpX33Z7bcPFyEPAAqmu2n+/Jzb10w6I3QLALmbv7K1Z9WtoUOAUsYAC6PW39T6EXf9c+gOhMFeK5Q7k1Qr33O3lSs6+ODqxX9/dWx+Jb9kAihHex0XfL9YCwGUBJd/uTW76q9DdwCljgEWRs3b2mr6tw89LFNz6BYUz3YlevutJrXZkzNzvHegDKW0+4jgJOXyccXmkv/HUFxz9bFrlz05/m8HAIXlujjR1bT6Crk+Lo4LAqVkTf1AavHM9ct2hA4BSh0XoRiTjem5F5v8ptAdKKxBs8c2+oRdm5VoHJSlQvcAoxU9t4xdsSaM8k6rEdoh02cmDNb/y9GP372zEC8AAOPV2Tj/bFn0RckXhm4B8ALD7jqjtbf93tAhQDlggIUx60+3/LfLXhW6A/mVk23Z5DX9m5ScwV4rlCOTq04+0r1W+bLOXH/X3Nv+Q1PxXhQADqSruS3jceKfJb0hdAuAffpUS7b9o6EjgHLBAAtjtml25tg4Ea3Q7pM5KGOxbHCrUtk+JaduU2IaV98oN+Pda5UvLr8/ihJ/k+le8ccgAQAgqWNW25SamuTVcv+gpNrQPQD2acVgXe7kto6OwdAhQLlggIVx6Uu3fk7Sh0J3YGy2K9G70WpSWz0xMyfj/QBlJyVXvVyTFCtZOjc+uZt+aFH8Dy1dD3WHjgFQPbKNjROGNOmvzezvJR0augfAfg1E5ic296xaFToEKCdcsGJc+ubOnaRBf1TSzNAtGJlBS2zo89SOZy05a9DZa4XyU4S9VvkyJNm/W+Qfz3S3bwwdA6ByuRR1pRe+RfJPSpodugfAgbn737X2rvrX0B1AuWGAhXHrT7de5tL3Q3dg/3KyLZuU2rBJySN2KTEpdA8wWibXREkNilWvOHTOaG2X2VcUTfhUS9e9W0LHAKgsa5rmv8Lc/lXS4tAtAEbA7a5Mb+tZpptzoVOAcsMAC+PmkvWnW2+XdFbYEuzNZbnNSq7tV+qQbUpMLen7VID9qN2zjD3kXqs82uCuT6W05Rvp3t5doWMAlLc16ePONUWfkHRS6BYAI7ZNiXgRKwaAsWGAhbx4qmne/ITHD0pKhm6pdjs82bMxSqU2e+KoWBaF7gFGq0T3WuXTRrl/PqmtX2SQBWC0OhsXnOKmT5h0TugWAKPj7m9v7V31vdAdQLligIW82Zhu/apJ7w/dUY2GZBs3qHb7FiWPGpDVhO4BRishqX7P8cAS32uVT+tM/olnp9R874Rly4ZCxwAobV3Nx53mcfR/JZ0XugXA6LnpB6097ZeE7gDKGQMs5M3mWW1TBlNDj0qaHrqlSjwj6eY4mfhRR27ifw278ZhslBWTq27PQva68ttrlU9ZSZ8crMtdz6O0AbzYmvT8syS7hjuugPJlUq9ZalFzz7LNoVuAcsYAC3nFQveCy0m6zaTrBwe2/Wjm+vU7JOne5iUXbo7108BtwIg8v9cqFmdcX2Cduz7fMJj65sz1y3aEjgEQVnfTwjPc/VqXXhG6BcC4DFsUn53pfuiu0CFAuWOAhbzrS7f+VvyylV+mhy2264YTw989ort7476+5O6mxf+51aM3FzsNGImkXPWKNUmuVPUcERyrDe7++bh28OvzVq/eGjoGQPG4FHU1zn+tFF0t89NC9wAYP5dd05pd+fHQHUAlYICFvNvYdEyLea5d0oTQLWXuMTfdaIq+M73n0TUj+Qt/SB+/bqfs6EKHASMRSarbM7SaUN1HBMfqaZm+rCjx1Zau5X2hYwAUTmcmU6tc3VslfVjSvNA9APLmjkx27stNN+dChwCVgAEWCqKvsfUamf4xdEcZ2izpF2a6bmrPmt+ZRneryoPpxXOeNesaduNpkAjCJE3cc7dVvWJ+yOTHgKSblEt8umXd8odDxwDIn0fnzp0UDdS+w0wfljQrdA+AvHo2ocSipuzytaFDgErBtQUKwtvaavp3Di2X69jQLWVgn3utxur+9OJ3PqvoWxzSQjE9t9eqXrESoWMqVyzpV/Lo8y29K24PHQNg7NbMnt9kCf2lpHdJNjl0D4D8c7OLWntW/iR0B1BJGGChYDamW8806ffi37N927PXKmeD35uRzW7I57e+K338LdtkPGYbBcVeq6CWufnnhybGP+LJhUD56Jqz8GWe0F/L/XUSz7EAKpXLvtGaXfme0B1ApWGwgILqS7d+S9I7Q3eUkMdN9pOc/DszsmtWFupFXEr8IX38k7tk0wv1GqhO7LUqORtk9r1Iw19r7ulYFzoGwEt1ZjK1lqt7UyxdZdKC0D0ACm5V/UDqFJ4oDOQfAywU1OZZbVMGU0OPSDo8dEtA49prNVb3ZRa2bckl2mMZn/BiXExS7Z6hVZ1ibhkoTUOS/Uwef7Wld9XvQ8cAkLqbFrXkPL7CpMslTQvdA6AYfEtk0YnNPStH9AAmAKPDAAsF19c09y/kfkPojiIbkvQbl12/3Qd+ke7t3RUi4r70kg9vlj7D4S6MRUrSJMVqUI69VuVllbt91ZIT/rOl694toWOAavLAkiWpQ54eusCk97h0jvhdG6gy/saW7KqbQ1cAlYofqiiKvnTrzyRdELqj4Aq412qs7mpa/MdtHp0WugPlISlXnVyTFKuGvVblbrvcb7KEfyvT/dBdoWOASvZI46LGhMXvst1rE44I3QOg+Ez6Uibb/oHQHUAlY4CFoug7eu5MJf0hSYeFbimAx032k9jj7x7e27kidMyL/TqTqa3PTd44wFOOsB/staoC5g9L0bfjZPK6uWuW9YfOASrB+plL6rbXDl8k98tlWiqWsgPV7N7ButxZPFgFKCwGWCiavnTruyR9M3RHnmyR9HMpvnlatuvXJuVCBx3IXa0LT9oxmLg7NvZhYbe991rVK+aHQfUYlOznbrpuy2HJ35ywbNlQ6CCg3HQ1H3eax9HbJX+j+HAIgLQpstzxPEwFKDyuWVA0LtmmdMstLntV6JYxykm6zaTrh3dM+PERG9q3hw4ajfual3x4c8w+rGr3/F6rWAmOCFa7Ppf/wBXdMDe78r7QMUAp68wc1+w5uySSvdWluaF7AJSM2GI/P7N21S2hQ4BqwAALRfVM+pg5w8qtkjQpdMuI7dlrFSv5/cN7O54KnTMedzUt/vU2j14dugPFlZBUr5i9VjiQtTL7gdnwtzLdHV2hY4BS8MhR86amalIXuewySaeJ35sBvIjJPpHJrvy/oTuAasEPYhRdf9Pc97n710J3HJDpCXP7canutRorl6I/pBev3aVoVugWFJZp916rBsWqY2iFkXNJ98rs5kjDP+I4BKrNI0fNm5qsqflzuS6R6WyJh7AC2A/X/2Z6577SdHNJrxIBKgkDLBSdS9aXbv2NSeeGbnmRnSb90hVfXw57rcbqvra2I7bvqO0dktWGbkF+7d5r5X+624o3eIwTwyxUhYfnLDkylRi60F0XmXS2pGToJgAl77GE4hObsg+VxFPHgWrB9Q2CeLJxXmPS4lWSGgKnxJL+16Tr47rUTw7v6NgWuKco7mtccN4WS/065j2gIjy/1yrHrQIoFJd0r7v/NDb7+bxs++rQQcB49KQXz8l57s/ddJHtPh7IQ04AjNSuyKKzmntW3B86BKg2XLwimI2Ncz9g5l8I9PLL5XadK/mDct9rNVZ3pxd9YpsSH+VwWXl6bq9Vg2LVckQQxddj0i9j8//acljN73maIUqdS1F38/zF7vZauc6XdLz4PRjAWJi9s6Vn5XdCZwDViB/cCMalqL+x9bcyvbwoL/jcXqs4973D13YtL8prlrg/Ni3+43aPTgvdgZExuerk7LVCqekzs1/F8l+m4uh36d4Vz4YOAiTp0blzJ0VDta+MZOe7+2skHR66CUB5M+lLmWz7B0J3ANWKARaC2pTJzIpzUbukwwr0Es/vtZoz6xa7/fbhAr1OWXItTd6Z3vr4TmlG6Bbs2957rRrkihhcobTlJK2Q2a2u+FbuzkIx/ekuq5xeYWavcOlMSex7BJAXLt05VJc7p62jYzB0C1CtGGAhuP5066UuXZfHbxlLulvSdV6XurFa9lqN1f2tJzZtG44fHXKlQrfgeSlpzzL2HNuEUc42SbpVZv/jw/HtretW9YQOQmV5pHFRY8py57qicyU/R9KU0E0AKtI6JRIntHQt7wsdAlQzBlgoCX3p1h9KeuO4vonpYYvtOvfouulrH3kyP2XV4d70oou3KrqJ59aFFcnVsOduqwncaYUKZPInXdGdpvjW4dh+O29tezZ0E8rLo0cvnplIDp/uil5h8ldIagrdBKDi7YosPrO556EHQocA1Y6rVZSELUfNmzpQE6+SdOQo/+p6k/3I49z3p6/terAQbdXi7vTiL29VdGXojmrDXitUuayZ/d7d71QucXdm3fJHbfddtIBcFyey6Ufahj1xmsnPlGmppJmhuwBUG7u0JbvyhtAVABhgoYRsSmdeGSv6bx3830v2WhXInY3H37PD7OTQHZXuhXutYp7dDjxvq6R2md0p9z/W5PzOOetWPRM6CsXRmTl5ssc7TjLZGXItkXS6CrcjEwBGwD/fkl11VegKALsxwEJJ6Wtq+brc3ruP/4m9VkXwgJaktqf9iQHZ9NAtlSglaZJyqpcryd1WwEjkZL5absvctSwR2bJdE4dXtPEzoOx1zGqbkqqJjles483seEnHS2oJ3QUAe/nN43OmnP8yPiwHSgYDLJSU9TNn1qVqG5ZLapUkmR6WdPNwHH3vyN5He0O2VYs75y6eOTQYdQ9JE0K3VAL2WgF5F0taLfkyk610t1XxsB6a+/jKJ0KH4aVciroyx6U1bMe5aX7ktlim411qDN0GAPvl6oii1OnNPcs2h04B8DwGWCg5mxozp8QWvSGWXTcju7o9dE81un/2otM3J6I7Yhmn28bAJE3cs9eqnnU+QLE8Y9JDMnW41K44emTIE6uPXbuMh3oUgUvRo42LZifNW2U6TnHc5qb5JjtWUn3oPgAYhb5crJN50AhQehhgAdin+5sWvuNZT36be4ZGrnbP0KpBroi7rYBSsVXSGjd1Ru6dblode9SZiLw3092+MXRcOXFdnOhpevioOI7SMmsxs5ZYcYvF1ipTRlJt6EYAGKcBi6JzMt0r/hg6BMBLMcACsF/3phd/aYuiv2IUs38puerlmqSYvVZA+dkp86xka02+zmVrXb7W3R5Lmm3Ytt2fWLihfXvoyGJZ3bpkWiI3dITHNtM9nmmRNbqr0eRzJJsjaZZ2r/MDgErkkl3GEweB0sUAC8AB3ZVefPs2RWeH7iglCUn1e44HstcKqHjbTXrcpQ1uWh+5NrrbJrP46dj0tMXRpiiyp3PDuU210jOz16161hT+jSHb2DhhsGZqQ3J4eEqci6d6IpoauU9x86nuNjUyTXXZEXKfIekoSTPEHVQAqpjJPpHJrvy/oTsA7B8DLAAH5FJ0V/r47u2yxsApQe2916pOMW+eAA5kp6Ttkrbs+We7STtdelYylySXnnnui82e/8/7Yu5RLDtEkkw+UbLnHrJxqMktlh9ipnq51UuavOefRP7/bwFApfKbMtlVby6FDyAA7F8ydACA0mZS3JlILVyfG3psQDY5dE+xPb/XKhYb7QGM0MQ9/0x77g+evyLa/Z9eMAQ/yOWSS7IXfJG/6H/jkgsAxmFZ/UDN23knBUofNxEAGJEHmpbM3yp/cMit4gffSbnqFWuSYpa9AAAAVK51Sc+dnO7teCp0CICDY4AFYMSWN55wwdPmP81V4HtHJKlOsSbJNUFx6BwAAAAU1jNK2JktXSs7QocAGJmKuwgFUFj3pRd9eLMSn6mEe6xNUu2eoVUdRwQBAACqxWBkek1zT/vvQocAGDkGWABG7a70oq9sU+IvQ3eM1XN7reoVs+UYAACgusSSv7klu+rm0CEARocBFoAxuTO9+LYdipYGzhixpFwNcjUox14rAACAauX6m5be9i+EzgAwegywAIyJS3Zn05JVO11toVv2h71WAAAA2MvnWrLtHw4dAWBsWPkCYExM8ik9TcdP9PiJ0C17M0kTFGu6cjpaQ5quHMMrAACAquc3ZbLtV4euADB2DLAAjFmbbh6cGEVttYqfDd2SkjRFsY7WsI5UTg0sZQcAAMBudyix8zITn2oC5YwjhADG7e7GRY0DlnhkUJpQzNdNylUn1yTFqlElPBcRAAAAeeXqqIn9zDnrVj0TOgXA+DDAApAXy5qPX7LFdc+QW7KQr/PcXqt6xZoo500MAAAA+7NWCZ3R0tX+eOgQAOPHtR+AvFmeXnTu04r+OyfL6+k9k1S7Zxl7vWLeuAAAAHAwfTnpzHnZ9tWhQwDkB9eBAPLq/qbF79js9u18jJlSkiYpVoNiJTgiCAAAgJHZrNhe1rJ25fLQIQDyhwEWgLx7oGnxR57x6J/HMnJKSKpXzF4rAAAAjMWOWDpvbrb9D6FDAOQXAywABXFf46L/96wlPjiSrzXt3mvVoFh1DK0AAAAwNoMW+4WZtatuCR0CIP8YYAEomHvTi763RYm37WsktXuvlf/pbivejAAAADAOOcne0pJdeVPoEACFwTUjgIK6O338f22Vnf/cf0/puSOCORX0cYUAAACoFm7y92Syq74ZOgRA4TDAAlBwd6UX35GQzmxgrxUAAADyzKWrW7PtnwndAaCwGGABKIrO9IKvSnp/6A4AAABUDpN/PJNddU3oDgCFxwALQFG4ZF3pBd+U9M7QLQAAAKgE/vmW7KqrQlcAKI4odACA6mCSZ7Jz3yPph6FbAAAAUOZMX2B4BVQXBlgAisZ0c27zlNSlJv9V6BYAAACUJ5d/OdPT/qHQHQCKiyOEAIrusVmnTtyV2vZryZaGbgEAAEBZ+XYm2/5uE08GAqoNd2ABKLqjH797Z65m8HWS7gndAgAAgLLB8AqoYgywAAQxb/XqrTt26BWS3x66BQAAAKXNpe9nsu1XMLwCqhcDLADBLNzQvn3HDjtfpttCtwAAAKBU2c1PzJnyLpPi0CUAwmEHFoDgOtraGmp2JH4l6azQLQAAACgdbvpBS8/ct5puzoVuARAWd2AB+P/s3XmYXGWZ9/Hffaq7ExLWoCyh07V2OtAkoI0KghIRHARxGQmOiuvgPo7oKI7LzKCDjrjggiKC4ILK4I7ghqgZRAFfI6RDA52urqUJAYQAARLSS537/SNBAVlCd3U9p6q+n+vKJcJV5/kmhHT1Xc95TnD9Q0P3zx/vfKFLvw7dAgAAgGQw14W39Cx4DcMrABI7sAAkyPqFA/M2z5m82KUjQ7cAAAAgqK8WyoNv4bZBAA9iBxaAxFi4ftVmT21+kaRLQ7cAAAAgDDOdzfAKwCMxwAKQKL3F4rhSm4+XdEnoFgAAADTcZ/KlwbczvALwSAywACROb7E4PjGvdrykn4RuAQAAQIOYnd5bHnyvSR46BUDyMMACkEj9Q0MTE/NqK2T249AtAAAAmGVmp/eWVv976AwAycUh7gASbai/v6vrgY6L5P7S0C0AAACoP3d//+LKmk+G7gCQbOzAApBo/UNDE+t6dlsh6YLQLQAAAKir2OTvZHgFYHuwAwtAU3DJitlln5L0b6FbAAAAMGM1N3/T4tKar4UOAdAcGGABaCojmaXvl9knQncAAABg2sYttlcWqqt/FDoEQPNggAWg6Yzklr1drjPFbdAAAADNZmMsHddXHvxd6BAAzYUBFoCmtDa37JXm+oakztAtAAAA2C63K7YX9lZXXxs6BEDzYYAFoGmtzR14rHn8XUnzQrcAAADgcVUjsxfkS6vXhg4B0JwYYAFoamszy55lpp9JWhC6BQAAAI/qRqX0gt7i4LrQIQCaFwMsAE1vbebAA83iX0jaM3QLAAAAHuaaqYmJY/e95aYNoUMANDcOQAbQ9BZXrruuFusQuUZDtwAAAOBBflmta/wohlcA6oEdWABaxnD3AftEHf5LmfpDtwAAALQzM52dL/X9i+l7tdAtAFoDAywALeWmvr6dUhNzvivp6NAtAAAAbchl+mhvafDU0CEAWgu3EAJoKUuGh+9bl15wnMvOCd0CAADQZiZk/hqGVwBmAzuwALSstZll7zLTZ8WfdQAAALPtHnn0st7KdStDhwBoTXxTB6ClFbPLXuvSuZK6QrcAAAC0JNMtsdeO7SsPrQ6dAqB1McAC0PKK+WVHeKwfSNo1dAsAAECLWaOUjuktDq4LHQKgtXEGFoCWVxgd/I1SdpikaugWAACAVuGun9W6xg9leAWgERhgAWgLvcXVQx1eO1jSn0K3AAAANDuXnXNLZsFLlgwP3xe6BUB74BZCAG1l9Z7L5s+bp+9IenHoFgAAgCY0JfnJveU1XwodAqC9MMAC0HZcK1Ij2Zs+a7J3hm4BAABoIndZpBWF0cHfhA4B0H4YYAFoW2szy95lpk9L6gjdAgAAkHA3WVQ7rjA6VAwdAqA9McAC0NbWZpc+12Tfl/TU0C0AAABJZNLlnTU/IT225u7QLQDaF4e4A2hri8trrlAqPkTS9aFbAAAAksZl59yzoPMYhlcAQmMHFgBIuqmvb6fU5Nxvyv2loVsAAAASYFKmk3tLg2eFDgEAiQEWAPyVS1bMLD1FZh8XO1QBAED7utMivYLD2gEkCQMsAHiEtbkDXmQef1uynUO3AAAANJTpzylP/WOufG01dAoAPBQ7DADgERaXVl8amQ6TVArdAgAA0EAXzJ2YfxjDKwBJxA4sAHgMQ939C+Z0pi5y6cjQLQAAALNoSu4f7q2sOT10CAA8FgZYAPA4XCtSxdzaj8n9/aFbAAAAZsF6xX58b3XNVaFDAODxMMACgO2wNrf0DeZ2lqS5oVsAAADqwu0Pk95x/H7VVbeGTgGAJ8IZWACwHRaX1nzNPTpEsmLoFgAAgDo4a2L+1PMYXgFoFuzAAoAn4aa+vp1SE11fleyE0C0AAADTcL+b3ry4NHhh6BAAeDIYYAHANBSzS9/ssjMldYVuAQAA2E43KmUreourh0KHAMCTxQALAKZpNLf/QbFH35WUDd0CAADwBC7YvFlvO+D2wU2hQwBgOhhgAcAM3LjPkt075nRdINcLQ7cAAAA8ii0mf1ehvOac0CEAMBMMsABghlyykcyyfzXTpyV1hO4BAADYZm1K8Ypc+frB0CEAMFMMsACgTkYySw8304Uu2zt0CwAAaG/m+qFFnW/Ml1ZtDN0CAPXAAAsA6uiG9MDendHkhZIOD90CAADa0maTn1worzk3dAgA1FMUOgAAWsl+1VW3rksvOFLSxyXFoXsAAEBbuS52H2B4BaAVsQMLAGbJSHrpIYrsW5JyoVsAAEBLc5PO9NTmU3qLxfHQMQAwGxhgAcAsGs0N7BL71Jckf3XoFgAA0JL+4ha9cXHpup+GDgGA2cQACwAaYCS7dIVk50jaNXQLAABoFfarybjjdftVV90augQAZhsDLABokFL2aekp1b5l0mGhWwAAQFMbl/t/FSprPmWcuQmgTXCIOwA0SK58bfWW9ILnyfQRSVOhewAAQBMyvyFW7Vm9lTWnM7wC0E7YgQUAAazNLHuWmX1L8kLoFgAA0BTcZefuON7x7oXrV20OHQMAjcYACwACuamvb6doYu6nTf7m0C0AACC5TKq4R2/orVy3MnQLAITCAAsAAhvJLjte0lckLQjdAgAAEueCWtf4O5YMD98XOgQAQmKABQAJMJrr74k9OleyF4RuAQAA4Zn8VjOdlC+t+VnoFgBIAgZYAJAgI9mlKyQ7W+zGAgCgjdn3pibG37bvLTdtCF0CAEnBAAsAEmaksKxbsc6R64WhWwAAQENtMLd3FCqrLwodAgBJwwALABJq226sL0vaPXQLAACYdZfGk/bWvnWrbwkdAgBJxAALABKsnOnfazKKzjK3l4VuAQAAs+J2Sf/SWx78fugQAEgyBlgA0AS27cY6S9JTQrcAAIB64awrANheDLAAoEmUsvvvGXt0lpv+MXQLAACYPpMqLntLb3n1ZaFbAKBZMMACgCbDbiwAAJqWu+zcuGvLe5cMD98XOgYAmgkDLABoQqXs/nvWFH1e0itCtwAAgO1yo0XxSYXR6/8QOgQAmhEDLABoYsX0Ac/zyM+StCR0CwAAeFRbZDpd0eb/6S0Wx0PHAECzYoAFAE1uqL+/q2tT9G6ZnSppbugeAACwjem3cexv76usuSl0CgA0OwZYANAiivn+gsepL0r6h9AtAAC0udtMen+hPPjN0CEA0CoYYAFAixnJLjtO0lmSukO3AADQZmKXfTVlHafkS6s2ho4BgFbCAAsAWtBobmAX98mPuvQOSanQPQAAtIHr3PXWxZXBa0KHAEArYoAFAC1sOHvAMyP52ZKeFroFAIAWtdFk/5EvLz7L9L1a6BgAaFUMsACgxbkUjWaXnuTSpyTbOXQPAAAtwiV9K6X4fbny9beHjgGAVscACwDaxHD3AftEnTpd8leJP/8BAJg+tz9YKv7XwuiaVaFTAKBd8A0MALSZ0dz+B8UefU7SoaFbAABoMutN+kC+PHiBbd2BBQBoEAZYANCGXLJidunxJvukS5nQPQAAJNykSV+e6hr/8JLh4ftCxwBAO2KABQBtbP3CgXmbuibeKbMPSdopdA8AAAl0qVLxyb3F60dDhwBAO2OABQDQSGFZt2r2Cc7HAgBgK5cGpfi9i8vX/yp0CwCAb1IAAA/B+VgAgLZnusXcP5ovLznP9L1a6BwAwFYMsAAAD8P5WACANrVJZl+sdW75GOdcAUDyMMACADyq9QsH5m2aO3mKXO+VND90DwAAs2RKrnMtpVMLo4N/CR0DAHh0DLAAAI9rePHAU6KpqffK/WRJc0L3AABQLyZdbubvyZfWrAndAgB4fAzWySb1AAAgAElEQVSwAADbZW3P0pyl9BHJXiUpCt0DAMAM/NHl71tcXnNF6BAAwPZhgAUAeFJGep62n1LxqZIfL76OAACaifkNcp1aKK/5vkkeOgcAsP34xgMAMC1rM8ueZdLHZToidAsAAI/HpIrk/8OTBQGgeTHAAgDMyNrc0iPN7ROSBkK3AADwCOvc9Wnr2Hx2b7E4HjoGADB9DLAAADPmkhWzS4+X7DRJi0P3AADa3p1y//TcqR2/sGjdVQ+EjgEAzBwDLABA3fx2+fKO7updr5f0X5K6A+cAANrP3ZI+vXmzPn/A7YObQscAAOqHARYAoO6G+vu75mxO/ZPL/kPyQugeAEDL2yDTFzvi6HPZynX3hI4BANQfAywAwKz508BA5653Tb5S0gdd6gvdAwBoOXfK9KVInZ/Nl1ZtDB0DAJg9DLAAALPOpaiYXfpymU6V236hewAATe8Omc5StMMZvcVr7g0dAwCYfQywAAANs3WQtexYSf8p6aDQPQCApvMXuZ8xf6LrzIXrV20OHQMAaBwGWACAhnPJipmlL5bZh8UgCwDwxKoyfVLR5vN6i8Xx0DEAgMZjgAUACGo0d8BhcewfkemI0C0AgGRxaTCSPnPPgs4LD1q1ajJ0DwAgHAZYAIBEKOaXHRHH+qBJzw/dAgAIy6Vfm+yTveXVl4VuAQAkAwMsAECiDGf7DzB1vN3kr5U0N3QPAKBhYkk/c9dpiyuD14SOAQAkCwMsAEAilTP9e01FqbfK9U5JC0L3AABmzbik79akjy0pDw6HjgEAJBMDLABAot3U17dTarLrJLm9S1I6dA8AoG5uk9uX1RF9ubd47R2hYwAAycYACwDQFFyKitllx0r6oKSDQ/cAAKbJ9Gdz/0rK7/tmtlLZEjoHANAcGGABAJrOSGbp4Yqik+V+nKRU6B4AwBOakvyHFvnnC6PX/yF0DACg+TDAAgA0rZsWPW1hqrP2ZrneLumpoXsAAH9no0nfMKt9Jl8aGgsdAwBoXgywAABNb6RQmGO1ea9w6R2Snhm6BwCgNSY/c87kjt9atO6qB0LHAACaHwMsAEBLKeaXDsRx9GaTnyhpXugeAGgj45L9xC0+p7e05tcmeeggAEDrYIAFAGhJ5cyBu04qfl1kOtmlTOgeAGhhI3I/L+7qOq9v7ao7Q8cAAFoTAywAQEtzrUiN5Na+0KR/lvuLJHWEbgKAFjAh6UcW21fy1dUr2W0FAJhtDLAAAG2jnOnfayrqeL3c3yipN3QPADShkszONfPzC6ODfwkdAwBoHwywAABt6SFnZb1a0vzQPQCQYFsku4SzrQAAITHAAgC0tdHcwC7uE69ws7fI9fTQPQCQIKtMfs5U18SFS4aH7wsdAwBobwywAADYZjR34DNi99dJ/gpJTwndAwABrJP0zcjsG/nS6rWhYwAAeBADLAAAHmGov7+ra3PqaMlOlPw4SXNDNwHALHrATRdbbF8vVBZfbvpeLXQQAACPxAALAIDHsfUWw8mXSHqNS0dIikI3AUAd1CRdbfJvemre//YWr7k3dBAAAI+HARYAANtppLCs26f0cjO9XtKBoXsAYBpWueuCTtUuylaGbgsdAwDA9mKABQDANIzm9j8o9uifJB0vKR26BwAei0uDZnZhyqMLc+Vrq6F7AACYDgZYAADMgEs2kln2TDOtEMMsAMlxo8l+4Cn9b29x9VDoGAAAZooBFgAAdTRSOKBfsa+Q26slL4TuAdBGzG+Q7HtmfklhdM2q0DkAANQTAywAAGYJwywAs27b0KrmunBJeXA4dA4AALOFARYAALPMJSvl9h9wtxe77DhxADyA6atJutJdP4xS8Y8Ko9ffHDoIAIBGYIAFAECDjeb6e9yjo7cNs14gqSt0E4BE2yTptya/JOXxT3h6IACgHTHAAgAgoNV7Lps/b56OkLRC0nGSdg2cBCAZSi673OSXTsyr/bJ/aGgidBAAACExwAIAICH+NDDQudvdk8+N3Y+R6Wi57Re6CUDDTLp0hZn/NFLq0nzpupHQQQAAJAkDLAAAEqqU3X/Pmuy52nqr4bGSFoRuAlBX23ZZxZd3eOpX2cp194QOAgAgqRhgAQDQBFwrUqP5mw70mo40syNdOlxSZ+guAE/K/SZdHbsujV0/WVIdLIcOAgCgWTDAAgCgCQ119y/o6uw4UvKjJFsueSF0E4C/M2nS1bHsV3K/rLfS9yfT92qhowAAaEYMsAAAaAHlTP9eUxY9xxUdaRYfxvlZQBBTklbL7HK5/z6yzivypVUbQ0cBANAKGGABANCCbkgP7N0ZTRzmio40+ZGScqGbgBb014GVK758h4kdf79o3VUPhI4CAKAVMcACAKAN3JRelu0wPVeRH+Juz5bULykK3QU0mXskXe2yP7h8ZZTa/MfeYnE8dBQAAO2AARYAAG1oqL9/x7kPdBwYx/GhMjtM0iGSdg/dBSRMSdLv3bUqSvmV+dE115oUh44CAKAdMcACAAByKSoWDthXNT9E7s+W2cGS+sQuLbSPu9x1tcmucatdZan51/QWr7k3dBQAANiKARYAAHhUD+7SqsU+YKYBmQ/IrU9SKnQbMEMbJV1v0ipJqzxlqwrF1TeyuwoAgORigAUAALbbg0Mt93g/yfpdGpD0DEldoduAx3C3pBseMay6wSQPHQYAALYfAywAADAj6xcOzHtg7vh+NdlSc+uXfKlk+0taGLoNbeV+STdIWiPzIXe/vtN9TbYydFvoMAAAMHMMsAAAwKwYzQ3s4jZRUGz92rpTaz+XlkraM3AamtukpJsl3SDTKrkPKRXdwC2AAAC0NgZYAACgoao9S3eb7FTOY+Vk1i+3/STPSVoiaX7oPiSDyW+VbCiWlczjkkwlpaIb1nXvNvy8lSunQvcBAIDGYoAFAAASwaXopsyBPSmb6jXZYpMtdiknKSMpLWmnsIWosy0mVV1edUUVyYuR+4jHHWvVdd9ob7E4HjoQAAAkBwMsAADQFIa6+xd0pTrSZnE6lqUtUsblaZOl5UpL2j10Ix7mfrmqZl5xWdXdq5Giqsurk95Z3a+66tbQgQAAoHkwwAIAAC2hnMnMHa/ttqCja2pvj22hyfd2s4XutrfJF0ra2+QLXbaHpFTo3ia2RdJ6SbdKtt7kt7r7ejO7NTZfb1F0a208unvJzdeuDx0KAABaBwMsAADQVv40MNC5y8bJPVO1eEHNOxZ4FO8eue/uZru7a4G57y6zBSYtcPPd5bZA0o7bfrSS+yRtknSvpA3bftwltw1mviHe+r93Wmwboqi2YXIytaGrY+OGbKWyJWg1AABoSwywAAAAtlM5c+Cu4zWb19E1MU+KdvFaaqcoqs2LXfNN2s3d5kk+R5FFku0iSe6ekmxnSTKPO2TR1rO8TJ3m/qhDMTdNyu3+R6+Ix13R5q2X8PtkNiX3mtzvlSSzaLMUj8vtXjdtskibJN9oHt03ORnd39kZbcqXVm2s+y8OAAAAAAAAAAAAAAAAAAAAAAAAAAAAAAAAAAAAAAAAAAAAAAAAAAAAAAAAAAAAAAAAAAAAAAAAAAAAAAAAAAAAAAAAAAAAAAAAAAAAAAAAAAAAAAAAAAAAAAAAAAAAAAAAAAAAAAAAAAAAAAAAAAAAAAAAAAAAAAAAAAAAAAAAAAAAAAAAAAAAAAAAAAAAAAAAAAAAAAAAAAAAAAAAAAAAAAAAAAAAAAAAAAAAAAAAAAAAAAAAAAAAAAAAAAAAAAAAAAAAAAAAAAAAAAAAAAAAAAAAAAAAAAAAAAAAAAAAAAAAAAAAAAAAAAAAAAAAAAAAAAAAAAAAAAAAAAAAAAAAAAAAAAAAAAAAAAAAAAAAAAAAAAAAAAAAAAAAAAAAAAAAAAAAAAAAAAAAAAAAAAAAAAAAAAAAAAAAAAAAAAAAAAAAAAAAAAAAAAAAAAAAAAAAAAAAAAAAAAAAAAAAAAAAAAAAAAAAAAAAAAAAAAAAAAAAAAAAAAAAAAAAAAAAAAAAAAAAAAAAAAAAAAAAAAAAAAAAAAAAAAAAAAAAAAAAAAAAAAAAAAAAAAAAAAAAAAAAAAAAAAAAAAAAAAAAAAAAAAAAAAAAAAAAAAAAAAAAAAAAAAAAAAAAAAAAAAAAAAAAAAAAAAAAAAAAAAAAAAAAAAAAAAAAAAAAAAAAAAAAAAAAAAAAAAAAAAAAAAAAAAAAAAAAAAAAAAAAAAAAAAAAAAAAAAAAAAAAAAAAAAAAAAAAAAAAAAAAAAAAAAAAAAAAAAAAAAAAAAAAAAAAAAAAAAAAAAAAAAAAAAAAAAAAAAAAAAAAAAAAAAAAAAAAAAAAAAAAAAAAAAAAAAAAAAAAAAAAAAAAAAAAAAAAAAAAAAAAAAAAAAAAAAAAAAAAAAAAAAAAAAAAAAAAAAAAAAAAAAAAAAAAAAAAAAAAAAAAAAAAAAAAAAAAAAAAAAAAAAAAAAAAAAAAAAAAAAAAAAAAAAAAAAAAAAAAAAAAAAAAAAAAAAAAAAAAAAAAAAAAAAAAAAAAAAAAAAAAAAAAAAAAAAAAAAAAAAAAAAAAAAAAAAAAAAAAAAAAAAAAAAAAAAAAAAAAAAAAAAAAAAAAAAAAAAAAAAAAAAAAAAAAAAAAAAAAAAAAAAAAAAAAAAAAAAAAAAAAAAAAAAAAAAAAAAAAAAAAAAAAAAAAAAAAAAAAAAAAAAAAAAAAAAAAAAAAAAAAAAAAAAAAAAAAAAAAAAAAAAAAAAAAAAAAAAAAAAAAAAAAAAAAAAAAAAAAAAAAAAAAAAAAAAAAAAAAAAAAAAAAAAAAAAAAAAAAAAAAAAAAAAAAAAAAAAAAAAAAAAAAAAAAAAAAAAAAkFQWOqDFpfL5/EKf9LRFcbfcnmLuCzyKFkTyHSTJpd209S+2mOmBODY3xXe52V0mu8tcf4ndKjbHxorF4r1BfzYAAACPIZfL7ZKq1RbG6tjbPN7H5Ht7FC1w9ygy7SJte9+z7T2Pu+6X2aSke9x9Uq57I9mtsVulY15HdXh4+L7APyUAAJAgDLDqJJvN7plyP1ixDpTZ/i4tNSkvqaOOy9zlpiHFNmSRBj22Py4aW7R6pVZO1XENAACAx2PZbHZph9uAu+8v01K5lkraq87r3CVZxaRqLL8+kl2Tmhq/+qZbbtlQ53UAAEATYIA1TYVC4ak2GR/l8qMlHSopFyhlk6Q/mXR5LbZflG4u/VlSHKilqeR7sq+VNDd0RwgmPSBpi8keMGlLzWxzHMW3zJs379ahoaGJ0H1J1ZvOHRu77xO6A1IqpWvWlsurQ3c8qLcne1QsZRuxVmR250i19MNGrJUECxcunLdDx5wTG7nm3J3mfZ0/Cx+usKiQt9TUUS47Qq7lkp4aMGetpGskuzql2s+Hq9VywJYg+ru7F2yJOo+f7usj2fqRsdKl9WxqFdlsds+oppdM9/WWUqVYLl9Wz6Z6Kywq5N1qz5/+FaKh0bHR39evqP7yi/L7y+Jnh+5oFXFKV5fL5cFGrllIZ09yV9TINfHYFo2lz0/Cxpl67g5qeblcrsdqvsKkFZqsPcOViP+g5ks63KXDo8j/u5DO3iHpYnN9d2Ss/BtJtcB9iWWmMyTtHrojJJfLJZlcqVgav3+z59PZ20y6RVJV7oNyu67WodXlcrkaujc0N3+XSUeF7oDksU6RlJgBlpveYtLLG7KW3AuZzAuLlcovG7FeaLt0du4yKX2lkWtu2rTpu5LafoBV2KfQrY74BMlfKdUOck/M556Lt/7w19QUqZDO/dnlP4wU/3CkWr0xdFwjbLE5C83iaf934Yp/I4kB1qOI4ig/k19bxfZjSYkeYHlq6iBzm/bP0RSfKSnRA6zIas93s8+F7mgVUaz3SmroAEvSWWbqbPCaeAxrF679ltaLAVbSdXd37zCno+MEc3uTav5sJX/X2lMlneSmkwrp7F8kXZCKdO5wuTwcOgxNwUzaW1t/HCSzl8ukVCwV0tm7TX6Vm36lOL6sODZ2Q+hYoE2ZYjs3l8stLZVKG0PHoOVYLp17ocnfLdWOUDI+rHsC/nSTnu6KTiukcze4/DvWmTqnWCzeEboMAADUDwOsx5DL5XqiWnyyZK+XbztovfnsIenfarHeU0jnVprrjJGx0k8leegwNKXdXHaMXMfIUiqks+sk/cIVf2e0Wv0/cesq0DimRVEtPkPSP4dOQWvo7+/vGr//gRMl/Zvk+4XumT7fz6TTNFn7cCGdudBMXxipVK4LXQUAAGauCT5Va6xCT89+hXT2m1HNi5K9W2ra4dVDmeTPc/NLCunMmkJP9jWSUqGj0PS6JZ1kin5TSGfLvensaX3ZbF/oKKB92Btz6dwxoSvQ/AqLsi8ev2/z9ZKf19zDq4eZK9kb3O3aQjq7sjedOzZ0EAAAmBkGWNvk8/lFhXTmfFlqUNJrpFa939b6ZfpmIZ1ZXViUfXHoGrSMHpc+VIt1YyGd+1muJ3dY6CCgHUTSOZlMZtfQHWhOhZ5Cfz6d/ZUiXSxTb+ieWXS4yy8tpLMrF2ezzwwdAwAApqftB1jd3d075NPZj9pUvFayN6htdiZZvyJdXEhnf1vo6WmVT1sRnkn+wsj8d/lM9op8JnN06CCgtfk+nTGH1OJJs96ezLtktT+ZdGTomAY6PI51dSGT/W6+O18IHQMAAJ6cth5g5dK5Y+amOq836T8kzQ3dE8hyWeq6fCZ3end39w6hY9A6zPUcc/t5Pp39FbcWArPHTa8r9GSPC92B5pDP5/foTWcu3fZ0rnZ872NyrbBUfEMhk/tEJpNpx18DAACaUlsOsAqFws6FdOb8SP5TSbnQPQnQae6nzE11/jm3KHdQ6Bi0FpOOrMUaLPRkPr5w4cJ5oXuAVuSmr/R3dy8I3YFkyy/K729T8SqXcXaa1Cn396fcruO2dwAAmkPbDbByPbnDfLK2etvtgni4JVHkV+XT2Q+pDX9vYFZ1yewDO3TOGSpkMgeHjgFajUl7j6c6Px+6A8lVyGQOtyj+nbY+gAPbmNQXmf9fIZ09s/+p/TuG7gEAAI+tnYYUVkjn3hOZ/8akTOiYBOsw6bTedOYSPs1HvZmUkdsVhUzu3Vv/L4A6OrGQybwkdASSp7Ao+2K5/VISB/4/ukjSv2yZt3lNbybzrNAxAADg0bXFAGvhwoXzCpnsRZJ/Ri37dMH6ctkx46nOPxV6Cv2hW9ByOuV+RiGd+yFPTwPqzO3sJfvss3voDCRHvid/qCL9r6Q5oVuSzqSM8yELAACJ1fIDrGw2u+e8zjm/kWtF6JYmlJXVrsyn80eEDkEr8pd2uK3MZrN7hi4BWshekx2dZ4aOQDL0ptP7msU/kRTyIS33SLpDUukhP27f9veTqOvBD1l6enp2Cx0DAAD+piN0wGzKded6o9h/KSkbuqWJ7WqKf57PZF43Wqn8b+gYtJwDUrGuyOVyR5VKpbHQMUArMNkre9O5749USz8M3YJwcrncLl7zn0pqxHEAGyT9PzcbtNivd4tG4yi+JZVK3VYsFscf74WZTGbuXGmviTjKmzxvkeXkXpD0LAU9r8tf2mmpA7PZ7MHlcvn2cB0AAOBBLTvA6k2n943lv5a0d+iWFtBlbt/KZzJzRiuVb4SOQctZHNX8d9uGWGtDxwCtwOVfXrxw8RVr16+9M3QLwohq/kXN5gd4rj+a/AdufnmxWr1OUjydy1QqlS2SKtt+/Pqh/2xJJpOZjO25ZnqOpKMkpWcW/eSY/LflcoXhFQAACdGSA6xcd26pyy83aY/QLS0kZW7nF9LZjmK1fF7oGLScnqjmv8jn8wePjo7+JXQM0AL2iLsmvyTpFaFD0Hj5TOYVcp04C5e+V2ZfjiOd34gPHG6qVCraOtj6piTL9eQOjcxfKekESU+Z3dX9D+rseNvsrgEgqVw6bdJrZ4TuSIooih5o9JoTXmuKY0a6LFWRtPM0Xz4+4bWm2HCzfv36hv8eeDQtN8Ba3NOTq5n/UgyvZkMk6Su96dw9I9XSD0LHoOVkbar2o0wm8/xtn8gDmAnXCYWe7PeLY+XvhU5B4/R3dy8YdzurzpfdZNInaik7s1QqbazztbeXl8ZKV0q6cmBg4OR7Nmw41tzeK+nQ+q+km6civbzyBLc/AmhpW8bGxu4OHdHOmuXXv5DO+kxe3yw/z6RoqUPcM5nMXrFFlxm3Dc6mlMu/nevJPT90CFqRPbvDdZ54+hNQH6Yv5fN5PtBpIxOpzg+orude2Y+9I9p3pFo+LeDw6mFWrVo1OVqp/LhYLR8Wuz1H0qWSZvQNxENslsUvrVQqt9XpegAAoE5aZoDV3d29Q4fbJZLlQ7e0gTmR+fcXZzJLQoegFdmrCpncyaErgBbxVJuK670bBwmVy+V6XPqXOl1uwqV3Fqull42Ojt5cp2vWXWmsdGWxWj5Oigck/d8ML+du/sZitfrnerQBAID6apUBls3t6PyGpINCh7SRXePYfsIjpjEr3D+Wy+UWh84AWsTL85nMP4WOwOyLav4fkubW4VL3yfwFo9XyF+twrYYoVqvXFqvl5XK9QtK0nmpr0sdHK5WL6pwGAADqpCUGWL3p7IflWhG6o+2Yerss9R21yO8jJMoOUc3PF7+3gLowtzOz2WxTHIaK6clkMrtKenUdLnWvmR9VrFRmupspiOJY+bubJ8f3lfRxSVPb/ULXxSPV8n/OWhgAAJixpv/mMJ9OP8+l/wrd0caO7u3JvDd0BFrSoYU0txICdfKUVGxnh47A7EnF9hpJO8zwMrFcJ45UKtfUoymU9evXby5Wyx+S+XMkbc/TEq9P7dD1GknxLKcBAIAZaOoBVj6f38MUfUtSKnRLO3Oz0wqZzMGhO9CK/NTFCxfP8qPSgXbhLy2kc/XYoYMEMtObZ3oNlz5eHCtfUo+eJChWKldvnhx/mqSz9NiHvN+ZUvzi4eHh+xqYBgAApqGpB1g2GZ8jaWHoDqhTbt/o7u6e6Se/wCPtVOuael/oCKB1+Bf2Tad5Um+LKfT07Cdp/5ldxYesM3VaXYISZNturHfI9RJJ9zziH0+64hOGq9VyiDYAAPDkNO0Aq9CTfY1MLwndgb9aPDfV+d+hI9B6zP0dnN0D1M2CSUXnhI5AfZmio2Z6DZe/r1gsjtejJ4mKY+VLvBY9w6TBv/1dO3m0Wv1tuCoAAPBkNOUAa990em+ZPhe6A3/n5MXZ7DNDR6DlzE/V7N9DRwAt5EX5nuxrQ0egftzsyJm83kz/b7Ra/Xm9epJqdN1ocdPk+CGSvu1uZxerpbNCNwEAgO3XETpgOiYVfVLSgtAd0zTu0q0m3S9pk0v32dZDV3eUtJOkPbb9dTNKueuLkg4WB6Ginszf1NfX95+cUQLUh5k+17do0eXDN9+8PnQLZmZgYKBz4513LZ/ZVezLdYlpAuvXr98s6URxfioAAE2n6QZYuZ7cYZI3yyG04yZd6dJv5FrjcXTj6LrRsqTa472osE+h21K1fSXfz82eI+lISbs0pHiG3PWMQjr7xmK1/NXQLWgp8+PxyeMlfS10CNAidpuKOs6R9KLQIZiZ+zZsyEs2kw++HvCO6Ad1C2oej/teDAAAJE+zDbCiyPwLkix0yOOYlOlHFtsFO4xv+u3g7bdverIXKN5SXCdpnaRfSfr8ci3vuCVbfXbs9o/m/jpJu9Y7us4+1tfXdxG7ZR7B9UeXzgudIWlOZNollnaOTLu42yLJl0hKK8G3FXvsr1f7DbA2yIxh8KMxvyZ0QrMz6djeTOb1I5XK10O3YPpq0pKZvCky6Q8jxeK9dQsCAACYJU01wCqkc6+U/GmhOx7DHSZ9YdL8q5VK5bZ6XnilVk6prCskXbFszz0/tGnOvFeZ6V814ycOzZo9ag+Mv1vSR0OHJIp5cbRaSezhyf3d3QvGo85DZTpa0j9K2it008OYnrO4pye3dmysFDqlge4oVkqc/4VZ426fLexTuHzbBydoQqZoieTTfr27X1HHHAAAgFmT2N0Wj9Tf398leRIHIltkdnqcst6Ravm0eg+vHmnw9ts3jY6Vzy1WywdKepOkWV1v2szes2SffXYPnYHtN7Ru3V3FsfIlxWr5HcVqudvNX2bSlaG7HsLcUq8KHQG0mF3VUTtXyd7ZjMfhsfpm8nqzaKheLQAAALOpaQZY45se+GdJudAdD+e/6TDft1gp/XupVNrY4MVrxWr5q6m5XYsl/6xm8vHr7NhlKtX5b6EjMG210UrlxyPV8nNk/lJJ5dBBkuRbz4MDUF9HF9LZN4aOwPRY5DP6sMgiL9arBQAAYDY1xQBruZZ3uPspoTseYsqlDxerlaNuqlQqIUOGh4fvK1Yr73HzYyT9JWTL3zF7W19f306hMzAzxUrlYnWmDpTrotAtkg7u7u7eIXQE0ILOyOVyPaEjMA0+owPcVYuiu+qVAgAAMJuaYoC1Lj32CpMyoTu2udsiPX+0Wv6YpDh0zINGK5VfTJkfIPkfQrc8xK5TWybeEjoCM1csFu8tjpVf6dKnAqfM6Yq6nh24AWhFO0exf1XcStiEfEYfFE1OTt5frxIAAIDZ1BQDLFNidl/dVou0fKRcTuSBp5VK5bbNkxNHSfbz0C0PMuldy7W8qR4WgMfko9XyKe52dsiIyPyIkOsDLct1VL4n+6bQGXjSZrQDa6c4ZmgJAACaQuIHWL3Z7HNdWha6Q9KY16LnlMvlwdAhj2f9+vWb5+y4w0sTcruXJHXfnKm8KHQE6mfRWM87JV0VrsAOCbc20NrM9OlsNpsO3YHGiVOpOaEbAAAAtkfiB1hx7G8N3SDpXo+jY0fXjTbFQadDQ0MT3WPpE+X6ZegWSbLYkvDvEHWyUiunTPE/S5oIlLA40LpAO9ipI9Z54lbCZrJlJi+edN+tXiEAAACzKdEDrHw+v4fJXh44o+aK/2n05tHrA3c8KSu1ckpdqRNkWhO6Raaj+tLpbOgM1M9ItXqju50fZnVfuGzPPeeHWRDm0sIAACAASURBVBtofS49v5DJ8cFD85jRAMuU2qdeIQAAALMp0QMsq9VeJakrZINL7x+tVhNzptSTUSwW740je5GkOwKnRLGiVwduQJ11WO2TCvMgA9syb14hwLpA+3D/JB88NAvfPKNXm/XWqwQAAGA2JXqAJbcTQy5v0pWj1fJnQzbMVKlUGpN58EN5XWKA1WKGq9WyXFeGWDuuiW+4gNm1Y03RBUr6+wRI0m0ze3k8UJ8MAACA2ZXYN6Z92WyfpJBvqu6LFL9WYXaY1FWxUrnYXN8InLGkkE4/PXAD6szkPwyyromdIcDsOzSfzr49dAQen8tumdkVbHldQgAAAGZZYgdYcawTwhbYvw9Xq+WwDfVT67B3SVoXtiIKfZ4Z6szNrwixbiztHGJdoN2Y9InCokI+dAceW+Q+06/tud5M5sC6xAAAAMyixA6wXHpJwLWHu6s954RafzaUSqWNcn0waITpuKDro+6K1eqgAjyN0Nx2bPSaQJuaL6udrwS/X2h3NYtm/IRkdwt+1AAAAMATSeQb0nw+v0hSsNvNItmHVmrlVKj1Z0txrPxtSdcGC3At5VDgllOTq9rwVc0ZYAGNYnpub0/mnaEz8Ohii/9ch8u8Pp/P71GH6wAAAMyaRA6wbMqPk2RBFnf9caRaCnKuTwPEkdspIQOmFB0bcn3MArOG35pqYgcW0Ehu9vFcd46HJyRQpVK5TTM+B0vzNOmn1yUIAABgliRygCXpqFALm9knJXmo9Wfb2rHS5aYwT46TpEh2RKi1MVt8U8NXFDuwgAabF6X8a0ru+4a2ZtIfZ3wN89f19mSDvf8CAAB4Ikl8I5qS/PBAa6/bp9pzcaC1G8ZdXwi29tZ/t0n8fYfpMj0QYM2WHTIDCXZoIZ07OXQE/p5Ll9bhMuam72Sz2XQdrgUAAFB3iRsk5BblniZptxBru3R2K5599UjdY+kfyXVzoOUXFNJpnnbUWuY0ekF3v7/RawKQJD+tL5vtC12Bh6tF/lNJcR0u9ZRUrEsLhcJT63AtAACAukrcAMuiYLuvptQRnRto7YZaqZVTiuysUOu7omeHWhv1Z675DV9T1vDbFgFIknaoxfqapFToEPxNuVy+3U2/r9Pl9tdU7dcMsQAAQNIkb4BlelaIdV1aOTo6+pcQawcxGX1Lgc76MumZIdbF7HD5Xg1f0xhgod3N+NDumTikN519T8D18Sgit7PrdjHXUk3Wri70FPrrdk0AAIAZStwASx5mgGVmrfrkwUdVvKW4TvKrQqztDLBajPU0fEVv/MHxQLL4qUFXlz7am07vG7IBD9e14w7fd+nWOl4yJ6td1ZvOvbyO1wQAAJi2RA2w9k2n95bU8G+GJcWdXvtxgHXDMn0vzLJanMlkdg2xNuprSSaTkbRTgKUZYKGtxSm7TKZfBUyY64q4lTBBhoaGJiR9qc6X3cnl38/35L5WKBR2rvO1AQAAnpREDbDGlXpaoKX/eGO1Ws9PLZuCp1I/UJjbCC2Ko/0DrIs6m4otyG46M18fYl0gKTqmpjoi0/sk1QJmPKvQk3lvwPXxCA9Mjn9W0rp6X9fMX6/J2mAhk3lJva8NAACwvTpCBzxUSt4f5FAm99+GWDa00dHRmwvpzA2SNfyMi1QU90u6stHros7M/0GyAOtaqfGLBrEon86G3GXzhEy6vVgtnxi6o91MxR2p0lhpdW86e5ZL7wwWYvaRQk/h0uJYcShYA/5q/fr1mws92Q/IdMEsXD4ttx/3pjM/i2upd42uGy3OwhoAAACPKVEDLDftH2I/UGxROw9SrpDU+ENavfFDM9TXwMBA58Y77zouxNo+kWqXAdZ8k44MHfEEqqED2lEqVeuQJO9MfViTtZdLWhgoZY5Fta8t1/Jnr9TKqUANeIjiWPnbvens6116/mxc32XHWCo+qpDOntup+LR23MEOAADCSNQthPIAgxQpji3+Q4B1E8FNVwRaer9A66JONt559wmSQjxmfUvxliK3EKKt1WqpDkkqFov3unnQJwK66xnr0tVTQjbgYTyKp14r6Y5ZXKNT0tsnFRXzmdzp284wBQAAmFXJGmBJvQHWXFOpVO4JsG4idNRqQQZYLuVCrIu6SZk81DesZUlxoLWBREh1xH89PH20UrlIrstC9kj6z1x3bmngBmwzfPPN683tjZr9cy7nmfspk4rKhXTm/PyiPOdbAgCAWZOYAdaSffbZXVLDn3Djbtc2es0kGb755vUKcwvQouVanqhbWLH9CuncW1xaFmZ1Gw6zLpActVr0sD8/I9XeprBP55wTpfT1gYGBzoANeIiRsdKlkjXqkP05kr3Boniw0JP9RW9P9qgGrQsAANpIYgZYE9GcIDtyIsU3hlg3SUwe4vDdjmq2uk+AdTFDfdlsn+SfCLW+y38fam0gKVKpv+3AkqS1Y2Mlmf1HqJ6t/Okb79jwgbANeKhitXSGS59q4JIm0z+46bLedHZ1vif75kwmM7eB6wMAgBaWmAFWZJ4Nsa673RRi3SSJZUGeHpVyz4RYF9OXyWT2qtV0iaSdQjVE5r8LtTaQFHGc+rsdrMVK6QuSrgmQ8zdmH1qczR4QtAEPM1otv1/yLzd6XZeWmekrHW7VQjr7mUJPgYe3AACAGUnMAEuRB3mCUuzW9juwIvMbQqzr0l4h1sX0LMlkMh0e/VoW5Ky6B23aeffd/xxwfSARokfswNqm5nF0kqSJRvc8RFcccythwnixWnm7zD4SaP09JL1HVru+0JO9pjeTeWsul9slUAsAAGhiyTmDKNaesoavOtmzrqdcUqnhCydJrRYNRdFsn/P696KYAVazKGQyL5lyO0/y3UN2uHTVqlWrJkM2AEkQx9Gjfv0evXn0+kJP5uMyO7XBSQ914MYNd39IUl0aHjDzjsZ/iWo5xUrp1N5M5jZ3+4K2PkWw8UzPdLdnRjU/o5DO/sAVfW20OrpSPJgjANuj0JNdEboiiUxxH3/kAEAyJWaA5Yr2sll/WM7fuX2lVk41etGkieZEFU3WGr6uS3s2fFE8KflF+f2jyD/q7i8L3SJJJv02dAOQBJE/6g4sSdKcneb/z/j9m4+XFO6JcO4fLKTTFxer1Rk/KKWjo6MW4mtUKxqpVM7O9+TXmPlFkoc8h3IHSSea4hML6WxZ7t+opezr5XI5xENl2tX+Mn03dEQSMbyCJJnrBYVMLtiRGY/HpNUjldKFoTuAEBIzwDILMsy4PcCaiVMsFjcU0tlJNfoTWbM9Groetkt3d/cOczo6XmwevU6Kj3YF2Bv56NxrEW+2AUmxxY/59XtoaGiiN5M5yd1+L+kxB12zrNMUfb2/v/8ZQ0NDM7qlcc6WLbXxFHck1svo2OjvC4XC0zRV+7b+f3v3HidnWd5//Hs9s5uEEKCCEJTNzulJOETjIVZbT0Wt1bZqLfXQVitEsaLWVi1UPFA80qC1tmhtVRT7Q/yJgi+KWsVjaIsHZEXBYLL7zMwzs+tCOBkg2Rx257n6B0GDBLKH2bmf2f28Xy9evHKY+/pmlsPs9dz3dbvycFtgWWbvLGT6+7hYudrdP33ononLb9i2LeStmgAWO9PT5f700DEOzD4niQYWFqXcNLAkf1jXK0q3dLtmTmWS3dr1p7Gmw7taDw9QrVaPKWTZI7K2jjfTOpeeIum35FqWw2eQP6iN1ZLQIYA8iLzwkI2pkTT9QVwsXSDZm7qV6de5tG73jolzJM3pdsRdS5a0o3bu/nvU05IkuU3Sc+Ni+bWS/kEBL+bYTyT5M8z0jIllyz8SF0uXRZldNDza4OIOAAAgKVcNLDu8298wm5wdWL/kN0vqbgMrW2wNLHtBXCzXQqeQdITuvcDhcE1lhUySLIftqgf6TOgAQF5k0YPvwLrPxOTedyzvX/ICyardyHQgJp1dHaxeUWvVhma7xoqdO6cmli3vZCzcK0uajX8tl8tfLrT1MZmeEzrQfg6TbEMWaUNcrNzk8n/zgl1cr9fvCh0MAACEk6MGlne/mWHRbV2vmV/d341mnocnvt20Yt9fmLlJ9Rc4PgjsE3l00KOB4+PjE6vL5Vd6pu8o3K3DfWbZp+M4fkKSJHtms8DdhxzSZoj7/Nk3d+q51VLppXLbaFIpdKb785NM+rC1fWNcLH9Wyv6tE7PVAABA7wn1gfZAut/AyrKJrtfMr+4/1TRbbA0szJbri/uOvACQ5O7Tmm010mj8t+69dS6kR2nv1LmzffFRRx3FBPcuqKXppW3zE2X2Nkn3hM5zAIdKerUU/Sgulr+zulj5Q+VnRiMAAOiCPDWwlnW7oEm7u10zx7r+XrhrSbdroidl7tF7Q4cA8sQim/Zw9omp3W+XNDyPcQ7O7Kw15fITZ/PSoaEhGlhdkqbp7iSt/0M70mo3+xdJu0JnehAnu/zLcbF04+pSZUMcx0tDBwIAAPMvTw2sEMcZZ3WcYYHqegPLun3rIXrVF2ujtZ+GDgHkiWc+7f9njo+PT7iiDZJCNoL6sswuKpVKs3lYlaknxvQtHI1GY1strb9xyrwi+Yck5XTHuq11909pMqvFpcpr165dy4MxAAAWsLw0sAoKkSWigbWf7u9GcxpYOChvR3pP6BBA3lg0vSOE96k1a9816UPzlWd6/KSConfN8sXswgogTdNbkmb65nakiszOl/SL0JkOzI+T+0f37JgYjovlV52sk3M04xUAAHRKLhpYcRyH+qDBEcJ9QhyndMvTJQLII5d/rtFo3BA6B5A37tM/QnifSfNzJP1sHuJMm7n/bVwq/dYsXkoDK6BGo7EtSetnL989sUrSX0lKQmd6EEVJF44NNm+KV5VfEDoMAADorFw0sHbv3h0kh3uUiz9/HrhZ1785MI6E4KHdkUX2ptAhgDxy14wbWGma7o4inSZpqvOJpq0gt4sGBgYOmeHraGDlwA3btu1Mmo1/TZqN42X+Qrm+rnuPeOaLabUi/Wc8WP7amlLphNBxAABAZ+SigbNy5cpQH6a7Pjg+x0IMQJ0MUBO9wvXGRqOxLXQMII9mMsR9f8ONxrVy/0Cn88zQCcsK/TM9GkwDK1+yJE3/M2k1nqOssGbf8cJbQ4d6ANNzMrcbVhfLH5hF0xQAAORMLhpYQ0NDNLAC8yDvhYfcBYAcc+krSavxmdA5gLyayRD3B1jS9y5JoS9GeGO1WH3yDH4/DaycSkaTWpLWz166YvkqN/9Tua5Svr5e/S6dubTQf/3qUulJocMAAIDZy0UDS/ceJet+M8OC7DrKpyzEe2HswMIDuHRzoT35mtA5gDyb6RD3/SVJssc9Ok2BjxKaspkcJcxTQwQHsHnz5r21NL00aTWeG7Uni3I/W7KbQue6j0nHu9s18WDpvPXr13OJDAAAPShPQ7Qn1f087MD6lRDvBUP08esmPLM/Gh4b+3noIECezWaI+/5qrdpQtVj+B5PO6VSmWViz7yjhmdP4vTSwesi+/4afL+n8yqrKb0aRnyrpzyU9LGwyFWT21u133PnUUqn0kjRNbwmcJ6TvRd5+eegQeZSp8HiZvhA6B4LbpZx+r+LynaEzAKHkqYG1Q1J35xN4dlhX6+WYybs/G8J1d9drIs9crlPro/Ufhg4C5F3ks9+BdZ9lK5a/d8+OiRdIekwHIs3WGyurKpce7N97l9rWrUToqH1f2x+WSqUz+z06RfJXuvQMBTwFYK6n9Sm6bnWp9CcjafqDUDnC8l3DrVY9dIo8qharx1oO7yZAd7n0vlqz8b7QOQDcX16OEEryrjczTNEjul0zt8yP7n5NGljYj9nbklbjstAxgF7gZnN+ALV58+a9UaRTJe3tQKTZKhQiv/BgR7qMHVg9L03T3SPN+mdHmo3fLSiLZfZuSa1wifw4d7u6Wiz+cbgMAABgJnLUwLJ7ul3R5cd2u2Z+RSHei7sC1ET+uNzPTtL6xtBBgF5h0px3YEnScKPxE7kHfcLs0rq7b7/zLQf5bTSwFpCtzWYjSevnJs1GOXJ7tqSLJU0EiLLUFH2hWiqdGqA2AACYoRw1sII0M2hg/ZIfE6AoDSy03fWapJWeHzoI0Evc5jYDa38DrdJ5koY6td5suPSO1cXiiQ/xO7i1dmHKhlv1bybNxivakSouvVfSnV3OUDC3T60uVTZ0uS4AAJihPM3Aui1ATY4QSlq/fn3/XbffeVTXC7tv63pN5MkeuV5RazU+HzpIjm1Jmo2H+KYemLtN2jRVzaqnWZRdJwW7nXepyy6U9DTpQMNnjB1YC1yj0dgm6Zx1K1du3Ll0+SvN9CZJ5S6Vj9z943GpNJ6k6VVdqgkAAGYoTzuwQjQzjiiVSr8RoG6ubN++/VhJXZ+P67LFfPvPoubSVjP/rYTmFZALtdHaT2X2rrAp7MnVwfLrH+TX2IG1SNywbdvOWqvx4aTZWC3XSyVd16XSfXL7fGWg8ugu1QMAADOUmwaWhWlgqeCFk0LUzZPCpB8foq65aGAtQu726UN3T6wfSdMfh84C4FcG0sEPyHVtyAxmel+lUhl84C84O7AWn3bSanw+aTZ+05U9U9I1Xah5eFTw/4zj+PAu1AIAADOUmwZW5mEaWKZs0Tew2vIgR5Qy2c0h6iIMl2528z+rteobbti2bWfoPADub5M2TZllp0naHTDGYVHbP/aAn3WxA2sRqzWb30majacq0x9Jvnmey5U12f6nea4BAABmITcNLIu8GaayL/oGllmYBlZfu68Roi66bo/cN/YtW3J8LU0/FzoMgAc30mz+zKVzAsd4brVUeumv/Rw7sKBktHFl0kwf49IbJG2fx1KvigfLz5/H9QEAwCzkpoGVRVGYZobbom9gSRaigXXP8Pjw7QHqonsySZcrK6xNWulbt27dek/oQAAOrtZsfEjy74bMYG7/9GvHuNiBhfu0a83GR6buffh2yXwVcdMFcRyHutQAAAAcQG4aWFEUNXXAm4fmmemJytH7EIBJWhegKLuvFq4Jd/v3rGAnJs3Gi5LRpBY6EIAZaWeFaIOkiYAZHulT7ffs92N2YOF+0jS9JWk2Xi7XiyXd0en1TSrZ3qkzOr0uAACYvdw0bpIk2SPXzwOUftjqUqnrDZy8iAfjkyQd2e26mTzpdk3MN6+ZdE402V+steqvrdfrw6ETAZider0+LPO3h8xgrtfHxeLj9/2QHVg4oKTVuKyQTa1z0/90em03e/vao9eu6PS6AABgdnLTwJIkRdoSpG6mpwepmwMWTT0tSF2LbgxRFx035qYLMrenJc109Uiz8V6OhgILQ5KmF0i6OmCEghR9RJJJ3EKIB7d1dHR8VVp8pqSPdHjpo/ceuvNlHV4TAADMUl/oAPeT2WaZP7v7ZfU7ki7odt08cLenBCmc+U1B6mKu7jb5/8p1tRVs03Cj8UNJHjoUgHmRKSu8SlH7J5IODZTht6vF4gvlNiULlAA9YZM2TampN8TF8s2S3tepdd3tNZIeeDMmAADounw1sGzer0Y+cFnZyevXr+8fGhqaDFE/sEC7z9o/DVMXM3CHXJtddpPMN3tm36+P1q8Xs2iARSMZTWpxsfwWdX5ny7SZR+e7qUn/CtORNBvnrR4sTbnZ+R1a8nGVVZUn1Efr13VoPQAAMEu5amCZ+Y3uQT6iHnnXHXc8U9JVIYqHsm+2yGCA0jsHWpXhRK0ApYPaIenWwBkmJO2RfI/LJiTtMfmtJhuX+60uuzmT3ZxFWZKm6S2BswLIgaTZ+GhcLJ0i2TODBDCtNqkUpDZ60kgrff/qYvlol87sxHqRZadIooEFAEBguWpgTUo/6ZP2SlrS9eJuL9Yia2BJ0Z+EqOqmH23SpkU4kNevTJopszQA9BrvM71qynWDpMMCZegPVBc9aqTZODsuVtZK/vtzXszsuZLeNvdUAABgLnI1xD1N092SbghU/oUn6+RcNfS64JQgVV3fD1IXADArW9I0NfOzQucAZqAdTfa9QtJtHVjrsScWi4/owDoAAGAOctXA2ufaQHWPGhtszv0pXY+oDFQeLemEELXNg32NAQCzNJKmH5fr66FzANM1PD58u1x/24GlbNKjMJfeAACAX8phA8u+G6x0pDcEq91lUcHPCFTavT/670C1AQCz594fnS7prtBBgOlKWo3PWAd297vpMZ3IAwAAZi93DaxCNvmdYMVdvxsPDp4UrH6XxHF8uKS/CFLc9NNarRZ6kDkAYBZqtdqoZG8OnQOYAXfXe+e6iNHAAgAguNw1sLaOjo5L2hKovLn6/jpQ7a7xve1TFWgQr8u+HaIuAKAzkmb9Uyb/r9A5gOk64ugjr9BcZ2G5HtWZNAAAYLZy18DaJ1iTw8xPLZfLxVD159v69ev7zfxvQtWPMn0zVG0AQGdYe+ovJf0idA5gOoaGhiYlfWGOyxwnyToQBwAAzFIuG1gmC/lkd1khm/tW87zafvudr5GsGqj8xM6p3ezAAoAeNzw29nN3vTF0DmDazOd6AcGSOI4f3pEsAABgVnLZwPL+6JuS7gkY4WXVwer6gPXnxdqj164w6e3hEtjXx8fHJ8LVBwB0Sq3V+H8u/2LoHMB0LJ2a+h9J2VzWiNrtR3YoDgAAmIVcNrCSJNljspBHzcyU/ZNy+v7M1p5Dd50p6diAEb4UsDYAoMPaptdLuiN0DuBgNo+N3SlpbC5rtLPsyA7FAQAAs5DbBo174Ke6pqfHpUqwWVGdVhmoPFruZweMsHdpe+8VAesDADosTdNbzOwNoXMA09SY4+uXdSQFAACYldw2sJbuWn6FpLDHzdzPiwcHTwqaoQPWr1/fHxX8PyQtDRbC9dV9Tz8BAAvISFr//5IuD50DODj/+RwXoIEFAEBAuW1gbb5t8w6TXRk4xjJZ4TOPfOQjlwfOMSfbb7/z7yU9LnCMzwSuDwCYJ94XvU7SbaFzAA/FzHbM5fWRFWhgAQAQUG4bWJIk1yWhI0h63CH9Sy5W3t+rBxEPll8cdnC7JOn2qci/HDgDAGCe1Gq1W+V6XegcwEPJZLvm8nrPvN2pLAAAYOZy3ZQZadW/KqkZOofJTqkWyxtD55ip6mB1vUyflmQhc7h0UZqmu0NmAADMr6TVuEyuS0PnAB5UNrdRCh753Z2KAgAAZi7XDSxJbZMuDB1Ckkw6Ky5V3ho6x3TFg4MnmWVfkRT6+GNmWeFjgTMAALogmur/K0nbQucADsTMV8zl9Z5FczqCCAAA5ibvDSz1KfukpMnQOSRJ7udVi+X3K/COpoOprKr8pqxwtaSVobNIdlUymtRCpwAAzL/h8eHb3fyM0DmAB/Ebc3lxX8Hv6VQQAAAwc7lvYP2s2bzZXJ8NneM+Jp0VF0ufjOM43I1+D6EyWHlWFPm3JD08dBZJkmXvDx0BANA9tTS9QlzcgRxyafVcXr/Xnd2FAAAElPsGliRZ5BslZaFz/Ipt0OTUUHVV9VGhk+ynEJcq74zMr5J0WOgwkiTXtUmabgodAwDQXVPmb5A0FjoHcJ/169f3m1SZwxJ3pWl6S8cCAQCAGeuJBtZwmm6R6Suhc9yfrbUo+351sPxqBX4fTyiVSvFg+dtyP1dSIWSW+4n8vNARAADdl6bpdnN7begcwH2237Z9naT+WS/g2tq5NAAAYDZ6ooElSZHpHOVqF5Yk6VAzfTwuVn4Yl0ond7v4upUrD41LlXdOud0k09O7Xf8grkvS9MrQIQAAYYy06l+W/KLQOQBJMsueM7cFaGABABBazzSwhhuNn8h0eegcB+aPl9t34mL5S6sHy8/WPA95X/PINQ9fXSyfNbFseW3frqtD5rPebERub5XkoXMAAMLJCtGbxFHCEAqrS+WPVVZVnhA6SG645tjA8h91KAkAAJilvtABZqJgOqft+mPlN/fz3PS8uFgeluxjkU9dMdxq1Tux8Nq1a5fsumfX0yLz0zJNvkjSsk6sOx9c+uZwq/7N0DmABeCoeLD0ltAh8i5y++7waON/QufAA9Xr9bviUul0uX1VOb/BdyGJi+UL3PWXUeR/HpfLf5I0Gl8PnSmkNYODlcz01Lms0Tb7dqfyAACA2clrI+iAtjYaW6ulyr+a+9+EznIQayT/YGaFD8bF8rCbvmaZrmkXtKVQKGxNkmTPwRaoVqvHaGpqbeT2aDd79p4dE8+ITId2I/wcTZq38/71AXrF0TLbGDpE3rVN75VEAyunkjS9Ki6WL5T06tBZFoNqsfx2Sa/b98MVyvSluFh5ZdKsXxIyV0iZotM1t1MHtzYajRs7lQcAAMxOTzWwJKmt7J19sj+TdEzoLNO0xlxrZPrrQiYpa0/FxXIqabtL2yPZPW4+JbcVbr7CXCskFTWVHSlF8t57Xv3hpNW6KXQIAECO9BfO1GT79yQVQ0dZyFaXKhvc/T2/9tNLJL+4WiwfW2s2PhgkWEBrBwaO3GN2xlzWMNm3xVgEAACC67kGVpqm21eXKme7+6dCZ5mlPkmxdO9ZCpfv+0jksl7/aOQa1ZLCu0LHAADkS5Ikd1cGK6+KzL8hjhLOi0qx8gfu/nEd+P01k/4xLpXX7Z6aPGNsbGxXt/OFsqfQ/zZJD5vLGu6e0xmsAAAsLj0zxH1/I2n903It6nkOeeSR/2WSJHeHzgEAyJ96q/4tyf89dI6FaHWp9KRI/nkd7MGk6xXLCv3fi1fF1e4kC6tcLq+T9FdzXOYOLSl8qRN5AADA3PRkA0uSR9nkKyVtDx0Ev/TJWpp+LXQIAEB+Ld+96yxJSegcC0m8Kq6625XStOdkPkZR+0eri5VT5jNXaHEcL+3LdLGkpXNZx6TPTmd2KQAAmH+92sDS8NjYz83szaFzQJK8pv4CXwsAwEO6Ydu2nTI/XVIWOstCUCqVjlXU/oZmPhf0cJdfVi1V/nndypW9cEHMTJkm259wad1cF3JlF3UiEAAAmLuebWBJ0khav0jSxaFzLHKTZnoZRwcBANORpOnVbvpI6By97vjjjz+sz+2/JJVnuYSZ+99MLFt+Y2WwgWlQSQAACmBJREFU8qxOZgutWqpslPQXc13Hpa8kzeb1HYgEAAA6oKcbWJK0dGL561zaGjrHYuWuvx1J0x+EzgEA6B279u55q1wjoXP0qrVr1y6Z2r33i5Ie14HlypH5N6qDlX+L4/jwDqwXklWL5feb+991YC2XR+d2YB0AANAhPd/A2nzb5h0F8xdKuit0lsXHL6q1Gh8OnQIA0FvGx8cnXNEGcZRwNmzPjp0XmfS7nVzTzM/QZHZTXCyffrJO7rlbqgcGBg6Ji+WLTTqrIwu6rqy1akMdWQsAAHREzzewJGk4Tbe4+Z9KaofOsliY9L9LVxx6RugcAIDeVGvVrpH0z6Fz9Jq4WP6AZH8+P6v7cZI+MVZs3rhvyLvNT53OiovFxy0r9A9JelmHltwdRX52h9YCAAAdsiAaWJJ07w149tehcywSW7y/cMrmzZv3hg4CAOhdu9uT75C0JXSOHrNF879z7QSXXx4Xy99bXaz8oXL6eTGO48PjUmWjFH1f0okdW9jsXcNpyj+XAADkTC4/kMxW0qx/VO7MK5hfLe+Lfi9JkttCBwEA9LaxsbFdMt8gdlBPW9JsXCjXaerOe/Ykl385LpaTeLD0ljiOj+5CzYNae/TaFdXB8hs02R6W+1skLeng8kMD6eA/dnA9AADQIQuqgSVJSSt9t+QfCp1jgRrPCvbsWq02GjoIAGBhSNL0+zKjYTADSatxsTKdImmiSyXLMtuoyfZoXCxfXC0Wf39gYOCQLtX+pTWl0glxqbJxz/KJlpkukLSywyV2Zm3bsEmbpjq8LgAA6ICeG9I5HUkzfXO1WJ7q2CBPSFLL29Gz6s1aEjoIAGCB6YvO1eTU8yRbGzpKr0hGG1euKZefkWX6kqRjulR2qaSXm6KXLytEE3Gp/C2TfyUrFP5rnh5uFdaUy+szt2fJ/SWZ67GSz0MZSZLLdVp9rH7jfBUAAABzsyAbWJJUazb+Li5Vdsn970NnWQCSPvNnbxmrpaGDAAAWniRJ9lRWVU6LIv+eFvBnk04bbjSuPaFUetKUR5dL/vgul18u1/Nd9nybyhQXSzW5XWemIc+0NSr48F4pTdN09zTWsnK5fEzUjgZM2Uke2aPMfZ2kp2SZDpvHptV+CezdSbN+2fwXAgAAs7WgPyQmaf3c6mB5zEwf1QL/s84f/240ueSPtowP3x46CQBg4aqP1q+rFssbTXpH6Cy9ZEuapgMDA09d1tf/73K9IlwSq8pUdemliqTMTX2S4mL5bkm3SLpH0qRLO0w6RNIyyZdJ0W9Ifowy9cvunU1v3oWG1f1dkqT1d3W7KAAAmJkF39SptRqfiMvlpjJ9XtIRofP0EpN9btJ8Qzo+PJ2npwAAzMmyFcvfs3fHxAtcWhc6Sy8ZGxvbJenUuFi5WvJ/kbQidKb9HL7vL0mS3e+XTF3ZXfXQLk6ajQ15CAIAAB7aghvifiBJo/F1b0dPMOmG0Fl6xKTM3jzSrP/ZNLf+AwAwZ5s3b97ryk6TNBk6Sy9KmvVPZW17vJl+GDpLb/CLkmbjNHELJgAAPWFRNLAkqTZWS3ZO7vltyS8KnSXnWpnbM5O0zk2OAICuS5rN6+X+vtA5elV9rD5yXFp8stzPlrQrdJ6ccjd7f9JMT5eUhQ4DAACmZ9E0sCRpfHx8Immmr3TzP5Z0a+g8eeNun84Ktq7eqv9v6CwAgMXriKOPOk/S9aFz9KpN2jSVtNLzs4I9VvJvh86TMzvkekktrb9FNK8AAOgpi6qBdZ9aml6h/sKjJF0iZh5IUtPcnl9r1TfU6/W7QocBACxuQ0NDk1nbTpW0N3SWXlav14eTZvosk71IUiN0nhzYIm8/KWk1uG0QAIAetCgbWJKUJMltSbPxcpk/U7KbQucJZK/Mzp+Y3HPSSKv+5dBhAAC4T32sfqMkbobrgJFm/fIp85NcOkvSYrxVeFLSeVPmj0tarcX6mQ8AgJ63aBtY90nSdNMRD3/YY931Gsl+HjpPl2SSfzby9olJWj97fHx8InQgAAB+3UCz+H4GkndGmqa7a83GPxaWLanI/VxJvwidqUt+0I70hKTZeDsX0wAA0NsWfQNLuveoQq3V+Pju9t7VLp0paTx0pnmSSbrMzNcnzfRlw61WPXQgAAAezCZtmvKsfZokGg8dsnXr1nuSVvruwrIlRZm9Wa7R0Jnmg0tbJXt50mw8udFocAs1AAALAA2s/YyNje2qNRsfXLpieVnS6ZJvDp2pQyYkfSIr2IlJs/HikTT9cehAAABMR9Jq3WT37hhCB23duvWeJK1/6Iijj6zK9RKXvqmFMBfUNSLXK2rNxtqkWb9EDGoHAGDB6AsdII82b968V9InJX2yOlh9SqTs1W56saTlgaPN1I8l+0RW0CUMZwcA9KqRVvrBuFh+oaTfDp1loRkaGpqU9AVJX6gOVGMVslNN+lNJceBoMzEp2VdMunCkVf+apHboQAAAoPNoYB1ErVW7RtI161aufP3OQw55nlwvMdlzld9m1s9k9nnz9qUjzebPQocBAKAD2oVIG9qZrpd0SOgwC1VtrJZIOkfSOWvK5Se2M73IpOdJOjFwtANxST+W+6VTkf4jTRu3hA4EAADmFw2sabph27adki6VdGmpVFrWZ/Z0ZXqOpGdJepSkQqBot8t1jSK7quDtr21tNrkme5rM/d3e1W+EFu1tlwuGyz9prm+FzoH7K7h9N3QGN/+MZd0bNp65XdOtWnmxtdHYWilWXhR59uj5rtXX37drvmvk3XCjca2kayX93fHFYrmt6A9k+h25nibp2ECx7pb0DUlfLWRTX906OrpQZ5YeVKFduCWz9tmzfb1HanYyz0JSaO9pZlHfrN9bMxvpZJ75kJn9rCA7f7av97YH///uwbQ9uiZSNoevo/93J/NgATN/pzItnc1L3YwdwzNkoQMsBMcff/xhk7smnxhFeqJ79miTnSTpBGl2/yA/hNskv9Fkm2V2vSn73nCabtVCmFkBAAB6QqVSWVNo6wmZ6TGW+WNltlby4zpc5m43/USyH1nmQ1LhR0kr2SKOBwIAsGjRwJo/hfi4+BFZIStFpqKklSY/0uVHyu1IRYrctVz7mlwm2yHzSbl2u9mdlmV33vt3taI+Nfe6N9M03R72jwQAAPBAAwMDhyyLllWkdsWlR8h0tLk9XOYPl2mpufVl8sPM5JK2y33SzHZk0m657jazccs0OlXwVrvdHm21Wr8I/WcCAAAAAAAAAAAAAAAAAAAAAAAAAAAAAAAAAAAAAAAAAAAAAAAAAAAAAAAAAAAAAAAAAAAAAAAAAAAAAAAAAAAAAAAAAAAAAAAAAAAAAAAAAAAAAAAAAAAAAAAAAAAAAAAAAAAAAAAAAAAAAAAAAAAAAAAAAAAAAAAAAAAAAAAAAAAAAAAAAAAAAAAAAAAAAAAAAAAAAAAAAAAAAAAAAAAAAAAAAAAAAAAAAAAAAAAAAAAAAAAAAAAAAAAAAAAAAAAAAAAAAAAAAAAAAAAAAAAAAAAAAAAAAAAAAAAAAAAAAAAAAAAAAAAAAAAAAAAAAACYm/8D4A7wlYeUFC4AAAAASUVORK5CYII=;" parent="7" vertex="1">
                    <mxGeometry width="60.64" height="64.78" as="geometry"/>
                </mxCell>
                <mxCell id="6" value="&lt;b&gt;OpenShift Cluster&lt;/b&gt;" style="text;html=1;strokeColor=none;fillColor=none;align=center;verticalAlign=middle;whiteSpace=wrap;rounded=0;fontSize=16;" parent="7" vertex="1">
                    <mxGeometry x="50" y="14.779999999999973" width="190" height="30" as="geometry"/>
                </mxCell>
                <mxCell id="10" value="" style="rounded=0;whiteSpace=wrap;html=1;dashed=1;dashPattern=8 8;" parent="1" vertex="1">
                    <mxGeometry x="240" y="670" width="580" height="230" as="geometry"/>
                </mxCell>
                <mxCell id="19" value="&lt;b&gt;Application Virtual Machines&lt;/b&gt;" style="text;html=1;strokeColor=none;fillColor=none;align=center;verticalAlign=middle;whiteSpace=wrap;rounded=0;fontSize=16;" parent="1" vertex="1">
                    <mxGeometry x="230" y="670" width="270" height="30" as="geometry"/>
                </mxCell>
                <mxCell id="20" value="&lt;b&gt;Bastion Host&lt;/b&gt;&lt;br&gt;Name: Guacamole" style="text;html=1;strokeColor=none;fillColor=none;align=center;verticalAlign=middle;whiteSpace=wrap;rounded=0;fontSize=16;" parent="1" vertex="1">
                    <mxGeometry x="-130" y="600" width="140" height="30" as="geometry"/>
                </mxCell>
                <mxCell id="22" value="- OC Commands&lt;br&gt;- Web browser (Firefox)" style="text;html=1;strokeColor=none;fillColor=none;align=left;verticalAlign=middle;whiteSpace=wrap;rounded=0;fontSize=16;" parent="1" vertex="1">
                    <mxGeometry x="40" y="370" width="170" height="30" as="geometry"/>
                </mxCell>
                <mxCell id="24" value="- SSH&lt;br&gt;- Web browser (Firefox)" style="text;html=1;strokeColor=none;fillColor=none;align=left;verticalAlign=middle;whiteSpace=wrap;rounded=0;fontSize=16;" parent="1" vertex="1">
                    <mxGeometry x="40" y="800" width="170" height="30" as="geometry"/>
                </mxCell>
                <mxCell id="32" value="" style="ellipse;whiteSpace=wrap;html=1;fillColor=#e51400;fontColor=#ffffff;strokeColor=none;" parent="1" vertex="1">
                    <mxGeometry x="-130" y="930" width="15" height="15" as="geometry"/>
                </mxCell>
                <mxCell id="33" value="Software already installed" style="text;html=1;strokeColor=none;fillColor=none;align=center;verticalAlign=middle;whiteSpace=wrap;rounded=0;fontSize=16;" parent="1" vertex="1">
                    <mxGeometry x="-110" y="922.5" width="200" height="30" as="geometry"/>
                </mxCell>
                <mxCell id="36" value="" style="rounded=1;whiteSpace=wrap;html=1;fontSize=16;" parent="1" vertex="1">
                    <mxGeometry x="372.5" y="760" width="315" height="101" as="geometry"/>
                </mxCell>
                <mxCell id="37" value="&lt;b&gt;netcoolvm&lt;br&gt;&lt;/b&gt;" style="text;html=1;strokeColor=none;fillColor=none;align=center;verticalAlign=middle;whiteSpace=wrap;rounded=0;fontSize=16;" parent="1" vertex="1">
                    <mxGeometry x="377.5" y="831" width="300" height="30" as="geometry"/>
                </mxCell>
                <mxCell id="40" value="" style="ellipse;whiteSpace=wrap;html=1;fillColor=#e51400;fontColor=#ffffff;strokeColor=none;" parent="1" vertex="1">
                    <mxGeometry x="397.5" y="771" width="15" height="15" as="geometry"/>
                </mxCell>
                <mxCell id="46" value="Netcool / OMNIbus / Impact" style="text;html=1;strokeColor=none;fillColor=none;align=center;verticalAlign=middle;whiteSpace=wrap;rounded=0;fontSize=16;" parent="1" vertex="1">
                    <mxGeometry x="412.5" y="795.5" width="230" height="30" as="geometry"/>
                </mxCell>
                <mxCell id="50" value="" style="group" parent="1" vertex="1" connectable="0">
                    <mxGeometry x="410" y="508" width="260" height="70" as="geometry"/>
                </mxCell>
                <mxCell id="51" value="" style="rounded=1;whiteSpace=wrap;html=1;fontSize=16;" parent="50" vertex="1">
                    <mxGeometry y="10" width="230" height="60" as="geometry"/>
                </mxCell>
                <mxCell id="53" value="OpenShift Data Foundation" style="text;html=1;strokeColor=none;fillColor=none;align=center;verticalAlign=middle;whiteSpace=wrap;rounded=0;fontSize=16;" parent="50" vertex="1">
                    <mxGeometry x="19" y="25" width="205" height="30" as="geometry"/>
                </mxCell>
                <mxCell id="54" value="" style="ellipse;whiteSpace=wrap;html=1;fillColor=#e51400;fontColor=#ffffff;strokeColor=none;" parent="50" vertex="1">
                    <mxGeometry x="4" y="15" width="15" height="15" as="geometry"/>
                </mxCell>
                <mxCell id="55" value="" style="group" vertex="1" connectable="0" parent="1">
                    <mxGeometry x="410" y="350" width="230" height="70" as="geometry"/>
                </mxCell>
                <mxCell id="56" value="" style="rounded=1;whiteSpace=wrap;html=1;fontSize=16;" vertex="1" parent="55">
                    <mxGeometry y="10" width="230" height="70" as="geometry"/>
                </mxCell>
                <mxCell id="57" value="Cloud Pak for AIOps" style="text;html=1;strokeColor=none;fillColor=none;align=center;verticalAlign=middle;whiteSpace=wrap;rounded=0;fontSize=16;" vertex="1" parent="55">
                    <mxGeometry x="82" y="30" width="140" height="30" as="geometry"/>
                </mxCell>
                <mxCell id="58" value="" style="ellipse;whiteSpace=wrap;html=1;fillColor=#e51400;fontColor=#ffffff;strokeColor=none;" vertex="1" parent="55">
                    <mxGeometry x="4" y="15" width="15" height="15" as="geometry"/>
                </mxCell>
                <mxCell id="59" value="" style="shape=image;verticalLabelPosition=bottom;labelBackgroundColor=default;verticalAlign=top;aspect=fixed;imageAspect=0;image=data:image/jpeg,/9j/4AAQSkZJRgABAQAAAQABAAD/2wCEAAkGBxATEBUQEBMVFRUSFRgXGRUYGBYXGRsWFxUWFxUWFxUaHSggHhomGxgXITElJSkrLi4uFx8zOzMsNygtLisBCgoKDg0OGxAQGy8mHyUtLy0vNTEvLy0tNS0tLS0tLS0rLS0tLSsuLS0tLS0tLS0vLS0vLS0tLS0tLy0tLS0tLf/AABEIAOEA4QMBIgACEQEDEQH/xAAcAAEAAwEBAQEBAAAAAAAAAAAABQYHBAMCCAH/xABFEAABAwEEBgQKBwYHAQAAAAABAAIDEQQFITEGEkFRYXEHEyKBIzRCUnJzkaGxszIzU2KCssEIFCQ1dINDY7TR4fDxFf/EABoBAQACAwEAAAAAAAAAAAAAAAADBQECBAb/xAA2EQACAQICBwYFBAIDAQAAAAAAAQIDEQQFEiExUXGBsSIzQWGRwTLR4fDxEzRyoSOCQlKSFP/aAAwDAQACEQMRAD8A3FERAEREAREQBERAEREAReNomYxpfI4Na3EucQAOZKo9+9ITW1ZZG65+0eCGfhbme+neujD4WtiHanG+9+C4v7ZpOpGCvJlzt1uihYZJntY0bSfcBmTwCod+9IbjVljbqj7V4qebWZDm6vJUm326ad/WTPc928nLg0ZAcAuq5rktFpdqwMLgDQuODBzd+gx4L0GHymhQWnWabW/VFfPn6HBUxM59mGrqWW4+kCZh1bWOsb57Q1rh3CjT7u9X+671gtDdeF4cNoycPSacQslvfRy02U+FZVn2jcWd52d4C47LM+NwfG5zHDJzSQfaFjEZbh68f1KLS4a4vktnK3AQxE6b0Z6+puqKhXJpw4UZa21/zGjH8TNvMexXSyWuOVofG4OadoPuO48CqDEYWrQfbWrf4evz1ndTqxqfCdKIi5yQIiIAiIgCIiAIiIAiIgCIiAIiIAiIgCIqtfumlngqyPw0g2NPZB+8/LuFe5S0aFStLRpq7++SMSkoq7LK+QAEkgAYknAAbyVUL909gjqyzgTP87KMd+bu7DiqPfWkFptR8K/s7I24MHdtPE1UdZbLJI8RxNc9xya0VPPlxV/hsmhDtV3fy8Fxf45nJUxDeqJ73te9otLtaeQupk3JrfRaMBzz4ryu67Zp39XBG57ttMhxc44Ac1d7j6Psn2x1P8thx5Of+jfar1YbHHEzq4mNY0bGined54qTEZtRoR0KCTa5RXz5avMjhhpTd56upTbh6P420fa3dY77NtQwczm73DmrrBC1jQxjQ1rRQNAAAG4AL2ReexGKq4iV6jv0XBHbCnGCtFHy5oIoRUHYqpfWhMElXweCf5vkH8Pk92HBW1FrRr1KLvTdunNbDM4RmrSRj94XRNA7VmYW7nZtPJ2Xdmvq77VJE7XieWneNvAjIjmtZmia9pa9oc05ggEHmCqveehzDV1nOqfMdUt7nZj39yuKWaQqLRqq39rmvA454Vx1xfzPq6dLWuo20N1T57a6ve3Me/uVnika4BzSCDkQaj2rM57FJE7VkaWnjt5HI9y7LvtcsRrG4jeMweYUVfAQl2qTt0+/U2hXktUvqaIihbuv5j6CQajt/knv2d/tUzVVU6coO0kdcZKSuj+oiLQyEREAREQBERAEREARFE3xf1nsw8K/tbI24vPdsHE0C2hCU5aMVdhtLaSygL80ps1mq0u15B/hsxIP3jk3vx4FUm+9MrTPVsfgY/untEcX/oKd6rVFeYXJr66z5L3fy9SCdbcTV+6VWm01aXdXGfIZUAj7zs3fDgoOOMuIa0Ek4AAEkncAM1abk0ItE1HTeBj4jtnkzZ3+wq/XRcVnswpCztUxecXnm79BQLrrZhh8LH9Okk3uWzm/yyJUpT1so9xaBSyUfaj1bfMFC88zk33ngFf7suuCzs1IWBg20zPFzjie9dyKhxONrYj43q3LZ9eZ0wpxhsCIi5DcL5e4AVJoN68bZaWRRvlkNGRtc9x3NaCXH2Bfmx8t66R217I3asLO0GOc5sMUdSGawFdaQ76Ek1yAwA/TDHgirSCN4xX2vzDelzXvo9PHOyUajzg5hcYnkZxyxmmNN/MGow/RWjN8MtlkhtcYo2ZgdTOhyc3ucCO5ASiIiA8LRZ2PbqvaHDcVAW3RunahNfuH9Hf7+1WZFLSrTp/C/kayhGW0ovUOadVwII2FSFhtUkf0Th5pxH/CsdoszHijwD8RyKi57pLcWHWG7b/yuv8A+mFRWl9CD9Jx1o7rLb2vwPZO45dxXaq/GzYVIWaRwwzG5c1Skl8JLGe8kEXy11V9KAkCIiAIiIAiIgM50g01lc50dm7DASOszc6mFR5o9/JU97iSXOJJOJJNSTvJKs2keiU0TnSQjrIqk4YuYNxbtA3jdjRVoHaPaF7HBRoKnehs/vn5/a1HNO99ZN3JonabRR1OrjPlvGY+6zM+4cVfrl0as1mALG6z/tHYu/Dsb3e9Va4NOHspHawXty6wDtD0h5Q4jHmr5Y7XHKwSRODmnIg17uB4KmzKti09GeqL3bHxe3k7cCSnGPhtOlERU5KEREAREQEff1g/eLJPZq6vXwyRV3dYxzK+9fnjot0sbc9stFnt0b2Nl1WSECro3xF9Kt2t7bsq7KVX6XWY9OWj1kfds9udC394hEQbKKh1HTxsIdQ0cNVxA1q0rggKL0w9IFmvGOKxWIPe1sokMhaW6z9VzWNY09o/TdWoGNFsPRxc77HdVms0uD2MLnA5tdI90rmmm4vp3LPf2fNH7I+zPt0kLXWiO0vjZI6p1WiKFw1Wk0Bq53apXHNbSgCIiAIiIAiIgPKSFrsx37V5Cz04r0nmYxpe9wa1oqXOIAA3knJUDSPpDzjsQrsMrhh+Bhz5u9hXVhcNWxEtGmtXi/Bc/ZayGrUhTV5Ftvm/bPZWa076E/RYMXu9Fv6nDiqWOk93W4wDqq5Bx16b60pXh79qodpnfI8ySOL3Ozc41J7yvIr02GyXDwX+VaTfFeln1KyrjqjfZ1L723P0PZ5mvY17DVr2hwO8EVB9i9lGaOeJ2b1EXy2qTXkqkNCcorwbRcJ3VwiItDIREQHn1irl+6JQWiskfgpDtA7Lj95u/iMeal+sXXAeyP8Au1TwqTovSg7Mw0ntMbva6J7O7VmZSuThi13ou/TPgvi7b0ms79eJ5adoza7g5uR+K2a02dkjSyRoc05gioVEv/QZzayWQ6w+yccR6DjnyOPEq8w2aU6y0KySb/8AL+XPV5kUqbWwlrg0yhmoyakUhwxPYcfuuOR4H2lWtYTLGWktcCCMC0ggg7iCp+4NLJ7PRjvCxDyXHED7jv0OHJR4rKE+1Q9Pk/nq8xGr/wBjV0UZc98wWhutE6pGbDg5vNv6jBSaopRlCTjJWZMncIiLUBUbps/kVr/s/wCphV5VG6bP5Fa/7P8AqYUBB/s5fyqb+sf8izrVVlX7OX8qm/rH/Is61VAEREARFw3necNnZrzvDBsrmTua0Yk8lmMXJqMVdmG7K7O5VnSLS+z2WrB4WUf4bTkfvu8nlieCp2kenU0tY7PWGPKte24cSPo8hjx2KoAbN/xK9Bg8kb7Vf0Xu/ZeqOKtjLaoepI37f9ptTqzP7IPZjbgxvdtPE1K5Ltu6aeTq4GF7twyA3uOQHEq16OaAyy0ktVYo89Ty3cwfoDnjwGa0i7buhgjEcDAxo2DMne4nEniV1YnNaGGj+nRSbW74V6beXqQU8LOo9KerqUVmgkUFkmmtB6yZsMjmgVDWODHEEbXEbzhw2rO1vGk3iVp/p5fluWEFTZNiKleEp1Hd3XTwNMbTjDRUVvN40d8Ts3qIvltUkozRzxOzeoi+W1Sa8piO9nxfUto/CgiIoTYIiICF6xSdiPYHf8SoHrFNXafBDv8AiV1V42jzB1oiLlBE31cMFpHhG0cBhI3Bw79o4FZzf2jFos1XU14/tGjL02+T8OK1xfwhd2EzCrh9S1x3P23dPI0lBSMLgmexwexxa5uTgaEd4V4uDTvKO1jgJWjD8bRlzHsC7r/0Jilq+z0if5v+Ge4fR7sOCz68Lvlhf1czCx3HIje05EcleKWFzCFnt9JLh5eq3ohtKDNrgma9oexwc1wqHAggjeCF6rF7mvu0WZ1YndknFhxYeY2HiKFaNcGldntNGHwcnmOOZ+4fK5YHgqbF5ZVoXku1Hf48177CWNRS1FiVG6bP5Fa/7P8AqYVeVRumz+RWv+z/AKmFVxIQf7OX8qm/rH/Is61VZV+zl/Kpv6x/yLOtVQBfLnACpwA2qGv3SOz2UUkdrPphG3Fx3E+aOJ96zS/9J7RaSQ86keyJuX4jm488OAXfhMuq4jtbI737Lx6eZFUrRhxLfpFp3HHWOy0kfl1h+rHI+UeWHErOrfbZZnmSZ5e47T8AMgOAwX8stmkkeI4ml7nZNaKn/wA4q/6PaANFJLYdY59U09kem4fS5DDmr9LCZdC/j6yf09EcT/UrP7sU64tHLRa3eCbRgOMjsGDfQ7TwHfRabo9onZ7LRwHWSfaOGI9AZNHv4lT0UTWtDWgNaBQACgA3ABeio8XmlXEXiuzHcvd+PDUjrpYeMNe1hERVpORmk3iVp/p5fluWErdtJfErT/Ty/LcsKK9VkD/wy/l7FZj9q5m7aO+J2b1EXy2qSUbo94nZvURfLapJear97Li+pZR2IIiKIyEREBUesVhug+Bb3/mKquurRch8A38X5irHGRtDn8wd6IirgEREAXJeFgimYY5mB7TsOw7wcweIXWiym07oGa6QaESx1fZqys8zyxy84cseBVRI93xC3hQN/aM2e01cRqSfaNGP4hk4e/iFd4TOHHs1/Vbea8eO3iQypbinXDptNFRlorLHv/xGjmfpd+PFdHS1esE1wWl8UjXBxhAFaGv7xES0tOINATTcFXdIrlnsYc+ZtY2gnrG4tIArnsPA+9Z7ono1ar7tT/CCNkYBe8guDGuJDGMZUVJodo+iSTv1zSGG0VUp7ZbrW877vzfeKWlezNN6ALdDFdM7pZGtDbW8mpAwMMAGGeJBA30UtpDp299Y7ICxuXWEdo+iPJHE48lkunWgNqud0VoZMJI3u1RK1uoQ+hOo9lTgQDTE1oa022rRSxTW6Nj4GV1h2jkxpydV3MHDPgtMrp4aWlKrtWvXbRtv/PkYrOX/AB+p5SPJJc4kk4kk1JO0klWTR/Qya0UfJWKI7SO24fdadnE+9XDR7Q6Cz0e/wsox1iOy0/dbv4nHkrSunF5yvhoLm/Ze79DSGH8ZEbdF0QWZmpCwCubji53FztvwUkiKhlOU25Sd2zpSSVkERFqZCIiAjNJPErT6iX5blhZW6aSeJWj1Evy3LDF6nIO5l/L2K3HfEuBumjvidm9RF8tqklG6O+KWf1EXy2qSXm6/ey4vqWMdiCIiiMhERAZ/rq3XAf4dnN35yqSXq6aNn+GZzd+dyt8wVqfP5glERFUAIiIAiIgCKC0o0rsdgi621yhta6rBjI+mxjMzsxyFcSFhukXSDel8TfuV3xvjifUdVGe29tQNaWTDVbvFQ3tUJOaAvXSf0m2GKCewxfxEs0b4nahHVx67Sx2tJtcKnstriMS1Zb0X6c//ACp5DLE58Npa3XDaB41C7UeytAR2nClRnnhjpWgnQxZ4NWe8S2eXMQj6lvpVxkPsbngc119LF1WeWSBskTSGxEDChADsACKEDgFPhsO69T9OLs9f9GspaKuZ50p9I7b0bFZbLDI2Jj+sJeB1jnhrmijWkgNDXO2mtdlMbN0QdJdihs0V3WodQY9bVmJrG4ve551z5Bq459nDMZLs6L7ns8NuBija09W/HEnIeU6pUxp10RWO2601mpZrQamrR4J5OPbYMj95u8khyzisNLDzUJNN2vq5iMtJXNIjeCAQQQRUEYgg5EFfa/NF2aR3zcEws1oYXQ1NIXmsbhUVdBIK6uezDtYtqtu0N05sN4srZ5KSAVdA+gkbvNPKbxbUYjI4LnNi0oiIAiIgCIiAjNJPErR6iX5blhpW5aR+JWj1Evy3LDSvU5B3Mv5exX43auBuejvidn9RF8tqklG6O+J2f1EXy2qSXm6/ey4vqd8diCIiiMhERAZhrq86MH+FZzf+dyz/AFlftFT/AAjOb/zuV5matS/2XRmWiYRF8ucAKnADaqMwfSLB9K+mO2S2k2e54+yHFrZNQyySEeUyPEBuBpUEkY4ZDlujplvKyymK84OsoDgWdRKDSrailNX8Nca8CBvs8zWNL3uDWtBJc4gAAZkk4ALHtPOmqOPWguwCR+INocOw05eDYfpnPE9nAfSBVMtd431pDP1UbS2Bp+g0ubZ2Yihlf5T8jjU50AxWr6C9FdisGrNJ/EWkY9Y4dlh/y48QCPONTupWiAzfRfoyvK9Jf3285JI434l0lTM8bAxjsGNzoTgMKNIW46O6N2SxRdTZImxt2nNzjve84uPPLZRTKIAs66TfrofVu/MtFWd9Jv10PoO/MrLKf3S4PoaVPhI/o98eb6D/AIBaoss6PvHh6D/gFqakznv1w92YpbDgva6oLTE6C0xtljdm1wqOBG0EbCMQsS0x6H7TZn/vd0Pe8MJcIg4tnYf8p4prAY7nYD6RW+IqkkMK0K6aJI3CzXu09k6v7w1tHtINCJYgMaY1LccMicVtdgt0U0bZYHtkY4VD2EEHvCrGm/R5YbxaXSN6uelGzsFHcA8ZPblnjuIWL2u7760dn6yNxdA4/TGs6zyZUEjPJflnQ50JFUB+mUX5/vbpvt04jisNnEcjhRxoZnF+6JtKU5gnHhj8XR0v3rZJhHesJe00Lmui6iYNJ+k0Ua07cCMd4QH6DRc1htkc0TJonB0cjQ9rhkWuFQfYulARmkfiVo9RL8tyw9bhpH4laPUS/LcsQK9RkPcy/l7HBjFrXA3DR3xOz+oi+W1SSjdHfE7P6iL5bVJLzlfvZcX1O6OxBERRGQiIgMj1loeiJ/g4+b/mOWb6y0bQ7xOPm/5jl6HNlaj/ALLpI3kTag9N2PddtsbFXXNmmDQMyerdgOKnEXnjQwL9nO0WVs9pY8tFoe1gj1qVMY1jI1nGuoSNtBuK7/2jrTZSyzRgtNqa9xwprNhLcQ7cC7VpXc6m1e2mXQj1kzp7tlZFrnWMMmsGNNanq3tBIG5tMN9MB4aKdBrmzCW8pmPa11epi1jr7e3I4AgbwBjvCA0Lotgcy57GHAAmEOwAGDiXNOG0tINVbV8RsAAAAAAoAMAAMgAvtAEREAWedJn10PoO/MtDWedJn10PoO/MrHKv3S4PoaT2HB0feOj0H/ALUll3R946PQf8AtRUmcd+v4rqxT2BERVRuFHX9A59knjaA5z4ZA0EAguLCGihwONFIogPzt+z1abKy3TNmLRM+MCEuoK4nrGtr5RGrxoDxVo/aLnsv7pBG4tNpE2swCmuIi1wkJ2hhOpzIG4r60+6GW2mZ9qsEjInyEufE8Hqy4/Sc1zQS2uJpQip2KJ0d6DJTKJLxnYWA1McJe5z+DpHBuqOQJptGYAvvQwx4uSy9ZWpEhFc9QzSFvdQ1HAhXheFlgZGxscbQ1jGhrWgUDWtFGtA2AAAL3QEZpH4nafUSfLcsRIW36ReJ2j1En5CsTcF6fIu5l/L2RwYrauBtmjvidn9RF8tqklG6PeJ2f1EXy2qSXncR3suL6s7o7EERFEZCIiAxqq0DQu2xGzthDx1jS+rcjTXcQQNooRkq1fujU0Jc5jdeKpILcS0bnDPDflyUG1xBBBoRiCMxxBXqK8IY2l2Zar366n6kzWkbMiz26NMZY6NnHWN87J478nd9DxV0u29IZ260Tw7eMnDm04hUGIwlWh8S1b1s+hE00dyIi5jAREQBERAFnnSX9dD6DvzLQ1n3SV9dD6DvzKxyr9yuD6GsthwdH3jrfQf8AtQWYaAeOt9B/wC09SZx364e7MQ2BERVRuEREAREQBFzWy2RxN15Xho4/ADMnkqZfWmbzVlmGqPtHAF34W5DvryC6KGFq13aC5+H3wuaymo7SwaV26KOyyse4B0kT2tbtJLSBQZ0qc8gsgcF2WmRz3F73Fzjm4kknmSu+5tGbRaSCxurHtkdg2n3Rm48sOIXpsHRhgqT05ar3b2Ll96ziqN1HqRp+j3idn9RF8tqkV4WSziONkbco2taOTQAPgvdeUqSUpykvFvqdyVkERFoZCIiAKBvjRizz1IHVvPlNGBP3m5H3Hip5FJTqzpvSg7MJ2Mqve4Z7Pi5tWee3Fvfu71HwyuY4OY4tcMiDQ+0LY+BVbvjRGGSrofBP3D6B/Ds7vYVcYfNYvs1lbzWzmvzyJFLeRV0aauFGWlusPtGjH8Tcj3U5FXGxW2OVuvE8PbvHwIzB4FZbed0zwGkrCBscMWnk79DiueyWuSJ2vE8sdvHwIyI4FSVstpVlp0nb+0/ly9DDjuNkRUu59NWmjLS2h+0aMPxNzHdXkFboJ2PaHscHNORBBHtCpq+Hq0Xaa+Xr7ama2seyIigMBZ90k/WxegfzLQVn/SR9bF6B/MrHKv3K4PoYlsODQDx1voP+AWnrMdAfHW+g/4BacpM379cPdmIhERVRsEXy5wAqcAoi3321uEY1jv8n/lbwpym7RQbsSssrWgucQ0DaTQKs3rpTSrYBX77su5u3v9iibfaZJDWRxO4bByC5oLFJK7VjaXH3DmcgrOhgqcVpVNfQilN+BwW2d8jteRxc7efgNw4BLvueec0iZUbXHBo5u/QVKuN26JRto6Y6580YN79p9ysccYaA1oAAyAFAOQUtXM4wWjSV+np+DVUr7St3NofBFR03hX8R2Bybt7/YFZwv6iqatapVd5u/36EyilsCIiiMhERAEREAREQBERAeUsTXAtcA4HMEAg8wVVb30MY6rrOdQ+Y6paeRzHvHJW9FNRr1KLvB2MpmO26wywu1JWFh45HiDkRyX1d95TQO1oXlu8ZtPNuRWsWqyskaWSNDmnYRXv5qoXxoTm+yu/tuP5X/7+1XVDM6VVaFZW/uP056vMzfedlz6ZRPo2cdU7zs2Hvzb34cVaI3ggEEEHEEYinNY3abO+NxZI0tcNhFD/AOcV2XTfdos58E7s7WOxae7ZzFFrXyqEu1RdvLw5P88g0a2s/wCkf62L0HfmU5c+lsE1GyeCfuceyTwf+hp3qE6R/rYvQP5ly5fSnSxajNWdn037HyNWcGgPjrfQf8AtOWZ6BeOt9B/wC0l8gCzm+uuuHuzCPtcVpt7W4DtH3e1eVplccNm5cTmVwC4adJPaDnttpe/6Rw3DL2LhEDnHVaCTuCnYLrJxeaDcM/8AhScMDWCjAB/3aV0PExpq0foY0SCsWjw+lMfwj9Xf7e1TsMLWDVYA0DYMF6ouSpVnU+JmUrBERRmQiIgCIiAIiIAiIgCIiAIiIAiIgCIiA47fd8MzdSVgcNlcxxBzHcqZfOhcjKus56xvmGgeORyd7jzV/RdOHxdWh8D1bns++Bm5ikkZaS1wIIwIIoQdxBX9kmc4Na5xIYKNBJNBuG4LWL1ueCcUlZU7HDBw5O/Q4Kk3vodPFV0PhWcB2xzbt7vYr3D5lSrWUtT89nJ7OjFzz0D8dHoP+AWiyNVL0IuWdkxnlY5jWtLQHCjiTTYcaAVz4K9qrzOrGVfsu9kvcwcgs5OeC9o4WtyHftXqirnJsBERYAREQBERAEREAREQBERAEREAREQBERAEREAREQBERAEREAREQBERAEREAREQBERAEREAREQBERAf/9k=;" vertex="1" parent="55">
                    <mxGeometry x="40" y="24" width="42" height="42" as="geometry"/>
                </mxCell>
            </root>
        </mxGraphModel>
    </diagram>
</mxfile>